<svg xmlns="http://www.w3.org/2000/svg" width="14.807" height="21.858" viewBox="0 0 14.807 21.858"><defs><style>.a{fill:#fff;}</style></defs><g transform="translate(-80)"><g transform="translate(80 0)"><g transform="translate(0 0)"><path class="a" d="M93.017,13.677l-3.146-.9V11.8A3.885,3.885,0,0,0,91.137,9.85a1.759,1.759,0,0,0,1.555-1.742v-2.8a1.219,1.219,0,0,1,.543-1.014l1.125-.75-.68-.51A4.617,4.617,0,0,0,91.6,2.165a2.909,2.909,0,0,1,1.2-.774l1-.334L92.184.516A4.135,4.135,0,0,0,89.17.665L88.817.489a4.631,4.631,0,0,0-6.7,4.142V8.109A1.759,1.759,0,0,0,83.67,9.85,3.885,3.885,0,0,0,84.936,11.8v.976l-3.146.9A2.478,2.478,0,0,0,80,16.05v5.808H94.807V16.05A2.478,2.478,0,0,0,93.017,13.677Zm-1.75-4.571c.007-.1.015-.194.015-.292v-1.7a1.051,1.051,0,0,1-.015,1.99Zm-8.447-1a1.056,1.056,0,0,1,.705-.993v1.7c0,.1.007.2.015.292A1.056,1.056,0,0,1,82.82,8.109Zm.705-2.82V6.382a1.75,1.75,0,0,0-.705.326V4.631A3.926,3.926,0,0,1,88.5,1.12l.665.332.158-.079a3.427,3.427,0,0,1,2.429-.25,3.609,3.609,0,0,0-1.031,1.019l-.453.678h.659a3.9,3.9,0,0,1,2.208.69l-.293.2a1.924,1.924,0,0,0-.857,1.6v1.4a1.746,1.746,0,0,0-.705-.326V4.666l-.755.453A9.984,9.984,0,0,1,87.981,6.2a3.358,3.358,0,0,0,.128-.913V4.666l-.534.32a7.071,7.071,0,0,1-3.344,1v-.7Zm.705,3.526V6.693a7.782,7.782,0,0,0,3.1-.772,2.634,2.634,0,0,1-.2.545l-.36.719.707-.141a10.705,10.705,0,0,0,3.1-1.14v2.91a3.173,3.173,0,1,1-6.346,0Zm4.936,3.45v.729a1.955,1.955,0,0,1-3.526,0v-.728a3.844,3.844,0,0,0,3.526,0Zm-6.7,8.889H80.705V19.038h1.763Zm11.634,0H92.339V19.038H94.1Zm0-2.82H92.339V16.218h-.705v4.936H83.173V16.218h-.705v2.115H80.705V16.05a1.769,1.769,0,0,1,1.278-1.694l3.092-.884a2.7,2.7,0,0,0,4.656,0l3.092.884A1.769,1.769,0,0,1,94.1,16.05Z" transform="translate(-80 0)"/></g></g><g transform="translate(85.074 7.824)"><g transform="translate(0 0)"><circle class="a" transform="translate(0.329 0.106)"/></g></g><g transform="translate(88.956 7.824)"><g transform="translate(0 0)"><circle class="a" transform="translate(0.447 0.106)"/></g></g><g transform="translate(85.993 9.519)"><g transform="translate(0)"><path class="a" d="M218.115,216a.705.705,0,0,1-1.41,0H216a1.41,1.41,0,0,0,2.82,0Z" transform="translate(-216 -216)"/></g></g><g transform="translate(83.878 16.218)"><path class="a" d="M168,368v.705h.353v1.763h.705V368Z" transform="translate(-168 -368)"/></g><g transform="translate(85.641 16.218)"><path class="a" d="M208,368v.705h.353v1.763h.705V368Z" transform="translate(-208 -368)"/></g></g></svg>