<svg xmlns="http://www.w3.org/2000/svg" xmlns:xlink="http://www.w3.org/1999/xlink" width="78.198" height="79.383" viewBox="0 0 78.198 79.383"><defs><style>.a{fill:rgba(0,0,0,0);}.b{fill:url(#a);}.c{fill:url(#b);}.d{fill:url(#c);}.e{fill:url(#d);}.f{fill:url(#e);}.g{fill:url(#f);}.h{fill:url(#g);}.i{fill:url(#h);}.j{fill:url(#i);}.k{clip-path:url(#j);}.l{fill:url(#k);}.m{fill:url(#l);}.n{fill:url(#m);}.o{fill:url(#n);}.aq,.p{opacity:0.3;}.ai,.aq,.p{mix-blend-mode:multiply;isolation:isolate;}.q{fill:url(#o);}.r{fill:url(#p);}.s{fill:url(#q);}.t{fill:url(#r);}.u{fill:url(#s);}.v{fill:url(#t);}.w{fill:#fff;}.x{fill:url(#u);}.y{fill:url(#v);}.z{fill:url(#w);}.aa{fill:url(#x);}.ab{fill:url(#y);}.ac{fill:url(#z);}.ad{fill:url(#aa);}.ae{fill:url(#ab);}.af{fill:url(#ac);}.ag{fill:url(#ad);}.ah{fill:url(#ae);}.ai{opacity:0.1;}.aj{fill:url(#af);}.ak{fill:url(#ag);}.al{fill:url(#ah);}.am{fill:url(#ai);}.an{fill:url(#aj);}.ao{fill:url(#ak);}.ap{fill:url(#al);}.aq{fill:url(#am);}.ar{fill:url(#an);}.as{fill:url(#ao);}.at{fill:url(#ap);}.au{fill:url(#aq);}.av{fill:url(#ar);}.aw{fill:url(#as);}.ax{fill:url(#at);}</style><linearGradient id="a" x1="43.971" y1="17.418" x2="48.671" y2="20.601" gradientUnits="objectBoundingBox"><stop offset="0" stop-color="#444b8c"/><stop offset="0.996" stop-color="#26264f"/></linearGradient><linearGradient id="b" x1="-0.97" y1="-2.072" x2="-0.543" y2="1.23" gradientUnits="objectBoundingBox"><stop offset="0" stop-color="#ffc444"/><stop offset="0.996" stop-color="#f36f56"/></linearGradient><linearGradient id="c" x1="6.109" y1="14.037" x2="10.168" y2="17.317" xlink:href="#a"/><linearGradient id="d" x1="0.604" y1="0.127" x2="0.03" y2="0.899" xlink:href="#b"/><linearGradient id="e" x1="-7.489" y1="-1.718" x2="-7.806" y2="7.142" gradientUnits="objectBoundingBox"><stop offset="0" stop-color="#aa80f9"/><stop offset="0.996" stop-color="#6165d7"/></linearGradient><linearGradient id="f" x1="-1.044" y1="-0.091" x2="-1.482" y2="2.279" xlink:href="#a"/><linearGradient id="g" x1="-4.494" y1="0.175" x2="-3.27" y2="2.041" xlink:href="#b"/><linearGradient id="h" x1="-1.751" y1="1.538" x2="-3.53" y2="-1.17" xlink:href="#e"/><linearGradient id="i" x1="-1.495" y1="-0.575" x2="-1.597" y2="0.679" xlink:href="#b"/><clipPath id="j"><path class="a" d="M1731,1009.022a6.829,6.829,0,0,0,4.248,8.678,6.893,6.893,0,0,0,1.307.31,6.833,6.833,0,0,0,4.559-12.549,6.742,6.742,0,0,0-1.436-.688,6.834,6.834,0,0,0-8.509,3.8C1731.112,1008.723,1731.055,1008.872,1731,1009.022Z" transform="translate(-1730.633 -1004.402)"/></clipPath><linearGradient id="k" x1="-12.734" y1="-6.509" x2="-11.321" y2="-6.509" gradientUnits="objectBoundingBox"><stop offset="0" stop-color="#ab316d"/><stop offset="1" stop-color="#792d3d"/></linearGradient><linearGradient id="l" x1="-10.907" y1="-5.46" x2="-9.709" y2="-5.46" xlink:href="#k"/><linearGradient id="m" x1="-10.893" y1="-8.974" x2="-10.043" y2="-8.974" xlink:href="#k"/><linearGradient id="n" x1="-5.461" y1="-7.841" x2="-4.307" y2="-7.841" xlink:href="#k"/><linearGradient id="o" x1="-2.531" y1="0.5" x2="-1.531" y2="0.5" xlink:href="#b"/><linearGradient id="p" x1="-3.244" y1="-1.206" x2="-3.503" y2="1.286" xlink:href="#b"/><linearGradient id="q" x1="-53.916" y1="-5.556" x2="-54.448" y2="-7.189" gradientUnits="objectBoundingBox"><stop offset="0" stop-color="#311944"/><stop offset="1" stop-color="#6b3976"/></linearGradient><linearGradient id="r" x1="0.491" y1="0.39" x2="0.617" y2="2.954" xlink:href="#b"/><linearGradient id="s" x1="0.032" y1="-0.009" x2="1.746" y2="1.986" xlink:href="#b"/><linearGradient id="t" x1="-1.034" y1="2.059" x2="-1.224" y2="16.8" xlink:href="#e"/><linearGradient id="u" x1="27.308" y1="-5.132" x2="28.769" y2="-5.132" gradientUnits="objectBoundingBox"><stop offset="0" stop-color="#2b3582"/><stop offset="1" stop-color="#150e42"/></linearGradient><linearGradient id="v" x1="7.616" y1="16.107" x2="8.663" y2="16.107" xlink:href="#u"/><linearGradient id="w" x1="12.429" y1="8.85" x2="13.206" y2="8.85" xlink:href="#u"/><linearGradient id="x" x1="14.989" y1="-4.337" x2="16.373" y2="-4.337" xlink:href="#u"/><linearGradient id="y" x1="15.651" y1="-10.54" x2="16.305" y2="-10.54" xlink:href="#u"/><linearGradient id="z" x1="31.295" y1="13.174" x2="31.654" y2="13.174" xlink:href="#u"/><linearGradient id="aa" x1="-61.264" y1="43.917" x2="-61.147" y2="43.917" xlink:href="#u"/><linearGradient id="ab" x1="11.542" y1="30.012" x2="12.599" y2="30.012" xlink:href="#u"/><linearGradient id="ac" x1="17.603" y1="12.522" x2="18.219" y2="12.522" xlink:href="#u"/><linearGradient id="ad" x1="5.182" y1="5.529" x2="6.219" y2="5.529" xlink:href="#u"/><linearGradient id="ae" x1="24.404" y1="11.295" x2="25.91" y2="11.295" xlink:href="#u"/><linearGradient id="af" x1="3.435" y1="-1.32" x2="4.25" y2="-1.32" xlink:href="#u"/><linearGradient id="ag" x1="1.351" y1="0.374" x2="1.127" y2="1.421" gradientUnits="objectBoundingBox"><stop offset="0" stop-color="#311944"/><stop offset="1" stop-color="#a03976"/></linearGradient><linearGradient id="ah" x1="0.755" y1="-0.471" x2="0.894" y2="1.804" xlink:href="#ag"/><linearGradient id="ai" x1="0.856" y1="-0.208" x2="0.974" y2="1.327" xlink:href="#e"/><linearGradient id="aj" x1="0.007" y1="0.513" x2="0.549" y2="0.715" xlink:href="#ag"/><linearGradient id="ak" x1="1.015" y1="-0.126" x2="0.5" y2="1.698" xlink:href="#e"/><linearGradient id="al" x1="2.651" y1="1.623" x2="1.862" y2="0.312" xlink:href="#q"/><linearGradient id="am" x1="0.801" y1="0.025" x2="0.884" y2="2.536" xlink:href="#e"/><linearGradient id="an" x1="18.908" y1="-12.931" x2="18.712" y2="-11.118" xlink:href="#ag"/><linearGradient id="ao" x1="-10.376" y1="-34.323" x2="-10.749" y2="-33.397" xlink:href="#ag"/><linearGradient id="ap" x1="0.798" y1="0.316" x2="0.893" y2="2.206" xlink:href="#e"/><linearGradient id="aq" x1="-116.727" y1="-45.463" x2="-115.16" y2="-45.463" xlink:href="#a"/><linearGradient id="ar" x1="-23.281" y1="-28.001" x2="-22.337" y2="-28.001" xlink:href="#a"/><linearGradient id="as" x1="2.822" y1="0.657" x2="2.55" y2="1.563" xlink:href="#ag"/><linearGradient id="at" x1="2.123" y1="-0.84" x2="0.597" y2="2.351" xlink:href="#e"/></defs><g transform="translate(0 0)"><path class="b" d="M1576.04,2293.109a.662.662,0,0,1-.091,0,1.181,1.181,0,0,0-1,.359c-.414.469-.467,1.615-.481,2.99s.828.25.92.051,1.167-2.929,1.167-2.929Z" transform="translate(-1574.469 -2230.724)"/><path class="c" d="M1599.341,1998.362c.159,0,1.7.005,3.9-.075,4.64-.169,12.229-.71,16.082-2.452,5.68-2.567-3.442-13.219-3.442-13.219l-4.726,2.43a56.188,56.188,0,0,0,4.48,7.976c-2.042-1-8.281,1.295-12.4,3.027-2.214.931-3.815,1.7-3.815,1.7S1599.013,1998.362,1599.341,1998.362Z" transform="translate(-1598.016 -1935.267)"/><path class="d" d="M1759.363,2563.728a.645.645,0,0,1-.069.059,1.183,1.183,0,0,0-.5.938c.01.625.74,1.509,1.655,2.536s.78-.372.715-.582-1.105-2.952-1.105-2.952Z" transform="translate(-1749.874 -2488.251)"/><path class="e" d="M1734.42,1957.054c.4,1.7.08,3.427.1,5.144.015,1.431.247,2.863.12,4.3a39.723,39.723,0,0,0,.087,8.629q.1.772.234,1.55a11.262,11.262,0,0,0,.38,1.9.7.7,0,0,0,.19.307.146.146,0,0,0,.051.028c.29.095.3.057.348.036a.831.831,0,0,0,.472-.552c.162-.62.428-1.667.736-2.889.818-3.248,1.93-7.742,2.163-8.771a16.71,16.71,0,0,0,.113-2.775c-.382-3.842,1.041-8.332.731-11.66-1.337-2.112-2.953-1.541-4.5-3.471C1733.1,1951.433,1733.641,1953.742,1734.42,1957.054Z" transform="translate(-1726.063 -1903.113)"/><path class="f" d="M1753.457,2492.11q.1.772.234,1.55a11.313,11.313,0,0,0,.38,1.9c.062.112.126.213.19.307a.141.141,0,0,0,.051.028c.29.1.3.058.348.036a.831.831,0,0,0,.472-.552c.162-.62.428-1.667.736-2.889C1755.868,2492.49,1754.166,2492.264,1753.457,2492.11Z" transform="translate(-1744.793 -2420.1)"/><path class="g" d="M1718.206,1958.006s5.217,9.014,5.217,11.39c-6.582,0-7.5-.516-7.5-.516l-1.573-2.68-.738,3.414s-5.736.792-6.91,0c-.082-2.295-.847-6.8-.328-8.358S1716.922,1956.831,1718.206,1958.006Z" transform="translate(-1699.824 -1911.586)"/><path class="h" d="M1873.851,1226.417c1.445-4.136,2.414-6.943,2.363-8.764a60.33,60.33,0,0,0-.663-6.819,2.207,2.207,0,0,1-.428-1.069c-.109-1.033.59-2.113,1.011-2.057.381.051.547,1.057.583,1.473a3.817,3.817,0,0,1-.3,1.754h0c1.607,2.95,2.741,5.757,2.85,7.343a24.336,24.336,0,0,1-.7,6.821,40.732,40.732,0,0,1-1.438,5.28c-.786,2.339-2.374,3.718-3.094,5.192A4.812,4.812,0,0,1,1871.7,1232C1871.311,1229.822,1872.523,1230.215,1873.851,1226.417Z" transform="translate(-1857.244 -1197.865)"/><path class="i" d="M1647.436,1607.188c.642,2.789,1.375,4.051.916,5.992-.379,1.6-2.31,2.379-4.3,3.179-1.328.535-5.437,2.188-7.827.329-1.006-.782-1.116-1.727-1.833-5.2-1.823-8.823-2.529-9.581-1.762-11.49a9.406,9.406,0,0,1,5.172-4.763c.108-.044.2-.078.256-.1,2.563-.974,7.317-1.475,9.23.522C1649.367,1597.825,1645.941,1600.693,1647.436,1607.188Z" transform="translate(-1629.526 -1565.729)"/><g transform="translate(7.559)"><g transform="translate(0)"><path class="j" d="M1730.895,1013.1a6.828,6.828,0,0,0,9.4,4.355q.249-.113.489-.246a6.806,6.806,0,0,0,2.731-2.79,6.882,6.882,0,0,0,.418-.969,6.832,6.832,0,0,0-12.757-4.873c-.06.145-.117.293-.169.443A6.8,6.8,0,0,0,1730.895,1013.1Z" transform="translate(-1730.633 -1004.4)"/></g><g transform="translate(0 0)"><g class="k"><g transform="translate(7.015 0.424)"><path class="l" d="M1881.626,1023.973l-.038-.235c-3.979.642-5.1-1.328-5.109-1.347l-.007-.012c-1.047-1.493-.66-3.883-.152-5.625a21.1,21.1,0,0,1,1.382-3.48l-.211-.111a21.408,21.408,0,0,0-1.4,3.525,11.84,11.84,0,0,0-.522,3.065,4.6,4.6,0,0,0,.7,2.759,2.892,2.892,0,0,0,1.12.994A6.511,6.511,0,0,0,1881.626,1023.973Z" transform="translate(-1875.567 -1013.162)"/></g><g transform="translate(3.066 0.504)"><path class="m" d="M1800.26,1028.44l.126-.2c-3.023-1.875-4.539-5.418-5.278-8.06a25.283,25.283,0,0,1-.889-5.358l-.239.007a25.567,25.567,0,0,0,.9,5.41,18.453,18.453,0,0,0,1.874,4.5A10.751,10.751,0,0,0,1800.26,1028.44Z" transform="translate(-1793.98 -1014.819)"/></g><g transform="translate(-0.633 5.732)"><path class="n" d="M1722.5,1131.862a2.993,2.993,0,0,0,.434-1.031,4.5,4.5,0,0,0-.375-2.883c-1.074-2.384-4.719-5.011-4.874-5.122l-.139.194c.037.027,3.748,2.7,4.8,5.026a4.269,4.269,0,0,1,.363,2.718,2.7,2.7,0,0,1-.418.987l.187.148S1722.489,1131.884,1722.5,1131.862Z" transform="translate(-1717.55 -1122.826)"/></g><g transform="translate(0.783 2.005)"><path class="o" d="M1759.006,1049.664a5.705,5.705,0,0,0,1-2.212,2.833,2.833,0,0,0-.092-1.621l-.216.1a2.675,2.675,0,0,1,.07,1.5,7.269,7.269,0,0,1-2.576,3.874,16.262,16.262,0,0,1-6.528,3.1,27.219,27.219,0,0,1-3.859.708l.021.238a27.505,27.505,0,0,0,3.9-.714,16.5,16.5,0,0,0,6.628-3.15A10.825,10.825,0,0,0,1759.006,1049.664Z" transform="translate(-1746.807 -1045.831)"/></g></g></g><g class="p" transform="translate(0 1.988)"><path class="q" d="M1730.895,1052.189a6.827,6.827,0,0,0,9.4,4.355,7.011,7.011,0,0,1-3.577-3.544c-.859-2.158.072-3.956-1.2-5.716a5.042,5.042,0,0,0-2.865-1.807,6.793,6.793,0,0,0-1.477,2.188c-.06.145-.117.293-.169.443A6.794,6.794,0,0,0,1730.895,1052.189Z" transform="translate(-1730.633 -1045.478)"/></g></g><path class="r" d="M1776.341,1556.916s-.146,1.451.807,1.494,2.224.391,1.651,1.62-.84,1.8-2.089,1.413-4.753-1.536-4.118-2.417,2.2-1.6,2.155-2.367S1776.382,1555.256,1776.341,1556.916Z" transform="translate(-1762.93 -1529.179)"/><path class="s" d="M1718.5,1424.515c.11-.573.531-.589.622-1.12a1.928,1.928,0,0,0-1.057-1.8c-.634-.334-.92.014-2.3,0-1.484-.015-1.715-.422-2.923-.249a4.312,4.312,0,0,0-1.555.5c-.519.289-1.548.863-1.679,1.928a2.609,2.609,0,0,0,.995,2.115c-.393,1.351-.225,1.925.062,2.177,0,0,.3.268,1.866.249h0a5.451,5.451,0,0,0,.7.73c.292.208.859.31,2.081-.271a8.172,8.172,0,0,1,.162-1.078c.181-.828.272-1.243.5-1.322.579-.2,1.352,1.827,2.135,1.678.5-.1.9-1.068.829-1.852S1718.38,1425.166,1718.5,1424.515Z" transform="translate(-1703.056 -1401.121)"/><path class="t" d="M1780.426,1488.056a3.344,3.344,0,0,0,3.156.953c1.707-.417,1.278-4.334.03-4.962a2.213,2.213,0,0,0-1.743.08c-.337.161-.43.33-.985.583-.512.234-.674.2-.812.366-.172.206-.247.65.29,1.723a.954.954,0,0,0-1.063-.152.6.6,0,0,0-.191.265C1778.944,1487.4,1779.448,1487.89,1780.426,1488.056Z" transform="translate(-1769.174 -1460.695)"/><path class="u" d="M1645.112,1209.234c-1.823-2.788-1.225-14.677-1.13-16.361.3-.47,1.152-1.783,1.479-2.334.4-.676-.709.077-.709.077a8.109,8.109,0,0,1,.615-1.818c.369-.656-.369-.819-1.68.246s-1.27,3.912-1.27,3.912h0a76.6,76.6,0,0,0-2.192,14.2,71.94,71.94,0,0,0,.155,8.813c.974,3.9,3.123.611,5.172-1.274S1645.112,1209.234,1645.112,1209.234Z" transform="translate(-1636.974 -1179.375)"/><path class="v" d="M1599.341,2262.462c.159,0,1.7.005,3.9-.075a2.021,2.021,0,0,1,0-2.237c-2.214.931-3.815,1.7-3.815,1.7S1599.013,2262.462,1599.341,2262.462Z" transform="translate(-1598.016 -2199.368)"/></g><g transform="translate(62.709 20.839)"><g transform="translate(0 0)"><path class="w" d="M2882.008,1447.776a7.276,7.276,0,0,1-11.181-2.266,7.412,7.412,0,0,1-.318-.717,7.235,7.235,0,0,1-.43-3.376,7.378,7.378,0,0,1,.208-1.105,7.279,7.279,0,0,1,13.942-.384l.03.094a7.238,7.238,0,0,1,.2,3.594c-.033.164-.071.329-.115.492A7.244,7.244,0,0,1,2882.008,1447.776Z" transform="translate(-2870.034 -1434.929)"/><path class="x" d="M3138.763,1541.886l-1.409-1.934-.081-.111.082-.107,1.131-1.476.047-.061.031.093A7.241,7.241,0,0,1,3138.763,1541.886Z" transform="translate(-3124.337 -1533.199)"/><path class="y" d="M3028.794,1436.2l-2.362.811L3025,1435a7.309,7.309,0,0,1,3.791,1.2Z" transform="translate(-3017.502 -1434.999)"/><path class="z" d="M2873.42,1488.559l-2.473,2.12a7.3,7.3,0,0,1,1.74-3.982Z" transform="translate(-2870.903 -1484.191)"/><path class="aa" d="M2889.659,1656.757a7.266,7.266,0,0,1-3.252-3.223l2.721.436.043.007.039.222Z" transform="translate(-2885.614 -1642.953)"/><path class="ab" d="M3055.627,1695.84a7.3,7.3,0,0,1-3.142,1.548l.773-1.679.046-.1.108.011Z" transform="translate(-3043.654 -1682.993)"/><path class="ac" d="M3037.777,1473.185l-.006,0a.108.108,0,0,1-.069-.137l.739-2.253a.108.108,0,0,1,.206.068l-.739,2.253A.108.108,0,0,1,3037.777,1473.185Z" transform="translate(-3029.581 -1468.986)"/><path class="ad" d="M3083.612,1570.156a.108.108,0,0,1,.024-.213l2.713-.107a.108.108,0,0,1,.009.217l-2.713.107A.1.1,0,0,1,3083.612,1570.156Z" transform="translate(-3073.198 -1563.306)"/><path class="ae" d="M2922.274,1524.043l-.01,0-2.4-.885a.108.108,0,0,1-.064-.139.111.111,0,0,1,.14-.064l2.4.885a.109.109,0,0,1-.066.207Z" transform="translate(-2917.387 -1518.685)"/><path class="af" d="M2941.437,1614.791a.114.114,0,0,1-.031-.014.109.109,0,0,1-.032-.15l1.6-2.459a.109.109,0,0,1,.182.118l-1.6,2.459A.108.108,0,0,1,2941.437,1614.791Z" transform="translate(-2937.904 -1603.542)"/><path class="ag" d="M2968.787,1519.688l-.163-3.842,3.517-1.386,2.336,2.992-2.069,3.214Z" transform="translate(-2963.852 -1510.61)"/><path class="ah" d="M3046.185,1641.607a.107.107,0,0,1-.072-.064l-1.072-2.644a.108.108,0,0,1,.2-.081l1.071,2.644a.108.108,0,0,1-.06.141A.11.11,0,0,1,3046.185,1641.607Z" transform="translate(-3036.563 -1628.884)"/></g><g class="ai" transform="translate(0.475 4.476)"><path class="aj" d="M2891.344,1535.771a7.271,7.271,0,0,1-6.59,1.462,7.384,7.384,0,0,1-1.34-.506,7.267,7.267,0,0,1-3.252-3.223,7.381,7.381,0,0,1-.318-.717,8.586,8.586,0,0,0,3.975-.29c.12-.042.234-.086.345-.133a5.539,5.539,0,0,0,.531-.259c.151-.083.292-.171.426-.262,1.7-1.158,2.118-2.852,3.535-3.794a3.713,3.713,0,0,1,.787-.4,5.567,5.567,0,0,1,4.073.33l.077.033a7.231,7.231,0,0,1,.2,3.594c-.033.164-.071.329-.115.492A7.243,7.243,0,0,1,2891.344,1535.771Z" transform="translate(-2879.845 -1527.399)"/></g></g><g transform="translate(29.187 28.579)"><path class="ak" d="M2478.713,1729.094a2.449,2.449,0,0,0-1.445,1.239,24.707,24.707,0,0,1-1.682,2.926c-1.069,1.529-5.97,1.016-5.97,1.016l-.548,2.516s.571.98,4.6.7,4.291-5.392,4.291-5.392a6.289,6.289,0,0,0,.936-.361c.276-.16.36-.7.4-.826s.965-.783.2-.778a.821.821,0,0,0-.257.044,3.387,3.387,0,0,0,.808-1.109C2480.13,1728.714,2479.388,1728.879,2478.713,1729.094Z" transform="translate(-2454.954 -1722.374)"/><path class="al" d="M2561.872,2033.047c.36-.094,13.378.444,12.9,4.766s-4.693,15.643-4.693,15.643l-.768.332s-2.51-10.6.279-13.789-9.6,3.984-11.089,1.887S2559.578,2033.645,2561.872,2033.047Z" transform="translate(-2539.639 -2011.827)"/><path class="am" d="M2637.538,2032.466s5.351.582,5.848,1.731a67.719,67.719,0,0,1-5.592,6.5s-4.791,2.306-5.95,1.625S2633.2,2033.07,2637.538,2032.466Z" transform="translate(-2609.582 -2011.283)"/><path class="an" d="M2506.643,1846.395a20.635,20.635,0,0,1,14.652-8.35c10.151-1.189,12.3-2.632,12.3-2.632l.262,1.537s-9.176,6.476-13.737,6.545-13.027,16.893-18.232,10.441Z" transform="translate(-2486.183 -1823.768)"/><path class="ao" d="M2221.609,1784.555a1.152,1.152,0,0,1-.175.108,1.075,1.075,0,0,1-.76.044c-1.576-.408-4.3-3.437-10.575-7.74-2.692-1.842-3.263-4.092-2.9-6.212.013-.079.028-.158.045-.236.746-3.627,4.138-6.809,4.138-6.809,4.6-3.913,7.519.168,10.865,4.008,1.624,1.863,3.894,5,5.669,6.114.05.032.125.057.13.091v0c.211.261.635.393.7.464C2229.074,1774.77,2223.334,1783.318,2221.609,1784.555Z" transform="translate(-2205.668 -1754.024)"/><path class="ap" d="M2180.51,1603.868s-3.815-.5-2.906-2.13-.972-2.722.7-4.116,2.054-3.639,3.366-2.447,2.238,2.814,1.408,3.777S2181.443,1604.288,2180.51,1603.868Z" transform="translate(-2177.464 -1594.838)"/><path class="aq" d="M2221.609,1941.957a1.126,1.126,0,0,1-.175.109,1.074,1.074,0,0,1-.76.044c-1.576-.408-4.3-3.437-10.575-7.741-2.692-1.842-3.263-4.091-2.9-6.212.013-.079.028-.158.045-.236a2.662,2.662,0,0,1,2.361-.2c1.042.58.612,2.16,1.812,2.735,1.72.824,3.688-1.9,5.661-1.3,2.339.7,1.976,5.248,3.7,5.312.786.03.9-.913,2.477-1.716,2.241-1.147,3.941-.222,4.661-1.153a1.066,1.066,0,0,0,.156-.271,5.135,5.135,0,0,1,.683.465C2229.086,1932.17,2223.334,1940.72,2221.609,1941.957Z" transform="translate(-2205.668 -1911.426)"/><path class="ar" d="M2236.468,1759.334a1.069,1.069,0,0,0,1.492.386,9.74,9.74,0,0,1,1.823-.954c.766-.213-1.521,1.451-3.37,3.234a21.229,21.229,0,0,1-2.69,2.226.178.178,0,0,1-.259-.228,15.22,15.22,0,0,1,1.359-2.265c.67-.873-.219-3.4-.219-3.4l1.262-.067Z" transform="translate(-2230.735 -1750.356)"/><path class="as" d="M2215.366,1670.862a3.8,3.8,0,0,0,3.466-1.412c1.209-1.587-1.967-4.738-3.517-4.4a2.512,2.512,0,0,0-1.481,1.316c-.181.383-.145.6-.453,1.218-.285.572-.452.659-.455.9-.005.305.246.75,1.486,1.313a1.083,1.083,0,0,0-1.047.625.676.676,0,0,0,.021.37C2213.588,1671.337,2214.384,1671.414,2215.366,1670.862Z" transform="translate(-2211.209 -1661.626)"/><path class="at" d="M2519.1,1925.635s-7.311,7.717-10.806,9.321c-1.456.668-4.781.428-5.575-1.347a1.839,1.839,0,0,1-.152-.513c0-.01,0-.02,0-.03a2.388,2.388,0,0,1,.018-.74.01.01,0,0,0,0-.007,5.073,5.073,0,0,1,1.426-2.3,10.211,10.211,0,0,0,1.159-1.409,6.369,6.369,0,0,0,.5-1.907,3.965,3.965,0,0,1,.583-1.238,19.55,19.55,0,0,1,3.99-3.6c1.54-1.205,3.121-2.35,4.734-3.455.332.668.737,1.306,1.108,1.954.109.189.218.379.325.569l.655,1.143Q2518.086,1923.852,2519.1,1925.635Z" transform="translate(-2486.81 -1902.744)"/><path class="w" d="M2517.08,1973.029s-13.495,9.364-14.029,10.97c-.112.336-.224.5-.321.543a1.878,1.878,0,0,1-.153-.518c0-.01,0-.022,0-.032a2.4,2.4,0,0,1,.017-.741.012.012,0,0,0,0-.007,1.661,1.661,0,0,1,.556-.743s4.644-5.35,6.751-6.315a66.365,66.365,0,0,0,6.531-4.266h0Z" transform="translate(-2486.816 -1953.668)"/><path class="au" d="M3143.332,1759.65a.9.9,0,0,1,.118-.023,1.561,1.561,0,0,0,1.183-.753c.4-.725.131-2.217-.251-3.992s-1.139-.081-1.2.2-.651,4.113-.651,4.113Z" transform="translate(-3095.817 -1746.374)"/><path class="av" d="M2780.865,2442.124a.868.868,0,0,1-.074.094,1.563,1.563,0,0,0-.4,1.343c.174.807,1.349,1.764,2.8,2.859s.915-.683.776-.937-2.194-3.539-2.194-3.539Z" transform="translate(-2751.175 -2400.94)"/><path class="w" d="M2768.2,2301.994l4.27.718-2.44,6.877s-.844.246-.917-.247S2767.882,2303.2,2768.2,2301.994Z" transform="translate(-2739.552 -2267.765)"/><path class="w" d="M2942.591,1837.991s2.077,3.572,1.361,4.463a42.113,42.113,0,0,0,9.119-5.224s.3-1.7-.176-1.619C2952.1,1835.746,2942.591,1837.991,2942.591,1837.991Z" transform="translate(-2905.556 -1823.954)"/><path class="aw" d="M2190.364,2055.721s-1.564,13.617,1.005,14.052,7.4-1.735,7.9-1.844,1.531.835,2.244.862.446,1.317.783.957.55-2.527-.272-3a3.588,3.588,0,0,0-2.782-.432c-.552.341-5.947.462-5.947.462l1.1-9.708Z" transform="translate(-2189.291 -2033.412)"/><path class="ax" d="M2183.931,1884.972s-2.263,4.312-2.16,7.29.089,5.27.089,5.27,6.586-.068,7.031.171C2189.033,1895.857,2190.228,1883,2183.931,1884.972Z" transform="translate(-2181.56 -1870.734)"/></g></svg>