<svg xmlns="http://www.w3.org/2000/svg" width="72.32" height="96.383" viewBox="0 0 72.32 96.383"><defs><style>.a{fill:#00ad4a;font-size:18px;font-family:Poppins-Bold, Poppins;font-weight:700;}.b{fill:#f0f0f0;}.c{fill:#ec827d;}.d{fill:#231f20;}.e{fill:#414042;}.f{fill:#56548c;}.g{fill:#eed7ba;}.h{fill:#e6e7e8;mix-blend-mode:multiply;isolation:isolate;}.i{fill:#a5b7c6;}.j{fill:#e0bd96;}.k{fill:#f9fbfc;}.l{fill:#878cf0;}.m{fill:#b5bbf4;}.n{fill:#fbd15b;}.o{fill:#e8c8a1;}.p{fill:#5b5a5b;}</style></defs><g transform="translate(-744 -973.421)"><text class="a" transform="translate(777.515 973.421)"><tspan x="0" y="19">$</tspan></text><g transform="translate(744 983.995)"><ellipse class="b" cx="15.136" cy="1.432" rx="15.136" ry="1.432" transform="translate(0 82.946)"/><ellipse class="b" cx="15.136" cy="1.432" rx="15.136" ry="1.432" transform="translate(41.085 81.514)"/><g transform="translate(0 0)"><g transform="translate(0 1.003)"><path class="c" d="M104.321,410.4c0,.359,5.444.216,5.444-.5a5.447,5.447,0,0,0-1.065-1.868h-.006a.747.747,0,0,1-.245.763c-.216.251-4.128,0-4.128,0h-.034C104.31,409.678,104.321,410.31,104.321,410.4Z" transform="translate(-87.382 -327.216)"/><path class="d" d="M171.293,133.3l-1.1,4.2c.507-.689.94-1.9,1.173-2.215l.342-1.463Z" transform="translate(-136.872 -120.911)"/><path class="e" d="M157.7,136.625l-.513,2.523.615.023C157.75,138.459,157.687,137.417,157.7,136.625Zm.661-3.28-.433,2.147c.387.08,1.139,2.636,1.925,2.483a1.082,1.082,0,0,0,.575-.473l1.1-4.2Z" transform="translate(-127.104 -120.911)"/><path class="f" d="M86.241,88.963a2.423,2.423,0,0,0,.251-.689,5.422,5.422,0,0,0-.046-2.192,2.261,2.261,0,0,0-1.031-1.44,6.6,6.6,0,0,0-4.521-1c-2.921.524-3.986,1.76-4.367,2.733s-.262,2.511-.524,2.938-2.113,1.31-2.42,2.113.239,2.067-.046,2.608a8.742,8.742,0,0,0-1.327,2.2,1.227,1.227,0,0,0,.211,1.145c.922,1.116,4.339,2.278,6.241,2.278s3.462-.359,3.769-1.424-1.116-2.517-.712-3.342,1.378-1.333,1.828-2.044.194-1.446.45-1.873C84.219,90.615,85.62,90.136,86.241,88.963Z" transform="translate(-63.254 -83.561)"/><path class="g" d="M103.555,383.406c.006.3.12,4.476.182,6.839h.034s3.912.251,4.128,0a.747.747,0,0,0,.245-.763h.006a7.264,7.264,0,0,1-1.093-1.776,28.6,28.6,0,0,1,.45-4.339l-.006-.04A29.04,29.04,0,0,1,103.555,383.406Z" transform="translate(-86.832 -308.66)"/><path class="g" d="M49.2,211.621c.347-.632.655-1.247.928-1.85-.376.023-.712.586-.917.643s-.427-1.833-.427-1.833a2.754,2.754,0,0,1-1.281.763,3.941,3.941,0,0,1-1.281.085v.006s1.082,3.5,1.617,3.752c.455.216.655.114.7.085A8.338,8.338,0,0,1,49.2,211.621Z" transform="translate(-43.779 -177.44)"/><path class="g" d="M114.083,110.439a.469.469,0,0,1-.047.034c-.531.359-1.406-.194-1.662-.009a.331.331,0,0,0-.075.084,2.341,2.341,0,0,0-.209.941l-.028.05c-.144-.038-.281-.072-.409-.1-.594-.147-1.009-.234-1.009-.234l-.1-.022c.406-.831,1.378-1.331,1.828-2.043s.194-1.447.45-1.875a4.232,4.232,0,0,1,.9-.656,3.853,3.853,0,0,0,1.34-1.359C115.364,107.633,114.589,110.023,114.083,110.439Z" transform="translate(-92.082 -99.845)"/><path class="c" d="M102.565,328.41a1.24,1.24,0,0,1-.6.153,28.867,28.867,0,0,1-3.946.081,8.223,8.223,0,0,1-1.531-.137c-.362-.159-.309-12.005-.294-15.876.006-.69.009-1.128.006-1.2a30.983,30.983,0,0,0,6.646-1.031c0,.1,0,.584.006,1.344C102.871,315.89,102.88,328.1,102.565,328.41Z" transform="translate(-81.297 -253.898)"/><path class="c" d="M67.216,410.4c0,.359,5.443.216,5.443-.5a5.447,5.447,0,0,0-1.065-1.868H71.59a.748.748,0,0,1-.245.763c-.216.251-4.128,0-4.128,0h-.034C67.2,409.678,67.216,410.31,67.216,410.4Z" transform="translate(-59.519 -327.216)"/><path class="g" d="M66.451,383.406c.006.3.12,4.476.182,6.839h.034s3.912.251,4.128,0a.748.748,0,0,0,.245-.763h.005a7.281,7.281,0,0,1-1.093-1.776,28.633,28.633,0,0,1,.45-4.339l-.006-.04A29.035,29.035,0,0,1,66.451,383.406Z" transform="translate(-58.97 -308.66)"/><path class="c" d="M65.466,328.359a1.241,1.241,0,0,1-.6.153,28.877,28.877,0,0,1-3.946.081,8.22,8.22,0,0,1-1.531-.138c-.353-.156-.309-12.055-.291-16.483,0-.937.009-1.54.006-1.625,2.709-.119,5.037.434,6.643,0,0,.131.006.991.009,2.265C65.772,317.4,65.763,328.068,65.466,328.359Z" transform="translate(-53.441 -253.847)"/><path class="h" d="M65.787,310.348c0,.131.006.991.009,2.265a43.105,43.105,0,0,1-6.659-.641c0-.937.009-1.54.006-1.625C61.854,310.23,64.181,310.783,65.787,310.348Z" transform="translate(-53.478 -253.847)"/><path class="h" d="M96.233,312.631c.006-.69.009-1.128.006-1.2a30.983,30.983,0,0,0,6.646-1.031c0,.1,0,.584.006,1.344A36.472,36.472,0,0,1,96.233,312.631Z" transform="translate(-81.334 -253.898)"/><path class="i" d="M68.429,142.645c0,.159-2.331,8.949-4.768,8.983a2.528,2.528,0,0,1-2.384-1.531c-.331-.672-.906-2.128-1.537-3.768-.091,1.394-1.047,16.17.581,27.153a22.652,22.652,0,0,1-2.353.753,30.983,30.983,0,0,1-6.646,1.031c-.591.028-1.2.041-1.822.028-.422-.006-.831-.016-1.219-.028a62.606,62.606,0,0,1-6.543-.463c-.6-.084-.887-.147-.887-.147a81,81,0,0,0-.2-8.98c-.322-2.762-.544-8.468.528-12.111a8.455,8.455,0,0,1,.659-1.653c.35-.631.656-1.247.928-1.85,1.153-2.521,2.428-12.417,2.428-12.417l0,0c-.131.1-4.306,3.421-4.512,4.049-.219.644,1.028,6.834,1.028,6.834a.076.076,0,0,1-.012.016,2.868,2.868,0,0,1-.272.325,2.725,2.725,0,0,1-1.281.765,3.947,3.947,0,0,1-1.281.084,2.106,2.106,0,0,1-.391-.075s-2.587-6.321-1.95-9.024c.609-2.562,8.058-9.48,8.855-10.211a1.231,1.231,0,0,0,.209,1.147,2.5,2.5,0,0,0,.456.419l0,0a12.1,12.1,0,0,0,5.784,1.856c1.9,0,3.462-.359,3.768-1.425s-1.115-2.518-.712-3.343l.1.022s.25.053.644.147c.219.05.484.116.775.191a9.8,9.8,0,0,1,3.072,1.562c1.453,1.047,1.781,3.778,2.649,7.252.581,2.334,1.866,6.39,1.866,6.39s1.99-5,2.134-5.053a.1.1,0,0,1,.075.019,4.885,4.885,0,0,1,2.1,2.281A2.37,2.37,0,0,1,68.429,142.645Z" transform="translate(-36.416 -117.733)"/><path class="h" d="M121.044,174.813s-2.321-7.489-2.725-7.783-.294,1.76,0,4.181c.605,4.988,2.527,7.37,2.527,7.37Z" transform="translate(-97.721 -146.219)"/><path class="h" d="M82.766,134.72c-3.04.575-6.737-1.05-7.708-2.74a12.1,12.1,0,0,0,5.784,1.856c1.9,0,3.462-.359,3.768-1.425s-1.115-2.518-.712-3.343l.1.022s.25.053.644.147c.113.481.444,1.9.622,2.737C85.482,133,85.81,134.142,82.766,134.72Z" transform="translate(-65.433 -117.733)"/><path class="j" d="M114.036,114.571c-.531.359-1.406-.194-1.662-.009a.331.331,0,0,0-.075.084.409.409,0,0,0-.256.106,2.638,2.638,0,0,0-.391.781c-.594-.147-1.009-.234-1.009-.234l-.1-.022c.406-.831,1.378-1.331,1.828-2.043s.194-1.447.45-1.875a4.233,4.233,0,0,1,.9-.656,4.431,4.431,0,0,0-.8,1.709c-.025.853-.747,1.225-.319,1.6A4.11,4.11,0,0,0,114.036,114.571Z" transform="translate(-92.082 -103.942)"/><path class="h" d="M54.646,156.867a15.472,15.472,0,0,1-.128,1.653l0,0c-.131.1-4.306,3.421-4.512,4.049-.219.644,1.028,6.834,1.028,6.834a.076.076,0,0,1-.012.016,28.863,28.863,0,0,1-1.95-4.428c-.734-2.309.437-3.081,1.247-4.218A36.231,36.231,0,0,1,54.646,156.867Z" transform="translate(-45.743 -138.608)"/><path class="g" d="M160.775,140.981c-.029,0-.063.028-.1.074-.233.313-.666,1.526-1.173,2.215a1.082,1.082,0,0,1-.575.473c-.714.14-1.4-1.951-1.808-2.4v-.005l-.011-.007a.242.242,0,0,0-.1-.073l0,.011c-.166-.065-.27.068-.292.278-.028.257.041.652.07,1.44v0c.014.67.06,1.4.1,1.947.029.364.051.643.063.763a14.874,14.874,0,0,1-.974,2.819l-.011.023a4.892,4.892,0,0,1,2.1,2.283c.4-1.589.655-3.314.991-4.185a15.254,15.254,0,0,1,1.8-2.386C161.447,143.367,161.037,140.981,160.775,140.981Z" transform="translate(-126.178 -126.679)"/><g transform="translate(30.464 12.753)"><path class="k" d="M163.979,134.759l-2.689.064-.381,1.938c.415.583,1.064,2.441,1.738,2.309a.82.82,0,0,0,.411-.274Z" transform="translate(-160.364 -134.759)"/><path class="k" d="M158.868,150.908l-.148.754.186.017C158.892,151.43,158.878,151.169,158.868,150.908Z" transform="translate(-158.72 -146.886)"/></g></g><g transform="translate(38.692 0)"><g transform="translate(0 0)"><path class="l" d="M252.7,404.753h.006a4.638,4.638,0,0,1-.27,2.1c-.486.414-4.156.786-4.534.15-.348-.588,1.14-2.477,1.433-3.227.168-.018,1.805-.168,2.165.132C251.879,404.225,251.579,404.711,252.7,404.753Z" transform="translate(-233.877 -322.972)"/><path class="l" d="M280.8,384.913c-.024.354-.042.762-.072,1.235-.084,1.487.312,3.634-1.284,3.688s-2.111-5.116-2.135-5.7a2.1,2.1,0,0,1,.612-1.248c.036.042.072.084.108.12.006.24.072,2.183.492,2.273C278.973,385.387,279.171,384.613,280.8,384.913Z" transform="translate(-255.999 -307.331)"/><path class="f" d="M240.478,266.964a6.12,6.12,0,0,1-3.089.078,1.6,1.6,0,0,1-.534-.228c-.648-.5-2.549-9.6-3.148-15.443-.6-5.824-2.159-22.2-2.021-25.9a156.712,156.712,0,0,0,15.647-.966c.354,1.565,3.958,17.668,3.766,21.465-.2,4-3.424,18.022-3.946,18.28-.066.036-.162.078-.282.132a2.827,2.827,0,0,1-3.107-.306c-.036-.036-.072-.078-.108-.12a2.708,2.708,0,0,1-.378-.564s-.21-9.9.012-11.509a46.973,46.973,0,0,0,.642-4.726c0-1.122-3.191-16.079-3.191-16.079s-.234,11.245-.138,16.343,1,18.742.252,19.342A1.317,1.317,0,0,1,240.478,266.964Z" transform="translate(-221.732 -188.397)"/><path class="g" d="M272.812,169.723a2.922,2.922,0,0,1-.138,2.471c-1.41,1.667-4.948.954-7.311-.918l-.078-.06c-2.027-1.637-3.077-2.783-3.736-3.065a.749.749,0,0,0-.3-.072c-.576.012-2.621.36-3.982-1.187a3.38,3.38,0,0,1-.414-.558c-1.181-1.949-1.4-2.483-1.223-2.933.024-.054.054-.114.084-.168.066-.114.294-.114.606-.054a5.228,5.228,0,0,1,.654.162h.006c1.158.33,2.7.906,2.921.456a2.143,2.143,0,0,0,.168-.6h.006c.126-.7.132-1.517.588-1.488.474.03.414.846.534,1.433a1.243,1.243,0,0,0,.156.414c.348.5.588,1.547.887,1.775a15.123,15.123,0,0,0,2.657,1.14,10.2,10.2,0,0,0,1.355.36C267.678,167.078,271.414,167.762,272.812,169.723Z" transform="translate(-239.679 -141.241)"/><path class="l" d="M243.869,196.634a1.129,1.129,0,0,1-.418.138c-2.435.484-14.27,1.066-15.649.964-.066-.007-.105-.013-.125-.016-.273-.122-.237-.635-.221-1.076a1.694,1.694,0,0,0-.043-.569,1.472,1.472,0,0,0-.326-.431l-.023-.023a1.858,1.858,0,0,1-.549-.744,7.037,7.037,0,0,1,.642-2.215,33.972,33.972,0,0,0,.119-4.426h.023l12.42-.665c.662.283,1.711,1.428,3.739,3.064l.076.063c.151.773.576,1.738.648,2.363s-.276.875-.388,1.287S244.392,196.11,243.869,196.634Z" transform="translate(-217.851 -160.66)"/><path class="g" d="M283.311,383.68a3.579,3.579,0,0,0-.336,1.6c-1.631-.3-1.829.474-2.279.372-.42-.09-.486-2.033-.492-2.273A2.827,2.827,0,0,0,283.311,383.68Z" transform="translate(-258.172 -307.692)"/><path class="e" d="M260.489,156.033l.384,2.7c-.216.45-1.763-.126-2.921-.456h-.006a5.238,5.238,0,0,0-.654-.162l.006-.042c0-.036-.162-1.091-.288-1.9-.072-.516-.138-.93-.138-.93l3.466-.276Z" transform="translate(-240.653 -136.181)"/><path class="g" d="M257.1,394.956c.012.156.108,1.793.084,3.214h-.006c-1.122-.042-.822-.528-1.2-.846-.36-.3-2-.15-2.165-.132a.814.814,0,0,0,.048-.168c.066-.552.144-1.847.15-1.991A6.12,6.12,0,0,0,257.1,394.956Z" transform="translate(-238.356 -316.39)"/><g transform="translate(9.275 17.394)"><path class="m" d="M281.659,168.221c.048.6.108,1.331.174,2.087a15.127,15.127,0,0,1-2.657-1.14c-.3-.228-.54-1.277-.887-1.775a1.244,1.244,0,0,1-.156-.414l3.437-.162C281.6,167.31,281.624,167.783,281.659,168.221Z" transform="translate(-265.892 -162.471)"/><path class="n" d="M276.508,160.49l-3.437.162c-.12-.588-.06-1.4-.534-1.433-.456-.03-.462.786-.588,1.488h-.006a2.14,2.14,0,0,1-.168.6l-.384-2.7,4.984-.21h.012C276.43,159.045,276.472,159.776,276.508,160.49Z" transform="translate(-260.831 -156.143)"/><path class="m" d="M244.548,151.613h-.012l-4.984.21-.15-1.062-3.466.276s.066.414.138.93l-7.041.3c-.018-.714-.03-1.3-.042-1.679a.508.508,0,0,1,.474-.516c2.567-.156,14.412-.858,14.724-.677A5.472,5.472,0,0,1,244.548,151.613Z" transform="translate(-228.99 -149.364)"/><path class="n" d="M242,183.776l-12.421.666h-.024c0-.486-.006-.99-.012-1.5.06,0,4.168-.216,8.174-.426,1.361,1.547,3.407,1.2,3.982,1.187A.749.749,0,0,1,242,183.776Z" transform="translate(-229.406 -174.259)"/><path class="m" d="M237.16,171.436a3.377,3.377,0,0,0,.414.558c-4.006.21-8.114.426-8.174.426-.012-1.212-.03-2.471-.048-3.61h.012l6.573-.306C235.763,168.953,235.979,169.487,237.16,171.436Z" transform="translate(-229.262 -163.736)"/><path class="n" d="M236.488,161.712l-.006.042c-.312-.06-.54-.06-.606.054-.03.054-.06.114-.084.168l-6.573.306h-.012c-.012-.36-.018-.708-.024-1.037-.006-.408-.018-.786-.024-1.134l7.041-.3C236.326,160.621,236.488,161.676,236.488,161.712Z" transform="translate(-229.117 -157.209)"/></g><path class="g" d="M197.608,206.747v.006c-.324,2.657-1.625,8.324-1.691,8.744a12.736,12.736,0,0,0,.756,2.849c.24.81.144,3-.432,3.059s-.7-2.759-1.313-2.495.282,3.97-.21,3.934a4.177,4.177,0,0,1-2.357-3.406,5.345,5.345,0,0,1,.858-3.713c.156-.39-.54-5.643-.774-9.812a13.083,13.083,0,0,1,3.173-.384A2.5,2.5,0,0,1,197.608,206.747Z" transform="translate(-192.165 -174.127)"/><path class="l" d="M225.012,141.549l-.125-.606a3.6,3.6,0,0,0-.283-.349l-.01-.01c-1.132-1.218-3.548-1.942-5.243-2.323-.388-.086-.737-.158-1.027-.211-.023-.079-1.547-2.909-1.563-2.929-.02-.3-.036-.6-.056-.922-.036-.714-.079-1.445-.119-2.1-.007-.119-.016-.234-.023-.345a4.283,4.283,0,0,0-.339-1.876c-.313-.178-12.157.523-14.724.678a.512.512,0,0,0-.474.517c.01.257.016.606.026,1.027l.01.388c0,.086,0,.174.007.263.006.349.02.727.023,1.135h-.076a66.978,66.978,0,0,0-3.9,6.487,1.564,1.564,0,0,0-.069.533c0,.365.053.842.105,1.4a20.97,20.97,0,0,1,.24,2.768c-.085.382-.253.428-.253.428l.056-.428a1.652,1.652,0,0,0-.151-.257.111.111,0,0,0-.016-.023.186.186,0,0,0-.023-.03,2.783,2.783,0,0,0-1.8-.908,6.216,6.216,0,0,0-1.669.1c-.721.122-1.438.355-1.488.543l.023.392s-.138.105-.28-.349a22.968,22.968,0,0,1,.165-3.337,8.173,8.173,0,0,1,.141-1.4c.635-2.89,5.361-12.661,5.96-13.457a2.94,2.94,0,0,1,1.038-.674c.611-.31,1.242-.581,1.874-.844a15.038,15.038,0,0,1,4.511-1.39c.74-.055,1.485-.065,2.229-.065.838,0,1.687-.025,2.513.058a26.034,26.034,0,0,1,3.942.862c1.031.274,2.518.549,3.3,1.351a37.938,37.938,0,0,1,4.364,7.273c.168.355,2.913,6.273,3.318,7.105S225.39,141.246,225.012,141.549Z" transform="translate(-191.753 -112.46)"/><path class="h" d="M211.672,166.671a1.564,1.564,0,0,0-.069.533c0,.365.053.842.105,1.4a20.965,20.965,0,0,1,.24,2.768c-.085.382-.253.428-.253.428l.056-.428a1.653,1.653,0,0,0-.151-.257.11.11,0,0,0-.016-.023.185.185,0,0,0-.023-.03,12.323,12.323,0,0,0-.326-3.018,6.214,6.214,0,0,1,.724-4.2c.724-1.247,3.65-5.45,3.65-5.45l.01.388.03,1.4h-.076A66.971,66.971,0,0,0,211.672,166.671Z" transform="translate(-206.308 -138.753)"/><path class="h" d="M294.148,163.513c-.388-.086-.737-.158-1.027-.211-.023-.079-1.547-2.909-1.563-2.929-.02-.3-.036-.6-.056-.922-.036-.714-.079-1.445-.119-2.1-.007-.119-.016-.234-.023-.345,0,0,2.192,5.042,2.541,5.532A1.923,1.923,0,0,1,294.148,163.513Z" transform="translate(-266.55 -137.712)"/><path class="h" d="M238.473,218.425c.1.115-5.213.675-6.99.888a7.537,7.537,0,0,0-2.274.48,1.694,1.694,0,0,0-.043-.569,1.472,1.472,0,0,0-.326-.431c.319.25,2.053.125,3.821-.023C234.478,218.619,238.377,218.31,238.473,218.425Z" transform="translate(-219.602 -183.811)"/><path class="h" d="M284.217,215.129a12.446,12.446,0,0,0-3.375.391c-.072.13.768.072,1.883,0S284.159,215.23,284.217,215.129Z" transform="translate(-258.648 -181.316)"/><g transform="translate(11.521)"><path class="g" d="M239.912,96.517c-.4-.594-.654-1.115-.81-1.157a1.411,1.411,0,0,1-1.08-1.277,2.25,2.25,0,0,1,.079-.971,2.45,2.45,0,0,1,.649-.732c.4-.354.7-.774,1.123-1.107a7.052,7.052,0,0,1,2.914-1.371,3.283,3.283,0,0,1,2.273.112,5.02,5.02,0,0,1,1.617,1.777c.438.722.974,1.921.43,2.717-.45.66-.75.474-.864.69a9.115,9.115,0,0,1-.81,1.247,4.124,4.124,0,0,1-2.939,1.889A3.324,3.324,0,0,1,239.912,96.517Z" transform="translate(-238.007 -87.209)"/><path class="f" d="M238.778,84.988a1.518,1.518,0,0,1-.422-.793,2.474,2.474,0,0,1,.136-1.362c.45-1.223,2.375-3.268,3.8-3.3a3.254,3.254,0,0,1,2.3.93s.972-.528,1.422-.276a4.514,4.514,0,0,1,1.577,3.245c.1,1.7.036,1.805-.168,1.865-.175.046-.329,0-.461.159-.1.125-.143.673-.307.653-.14-.017-.139-.18-.162-.28a5.651,5.651,0,0,0-.467-.958,7.223,7.223,0,0,1-.228-1.028,2.065,2.065,0,0,0-.246-.7,1.371,1.371,0,0,0-.865-.309,3.883,3.883,0,0,0-3.132,1.363,2.6,2.6,0,0,1-.769.627c-.225.117-.5.165-.707.29-.323.19-.3,1.067-.72,1-.02-.372-.017-.645-.321-.9A3.264,3.264,0,0,1,238.778,84.988Z" transform="translate(-238.236 -79.533)"/><path class="o" d="M245.655,118.306v-1.619a3.324,3.324,0,0,0,2.585,1.817,4.124,4.124,0,0,0,2.939-1.889v2.459a5.251,5.251,0,0,1-2.651.876,5.943,5.943,0,0,1-2.873-.822Z" transform="translate(-243.75 -107.379)"/></g><path class="p" d="M270.79,154.5l.15-.156.5,3.593-.114.329Z" transform="translate(-251.103 -135.711)"/><path class="p" d="M256.873,154.778l.183-.163,3.433-.269-.15.156Z" transform="translate(-240.653 -135.711)"/></g></g></g></g></g></svg>