<svg xmlns="http://www.w3.org/2000/svg" width="83.661" height="87.516" viewBox="0 0 83.661 87.516"><defs><style>.a{fill:#f0f0f0;}.b{fill:#f48c7f;}.c{fill:#f7cc7f;}.d{fill:#fff;}.e{fill:#183658;}.f{fill:#f7a491;}.g{fill:#355389;}.h{fill:#466eb6;}.i{fill:#3c8f7c;}.j{fill:#50bfa5;}.k{fill:#f8a492;}.l{fill:#f47458;}.m{fill:#184655;}</style></defs><g transform="translate(-146.597 -1208.46)"><ellipse class="a" cx="17.817" cy="1.685" rx="17.817" ry="1.685" transform="translate(146.597 1292.605)"/><g transform="translate(155.203 1208.46)"><path class="b" d="M2280.644,590.616a2.324,2.324,0,0,1-2.511,2.362,3.109,3.109,0,0,1-2.786-2.613,2.285,2.285,0,0,1,2.052-2.783,1.724,1.724,0,0,1,1.817,2.3c-.279.866-1.069,1.189-1.467.95a.4.4,0,0,1,.084-.739.389.389,0,0,1,.386.166,1.134,1.134,0,0,0,.429-1.376,1.314,1.314,0,0,0-1.963-.488,1.949,1.949,0,0,0-.652,2.387,2.54,2.54,0,0,0,2.129,1.646,1.979,1.979,0,0,0,2.1-1.81A.193.193,0,0,1,2280.644,590.616Z" transform="translate(-2231.295 -587.575)"/><path class="c" d="M2010.433,964.992l-.673-1.519.87-1.416a.229.229,0,0,0-.218-.347l-1.652.171-1.077-1.264a.228.228,0,0,0-.4.1l-.348,1.624-1.536.634a.228.228,0,0,0-.028.408l1.438.833.128,1.656a.228.228,0,0,0,.38.152l1.236-1.109,1.615.39A.228.228,0,0,0,2010.433,964.992Z" transform="translate(-1935.609 -938.731)"/><g transform="translate(35.433 19.315)"><path class="c" d="M2145.4,927.55h22.359a1.4,1.4,0,0,1,1.4,1.4v9.259a1.4,1.4,0,0,1-1.4,1.4h-17.6a29.926,29.926,0,0,1-2.118,2.784,15.385,15.385,0,0,1,.244-2.784H2145.4a1.4,1.4,0,0,1-1.4-1.4v-9.259A1.4,1.4,0,0,1,2145.4,927.55Z" transform="translate(-2144 -927.55)"/><rect class="d" width="6.835" height="0.611" rx="0.306" transform="translate(15.45 3.296)"/><rect class="d" width="4.617" height="0.611" rx="0.306" transform="translate(17.669 5.964)"/><path class="d" d="M.306,0H4.7A.306.306,0,0,1,5,.306v0A.306.306,0,0,1,4.7.611H.306A.306.306,0,0,1,0,.306v0A.306.306,0,0,1,.306,0Z" transform="translate(11.429 5.964)"/><path class="d" d="M.306,0H6.921a.306.306,0,0,1,.306.306v0a.306.306,0,0,1-.306.306H.306A.306.306,0,0,1,0,.306v0A.306.306,0,0,1,.306,0Z" transform="translate(2.768 5.964)"/><path class="d" d="M.306,0h10.6a.306.306,0,0,1,.306.306v0a.306.306,0,0,1-.306.306H.306A.306.306,0,0,1,0,.306v0A.306.306,0,0,1,.306,0Z" transform="translate(2.768 3.296)"/><path class="d" d="M.306,0H8.851a.306.306,0,0,1,.306.306v0a.306.306,0,0,1-.306.306H.306A.306.306,0,0,1,0,.306v0A.306.306,0,0,1,.306,0Z" transform="translate(13.129 8.683)"/><path class="d" d="M.306,0H8.854A.306.306,0,0,1,9.16.306v0a.306.306,0,0,1-.306.306H.306A.306.306,0,0,1,0,.306v0A.306.306,0,0,1,.306,0Z" transform="translate(2.768 8.683)"/></g><g transform="translate(0 20.116)"><path class="e" d="M2392.518,1134.923l.182.163a.223.223,0,0,0,.314-.008l3.225-3.557a.221.221,0,0,0-.025-.312l-.181-.163a.224.224,0,0,0-.315.008l-3.225,3.557A.221.221,0,0,0,2392.518,1134.923Z" transform="translate(-2366.667 -1116.423)"/><path class="f" d="M2402.424,1144.2c.431-.352,3.764,1.116,3.722,1.627s2.326,5.464,2.326,5.464l4.092-3.274h0c.036-.118.424-1.392.443-1.62s.711-.657,1.033-.6-.275.466-.314.54c-.106.2.305.278.305.278s1.182-.651,1.207-1.034.269-1.185.525-1.018c.132.086.13.656.09.926.076-.307.183-.653.288-.688.191-.063.287.182.252.3s-.344,1.422-.438,1.569-2,1.687-2.276,2.022c0,0-5.293,6.072-5.671,6.231-.331.139-1.51-1.953-2.624-3.342S2401.077,1145.3,2402.424,1144.2Z" transform="translate(-2387.505 -1128.589)"/><path class="b" d="M2726.751,1711.62s-.728.712-.744.974-.064,3.061.233,3.323,1.169.447.888.74a8.658,8.658,0,0,1-2.923.115c-.315-.017-.711-2.543-.836-2.914-.181-.539-.622-1.753-.458-2.129a3.152,3.152,0,0,1,1.007-.91,4.965,4.965,0,0,0,1.116-1.192Z" transform="translate(-2722.513 -1651.362)"/><path class="f" d="M2593.468,1757.5s-.651,1.845-.652,1.85c-.049.292-.239,1.014-.239,1.28,0,1,4.487-.847,3.481-1.29a1.068,1.068,0,0,1-.406-.7,2.346,2.346,0,0,1,.378-1.18Z" transform="translate(-2581.695 -1695.58)"/><g transform="translate(1.654 27.557)"><path class="g" d="M2527.057,1303.037s.327,3.308.327,3.357c0,5.351,1.057,15.8.856,16.808-.49,2.454-5.769,14.971-5.769,14.971l-2.853-.342,3.718-14.986-1.368-6.032-1.936-11.923Z" transform="translate(-2509.899 -1303.037)"/><path class="h" d="M2554.123,1311.74l-.541,3.135-1.465,12.9-5.578,12.61s.785,1.835,1.942,2.093l8.877-12.947,5.514-16.567-.194-3.681Z" transform="translate(-2546.539 -1308.814)"/></g><path class="i" d="M2524.695,1092.767l-3.956.405s-.181-3.254-.181-4.807c0-1.883.16-4.309.386-4.256a3.445,3.445,0,0,1,2,1.2C2524.711,1087.744,2524.695,1092.767,2524.695,1092.767Z" transform="translate(-2504.745 -1073.086)"/><path class="j" d="M2534.878,1086.5c.083.574,1.6,16.184,1.6,16.184-7.2,3.491-11.177.622-11.177.622s.236-10.961-.047-12.453c-.187-.987-.419-7.546.218-7.73a15.917,15.917,0,0,1,2.779-.593,26.5,26.5,0,0,1,4.869.061A7.76,7.76,0,0,1,2534.878,1086.5Z" transform="translate(-2516.871 -1071.553)"/><path class="j" d="M2720.444,1725.172s1.676,4.736,2.333,4.965c.174.061,1.01.215,1.168.586a1.626,1.626,0,0,1,0,.485h-3.495s-.442-2.087-.616-3a13.629,13.629,0,0,1-.822-2.444C2719.115,1725.557,2720.444,1725.172,2720.444,1725.172Z" transform="translate(-2719.004 -1665.734)"/><path class="j" d="M2546.539,1783.851l.514-1.628a4.451,4.451,0,0,0,1.619.382,16.328,16.328,0,0,0,1.593-.382c2.154.711,3.918,1.056,3.6,1.628h-7.323Z" transform="translate(-2535.912 -1718.476)"/><g transform="translate(20.025 22.269)"><path class="f" d="M2507.3,1237.092a.959.959,0,0,0,.109-.081c-.128-1.529-.105-3.011.373-3.512-.011-.024-.115-.247-.225-.478-.554.43-.818,1.573-.715,3.428a3.361,3.361,0,0,0,.073.385C2507.08,1237.011,2507.226,1237.125,2507.3,1237.092Z" transform="translate(-2506.824 -1233.021)"/></g><path class="k" d="M2671.567,1147.519a.462.462,0,0,1,0-.1c.106-1.081,1-10.158,1.152-10.544.136-.349,4.148-6.106,4.148-6.106l1.972,2.7-3.858,5.164c-.086.328-1.478,6.456-1.478,6.456s-.285,1.117-.413,1.786c.058.161.115.314.166.439a4.021,4.021,0,0,0,.416.67,4.607,4.607,0,0,1,.492.874c.041.158.115.485.156.683s.1.428.109.536a1.035,1.035,0,0,0,.125.287.172.172,0,0,1-.2.249c-.14-.047-.249-.229-.317-.342-.19-.32-.291-.9-.338-.874s-.214,1.023-.24,1.135a12.287,12.287,0,0,1-.339,1.474c-.112.21-.262.175-.3.043-.034-.113.124-1.725.124-1.725s.02-.205-.07-.141-.236,1.527-.3,1.741-.2.328-.325.156a6.5,6.5,0,0,1,.106-1.761s.028-.2-.055-.177-.187,1.265-.252,1.373a.163.163,0,0,1-.305-.033,7.662,7.662,0,0,1,.146-1.6s-.012-.11-.064-.073-.216,1.093-.323,1.191a.113.113,0,0,1-.165,0c-.2-.134.1-1.14.1-1.639a12.344,12.344,0,0,0,.159-1.656C2671.586,1147.669,2671.574,1147.577,2671.567,1147.519Z" transform="translate(-2670.268 -1116.223)"/><path class="i" d="M2648.089,1098.083l3.427,2.309a37.371,37.371,0,0,1,2.968-3.911c1.3-1.286-.473-5.226-1.31-5C2651.3,1091.977,2648.089,1098.083,2648.089,1098.083Z" transform="translate(-2644.627 -1079.891)"/><path class="f" d="M2591.285,1036.371l-.512,3.39s1.872,4.036,2.99,3.686c.938-.294.361-3.865.361-3.865a9.813,9.813,0,0,1-.358-2.878C2593.918,1035.745,2591.285,1036.371,2591.285,1036.371Z" transform="translate(-2579.651 -1028.768)"/><path class="l" d="M2599.49,1036.7c.153-.96-2.48-.333-2.48-.333l-.042.281a1.568,1.568,0,0,0,.286.473,3.46,3.46,0,0,0,2.3,1.045A5.244,5.244,0,0,1,2599.49,1036.7Z" transform="translate(-2585.376 -1028.769)"/><g transform="translate(9.093 0)"><path class="f" d="M2577.059,962.367c-.074-.027-.6,3.861.394,4.931s2.922,1.42,3.614.577c.766-.932.727-5.111-.813-6.211S2577.059,962.367,2577.059,962.367Z" transform="translate(-2574.95 -959.56)"/><path class="m" d="M2588.856,938.186a4.274,4.274,0,0,0-2.245,1.285c-.541.064-1.275.364-2.034,1.625a3.16,3.16,0,0,0,.842,4.11,2.459,2.459,0,0,1,1.071,1.816l.171-.5a2.821,2.821,0,0,0,.136-1.186,2.318,2.318,0,0,0-.176-.713c-.261-.563.561-.937.792-1.4.177-.36.186-1.185.466-1.781l.334-.455a2.119,2.119,0,0,1,1.525-.432C2590.492,940.716,2590.384,937.874,2588.856,938.186Z" transform="translate(-2584.139 -938.162)"/><path class="f" d="M2622.61,1003.811c.008.474-.207.863-.48.867s-.5-.376-.508-.85.207-.863.48-.867S2622.6,1003.337,2622.61,1003.811Z" transform="translate(-2619.386 -998.067)"/></g><path class="d" d="M2580.546,1027.785l1.494-.078a.655.655,0,0,1-.661.624C2580.579,1028.4,2580.546,1027.785,2580.546,1027.785Z" transform="translate(-2566.62 -1020.944)"/></g></g></g></svg>