<svg xmlns="http://www.w3.org/2000/svg" width="48" height="48" viewBox="0 0 48 48"><defs><style>.a{fill:#fff;}</style></defs><g transform="translate(-774 -2217)"><g transform="translate(774 2217)"><ellipse class="a" cx="1.873" cy="1.498" rx="1.873" ry="1.498" transform="translate(34.188 18.31)"/><path class="a" d="M40.5,3.75H38.063V1.875a1.875,1.875,0,0,0-3.75,0V3.75H25.781V1.875a1.875,1.875,0,1,0-3.75,0V3.75H13.594V1.875a1.875,1.875,0,0,0-3.75,0V3.75H7.5A7.509,7.509,0,0,0,0,11.25V40.5A7.509,7.509,0,0,0,7.5,48H21.844a1.875,1.875,0,1,0,0-3.75H7.5A3.754,3.754,0,0,1,3.75,40.5V11.25A3.754,3.754,0,0,1,7.5,7.5H9.844V9.375a1.875,1.875,0,1,0,3.75,0V7.5h8.438V9.375a1.875,1.875,0,1,0,3.75,0V7.5h8.531V9.375a1.875,1.875,0,1,0,3.75,0V7.5H40.5a3.754,3.754,0,0,1,3.75,3.75V21.938a1.875,1.875,0,0,0,3.75,0V11.25A7.509,7.509,0,0,0,40.5,3.75Z"/><path class="a" d="M280.282,270a10.282,10.282,0,1,0,10.282,10.282A10.293,10.293,0,0,0,280.282,270Zm0,17.165a6.883,6.883,0,1,1,6.883-6.883A6.891,6.891,0,0,1,280.282,287.165Z" transform="translate(-242.563 -242.563)"/><path class="a" d="M375.164,333.484H374.4V331.7a1.7,1.7,0,0,0-3.4,0v3.484a1.7,1.7,0,0,0,1.7,1.7h2.464a1.7,1.7,0,0,0,0-3.4Z" transform="translate(-334.981 -298.518)"/><circle class="a" cx="1.498" cy="1.498" r="1.498" transform="translate(26.633 18.31)"/><ellipse class="a" cx="1.873" cy="1.498" rx="1.873" ry="1.498" transform="translate(18.345 26.633)"/><ellipse class="a" cx="1.873" cy="1.498" rx="1.873" ry="1.498" transform="translate(10.006 18.31)"/><ellipse class="a" cx="1.873" cy="1.498" rx="1.873" ry="1.498" transform="translate(10.006 26.633)"/><circle class="a" cx="1.873" cy="1.873" r="1.873" transform="translate(10.006 34.188)"/><circle class="a" cx="1.873" cy="1.873" r="1.873" transform="translate(18.345 34.188)"/><ellipse class="a" cx="1.873" cy="1.498" rx="1.873" ry="1.498" transform="translate(18.345 18.31)"/></g></g></svg>