<svg xmlns="http://www.w3.org/2000/svg" width="16.399" height="16.399" viewBox="0 0 16.399 16.399"><circle cx="0.641" cy="0.641" r="0.641" transform="translate(12.043 6.278)" fill="#0f47e6"/><path d="M13.837,1.281H13V.641a.641.641,0,0,0-1.281,0v.641H8.808V.641a.641.641,0,0,0-1.281,0v.641H4.644V.641a.641.641,0,0,0-1.281,0v.641h-.8A2.565,2.565,0,0,0,0,3.844v9.993A2.565,2.565,0,0,0,2.562,16.4h4.9a.641.641,0,1,0,0-1.281h-4.9a1.283,1.283,0,0,1-1.281-1.281V3.844A1.283,1.283,0,0,1,2.562,2.562h.8V3.2a.641.641,0,1,0,1.281,0V2.562H7.527V3.2a.641.641,0,1,0,1.281,0V2.562h2.915V3.2A.641.641,0,0,0,13,3.2V2.562h.833a1.283,1.283,0,0,1,1.281,1.281V7.5a.641.641,0,0,0,1.281,0V3.844A2.565,2.565,0,0,0,13.837,1.281Z" fill="#0f47e6"/><path d="M273.876,270a3.876,3.876,0,1,0,3.876,3.876A3.88,3.88,0,0,0,273.876,270Zm0,6.47a2.594,2.594,0,1,1,2.594-2.594A2.6,2.6,0,0,1,273.876,276.47Z" transform="translate(-261.352 -261.352)" fill="#0f47e6"/><path d="M372.569,331.313h-.288v-.673a.641.641,0,1,0-1.281,0v1.313a.641.641,0,0,0,.641.641h.929a.641.641,0,0,0,0-1.281Z" transform="translate(-359.117 -319.43)" fill="#0f47e6"/><circle cx="0.641" cy="0.641" r="0.641" transform="translate(8.84 6.278)" fill="#0f47e6"/><circle cx="0.641" cy="0.641" r="0.641" transform="translate(6.278 8.84)" fill="#0f47e6"/><circle cx="0.641" cy="0.641" r="0.641" transform="translate(3.075 6.278)" fill="#0f47e6"/><circle cx="0.641" cy="0.641" r="0.641" transform="translate(3.075 8.84)" fill="#0f47e6"/><circle cx="0.641" cy="0.641" r="0.641" transform="translate(3.075 11.403)" fill="#0f47e6"/><circle cx="0.641" cy="0.641" r="0.641" transform="translate(6.278 11.403)" fill="#0f47e6"/><circle cx="0.641" cy="0.641" r="0.641" transform="translate(6.278 6.278)" fill="#0f47e6"/></svg>