<svg xmlns="http://www.w3.org/2000/svg" width="21.995" height="17.312" viewBox="0 0 21.995 17.312"><g transform="translate(0 -44.8)"><g transform="translate(0 44.8)"><path d="M21.263,47.5a2.365,2.365,0,0,0-1.735-.732H16.057v-.042a1.877,1.877,0,0,0-.565-1.359,1.913,1.913,0,0,0-1.359-.565H7.861a1.927,1.927,0,0,0-1.944,1.924v.042H2.467A2.365,2.365,0,0,0,.732,47.5,2.486,2.486,0,0,0,0,49.232V59.645A2.365,2.365,0,0,0,.732,61.38a2.486,2.486,0,0,0,1.735.732H19.528a2.365,2.365,0,0,0,1.735-.732,2.486,2.486,0,0,0,.732-1.735V49.232A2.365,2.365,0,0,0,21.263,47.5Zm-.355,12.147h-.021A1.356,1.356,0,0,1,19.528,61H2.467a1.356,1.356,0,0,1-1.359-1.359V49.232a1.356,1.356,0,0,1,1.359-1.359H6.5a.562.562,0,0,0,.565-.565V46.7a.787.787,0,0,1,.815-.815h6.251a.787.787,0,0,1,.815.815v.606a.562.562,0,0,0,.565.565h4.035a1.356,1.356,0,0,1,1.359,1.359Z" transform="translate(0 -44.8)" fill="#515151"/><path d="M117.143,130.8a5.14,5.14,0,1,0,3.638,1.505A5.152,5.152,0,0,0,117.143,130.8Zm2.843,8.008a4.038,4.038,0,0,1-5.687,0,4,4,0,0,1-1.171-2.843,4.086,4.086,0,0,1,1.171-2.843,4,4,0,0,1,2.843-1.171,4.086,4.086,0,0,1,2.843,1.171,4,4,0,0,1,1.171,2.843A3.912,3.912,0,0,1,119.987,138.808Z" transform="translate(-106.146 -126.305)" fill="#515151"/><circle cx="1.024" cy="1.024" r="1.024" transform="translate(17.416 4.474)" fill="#515151"/></g></g></svg>