<svg xmlns="http://www.w3.org/2000/svg" width="48" height="44.161" viewBox="0 0 48 44.161"><defs><style>.a{fill:#fff;}</style></defs><path class="a" d="M41.4-1.332H6.6A6.606,6.606,0,0,0,0,5.267v21.3a6.607,6.607,0,0,0,6.576,6.6v9.665l13.889-9.665H41.4a6.607,6.607,0,0,0,6.6-6.6V5.267a6.606,6.606,0,0,0-6.6-6.6Zm3.787,27.9A3.791,3.791,0,0,1,41.4,30.352H19.583L9.389,37.446V30.352H6.6a3.791,3.791,0,0,1-3.787-3.787V5.267A3.791,3.791,0,0,1,6.6,1.48H41.4a3.791,3.791,0,0,1,3.787,3.787Zm0,0" transform="translate(-0.001 1.332)"/><path class="a" d="M171.293,131.172h21.958v2.769H171.293Zm0,0" transform="translate(-158.272 -121.224)"/><path class="a" d="M171.293,211.172h21.958v2.769H171.293Zm0,0" transform="translate(-158.272 -195.217)"/><path class="a" d="M171.293,291.172h21.958v2.769H171.293Zm0,0" transform="translate(-158.272 -269.211)"/></svg>