<svg xmlns="http://www.w3.org/2000/svg" width="32.034" height="61.825" viewBox="0 0 32.034 61.825"><defs><style>.a{fill:#fff;}</style></defs><path class="a" d="M141.268,28.084a74.436,74.436,0,0,0-7.559-3.422,16.971,16.971,0,0,1-4.15-2.324c-2.464-1.966-1.992-5.159.894-6.423a7.285,7.285,0,0,1,2.541-.524,19.287,19.287,0,0,1,9.551,1.89c1.507.728,2,.5,2.515-1.073.536-1.66.983-3.345,1.481-5.018A1.753,1.753,0,0,0,145.4,8.854a24.28,24.28,0,0,0-6.027-1.8c-2.733-.421-2.733-.434-2.745-3.179C136.62.005,136.62.005,132.738.005c-.562,0-1.124-.013-1.685,0-1.813.051-2.12.37-2.171,2.2-.026.817,0,1.634-.013,2.464-.013,2.426-.026,2.388-2.349,3.231-5.618,2.043-9.091,5.874-9.462,12-.332,5.427,2.5,9.091,6.959,11.76,2.745,1.647,5.784,2.618,8.7,3.907a12.916,12.916,0,0,1,3.167,1.864,4.342,4.342,0,0,1-1.034,7.61,10.414,10.414,0,0,1-5.58.728,24.906,24.906,0,0,1-8.5-2.541c-1.571-.817-2.03-.6-2.567,1.1-.46,1.468-.868,2.95-1.277,4.431-.549,1.992-.345,2.464,1.558,3.4a27.153,27.153,0,0,0,7.661,2.2c2.069.332,2.132.421,2.158,2.567.013.97.013,1.954.026,2.924a1.737,1.737,0,0,0,1.864,1.966c1.43.026,2.873.026,4.3-.013a1.637,1.637,0,0,0,1.775-1.851c0-1.328.064-2.669.013-4a2.111,2.111,0,0,1,1.826-2.4,14.431,14.431,0,0,0,7.521-4.827C151.087,42.079,149.005,32.361,141.268,28.084Z" transform="translate(-116.652 0)"/></svg>