<svg xmlns="http://www.w3.org/2000/svg" width="15.443" height="13.759" viewBox="0 0 15.443 13.759"><path d="M13.389,31.089a3.638,3.638,0,0,0-5.808.418,5.538,5.538,0,0,0-.36.583,5.534,5.534,0,0,0-.36-.583,3.638,3.638,0,0,0-5.808-.418A4.378,4.378,0,0,0,0,34a5.361,5.361,0,0,0,1.477,3.518,32.873,32.873,0,0,0,3.7,3.453c.559.476,1.137.969,1.752,1.507l.018.016a.423.423,0,0,0,.557,0l.018-.016c.615-.538,1.193-1.031,1.752-1.507a32.868,32.868,0,0,0,3.7-3.453A5.361,5.361,0,0,0,14.443,34,4.378,4.378,0,0,0,13.389,31.089ZM8.722,40.323c-.482.411-.978.833-1.5,1.288-.523-.454-1.019-.877-1.5-1.288C2.785,37.822.846,36.169.846,34a3.533,3.533,0,0,1,.842-2.348,2.825,2.825,0,0,1,2.148-.967A2.853,2.853,0,0,1,6.171,32a5.017,5.017,0,0,1,.648,1.288.423.423,0,0,0,.8,0A5.017,5.017,0,0,1,8.271,32a2.793,2.793,0,0,1,4.483-.348A3.533,3.533,0,0,1,13.6,34C13.6,36.169,11.657,37.822,8.722,40.323Z" transform="translate(0.5 -29.336)" fill="#0f47e6" stroke="#0f47e6" stroke-width="1"/></svg>