<svg xmlns="http://www.w3.org/2000/svg" xmlns:xlink="http://www.w3.org/1999/xlink" width="358.178" height="494.761" viewBox="0 0 358.178 494.761"><g transform="translate(-855.308 -180.431)"><ellipse cx="23.149" cy="3.768" rx="23.149" ry="3.768" transform="translate(874.357 657.062)" fill="#979797"/><ellipse cx="31.763" cy="3.768" rx="31.763" ry="3.768" transform="translate(1047.707 664.599)" fill="#979797"/><ellipse cx="31.763" cy="3.768" rx="31.763" ry="3.768" transform="translate(1119.846 662.446)" fill="#979797"/><ellipse cx="21.534" cy="3.768" rx="21.534" ry="3.768" transform="translate(947.573 662.446)" fill="#979797"/><g transform="translate(855.308 225.268)"><g transform="translate(23.724 236.586)"><g transform="translate(62.397 36.462)"><path d="M239.462,241.184c7.051,26.263,7.889,25.57,11.269,33.683,2.831,6.8,5.584,7.867,3.393,24.16-2.308,17.172,11,29.586,12.4,46.815.346,4.269-1.5,9.929-1.757,16.217s-.226,9.6,6.779,12.564,14.043,2.793,9.6-7.19-2.8-25.24-2.073-33.942c.966-11.47-.03-22.161-.726-34.9-.412-7.526-5.289-20.431-4.861-25.344s-3.044-55.339-6.012-60.522S239.462,241.184,239.462,241.184Z" transform="translate(-239.462 -212.182)" fill="#875e44"/><path d="M255.149,244.272c-3.448-.289-6.408-1.784-9.395-3.164-.085,2.174-.319,4.76-.747,7.941-2.308,17.171,11,29.586,12.4,46.815.346,4.269-1.5,9.929-1.757,16.217s-.226,9.6,6.779,12.564,14.127,1.058,9.692-8.923-2.891-23.508-2.16-32.21c.966-11.47-.03-22.161-.726-34.9a50.036,50.036,0,0,0-1-6.833,15.817,15.817,0,0,1-3.459,1.9C261.87,244.638,257.956,244.512,255.149,244.272Z" transform="translate(-230.345 -162.204)" fill="#d8d8d8"/><g transform="translate(14.343 83.056)"><path d="M265.069,249.032c-5.442.578-14.877-.818-20.2-2.976-.052-.025-.1-.063-.15-.087-.005.775,0,1.566.014,2.39,5.764,2.16,14.951,3.472,20.562,2.881.2-.022.415-.049.633-.079a35.5,35.5,0,0,0,3.985-.862c.011-.753-.166-2.409-.166-2.409A27.146,27.146,0,0,1,265.069,249.032Z" transform="translate(-244.72 -236.861)" fill="#47356e"/><path d="M244.9,244.93c.292.125.589.248.876.371.715.3,1.41.6,2.043.887,5.51,2.5,11.754,1.923,17.791,1.361l.494-.041c1.039-.1,1.975-.232,2.9-.382-.022-.387-.024-.739-.046-1.143-.019-.33-.085-.72-.117-1.075-.884.153-1.822.284-2.943.387l-.491.046c-5.748.537-11.694,1.088-16.672-1.176-.647-.3-1.358-.595-2.1-.906-.483-.2-.974-.415-1.468-.63C245.091,243.345,244.993,244.141,244.9,244.93Z" transform="translate(-244.409 -242.63)" fill="#47356e"/></g><g transform="translate(1.768 35.731)" opacity="0.3" style="mix-blend-mode:multiply;isolation:isolate"><path d="M240.145,225.415l.27-.06a.536.536,0,0,1-.306-.074C240.121,225.322,240.132,225.371,240.145,225.415Z" transform="translate(-240.11 -225.281)" fill="#e0b58d"/><path d="M252.749,248.778c-1.71-1.833-11.735-19.575-8.822-12.589,2.832,6.8,5.584,7.867,3.393,24.16-2.308,17.172,11,29.586,12.4,46.815.346,4.269-1.5,9.929-1.757,16.217s-.226,9.6,6.779,12.564c.622.265,1.279.494,1.945.707-.068-4.043-2.275-8.7-3.363-12.161-1.956-6.236-9.695-61.913-10.507-67.521-.646-4.465-.016-3.336,4.064-3.1,2.3.139,6.751-3.055,1.789-2.4C256.12,251.811,254.808,250.982,252.749,248.778Z" transform="translate(-234.426 -209.235)" fill="#c5c4c4"/></g></g><g transform="translate(12.278 32.098)"><path d="M254.663,226.512c-3.325,26.989-5.177,34.88-6.189,43.609-.846,7.319-5.808,6.481-1.372,22.311,4.675,16.683-2.671,30-1.659,47.259.251,4.277,1.893,10.718,2.155,17.005s.226,9.607-6.781,12.567-17.354,2.957-12.919-7.024,6.555-17.087,5.085-24.913c-2.436-12.992-8.849-29.242-9.932-41.951-.641-7.512-.1-18.994-.99-25.314-.685-4.883-1.929-52.982.286-58.528S254.663,226.512,254.663,226.512Z" transform="translate(-221.089 -210.582)" fill="#875e44"/><path d="M235.372,242.185c3.377-.766,6.1-2.66,8.865-4.441.39,2.139.977,4.67,1.844,7.758,4.676,16.683-2.671,30-1.658,47.259.251,4.277,1.893,10.718,2.155,17.005s.226,9.607-6.781,12.567-18.23.835-13-8.756c5.7-10.456,5.066-15.014,3.6-22.84-2.436-12.993-7.278-29.583-8.361-42.292a42.556,42.556,0,0,1-.308-6.631,17.481,17.481,0,0,0,4.037,1.121C228.768,243.483,232.627,242.815,235.372,242.185Z" transform="translate(-220.068 -163.652)" fill="#d8d8d8"/><g transform="translate(1.929 78.162)"><path d="M226.772,248.372c5.428-.191,14.512-2.883,19.441-5.761.049-.033.087-.076.136-.106.112.764.218,1.552.314,2.37-5.363,2.941-14.215,5.516-19.815,5.712-.2.005-.409.011-.63.011a30.145,30.145,0,0,1-3.732-.278c-.115-.742-.237-1.489-.349-2.261A23.843,23.843,0,0,0,226.772,248.372Z" transform="translate(-221.207 -233.589)" fill="#47356e"/><path d="M245.506,241.473c-.276.166-.554.33-.818.491-.666.4-1.312.786-1.9,1.159-5.106,3.249-11.37,3.546-17.425,3.827l-.494.027c-1.045.041-1.989.046-2.924.024-.035-.385-.079-.736-.115-1.135-.03-.336-.016-.728-.033-1.08.895.027,1.841.027,2.965-.027l.494-.025c5.767-.267,11.732-.551,16.345-3.481.6-.387,1.266-.78,1.953-1.192q.675-.405,1.364-.827C245.091,239.934,245.3,240.706,245.506,241.473Z" transform="translate(-221.796 -239.236)" fill="#47356e"/></g><g transform="translate(10.209 57.514)" opacity="0.3" style="mix-blend-mode:multiply;isolation:isolate"><path d="M232.229,243.907c1.44-2.049,10.652-17.734,9.779-10.216-.846,7.319-5.808,6.481-1.372,22.311,4.675,16.683-2.671,30-1.659,47.259.251,4.277,1.893,10.718,2.155,17.005s.226,9.607-6.781,12.567c-.622.262-1.279.491-1.945.7.068-4.04,2.275-8.7,3.363-12.158,1.956-6.238-1.067-62.292-1.045-67.958.019-4.509-.884-4.236-4.894-3.429-2.261.458-7.57,1.312-3.522-2.406C228.211,245.849,230.5,246.379,232.229,243.907Z" transform="translate(-224.831 -231.667)" fill="#c5c4c4"/></g></g><g transform="translate(10.423)"><path d="M306.6,294.018c.207-7.387-1.4-21.506-2.5-52.827-.158-4.566-4.667-36.864-7.469-40.9s-62.669,1.59-65.429.507-3.413,6.708-3.413,6.708a119.493,119.493,0,0,0-3.374,13.83c-7.032,52.731-2.832,75.146-2,76.832.663,1.358,6.855,4.394,13.628,3.453s11.454-1.907,12.6-3.4c1.192-1.552,12.51-55.6,13.86-55.863,1.389-.27,3.964,10.775,5.851,15.917s7.491,22.685,9.635,27.663,5.142,11.41,5.142,11.41,4.482,2.439,11.479,1.258A33.343,33.343,0,0,0,306.6,294.018Z" transform="translate(-220.409 -198.815)" fill="#0f47e6"/><path d="M227.891,298.732h0c6.929-9,12.278-42.385,11.634-53.1s-.7-40.4-.867-45.593c0,0,4.49,29.095,5.677,35.131l7.605,3.134s24.269,58.5,22.128,58.119c-3.156-.551-3.871-1.184-3.871-1.184s-3-6.432-5.142-11.41-7.75-22.521-9.635-27.663-4.463-16.187-5.851-15.917c-1.35.265-12.668,54.311-13.86,55.863C234.85,297.229,231.374,298.069,227.891,298.732Z" transform="translate(-207.481 -196.705)" fill="#0f47e6" opacity="0.2" style="mix-blend-mode:multiply;isolation:isolate"/></g><g transform="translate(0 167.879)"><g transform="translate(1.04 31.724)"><path d="M220.761,272.625a4.789,4.789,0,0,0-2.1-.636l-1.691,1.02c.772,1.238,1.086,2.891,1.909,3.974a7.632,7.632,0,0,0,1.844-3C220.946,273.208,221.312,273.317,220.761,272.625Z" transform="translate(-216.969 -271.989)" fill="#383838"/><path d="M223.664,273.012a4.763,4.763,0,0,0-2.1-.627l-1.7,1.009c.775,1.244,1.091,2.9,1.912,3.982a7.59,7.59,0,0,0,1.844-3C223.85,273.593,224.218,273.708,223.664,273.012Z" transform="translate(-211.962 -271.305)" fill="#383838"/></g><g transform="translate(10.727 29.01)"><path d="M224.312,271.621a4.728,4.728,0,0,0-2.1-.627l-1.691,1.015c.769,1.238,1.086,2.889,1.907,3.972a7.558,7.558,0,0,0,1.847-3C224.5,272.205,224.857,272.317,224.312,271.621Z" transform="translate(-220.52 -270.994)" fill="#383838"/><path d="M227.215,272.011a4.789,4.789,0,0,0-2.1-.622l-1.7,1.012c.78,1.238,1.088,2.889,1.912,3.974a7.669,7.669,0,0,0,1.844-3C227.4,272.595,227.766,272.709,227.215,272.011Z" transform="translate(-215.513 -270.312)" fill="#383838"/></g><path d="M241.72,266.447c6.189,1,6.138,7.946,9.318,4.7s3.077-10.788,3.077-10.788c5.387,3.14,4.864,15.789,3.647,19.108s-2.8,3.492-7.73,5.529-4.2-.357-8.312,4.2-7.711,8.331-14.122,7.07-11.891-1.62-10.892-5.742,2.021-5.917,5.2-9.356,17.7-16.179,17.7-16.179S239.867,266.153,241.72,266.447Z" transform="translate(-216.588 -260.359)" fill="#0f47e6"/><path d="M236.367,268.976c.224-2.643,1.746-4.46,3-6.506a1.3,1.3,0,0,1-.207-.412s-14.512,12.739-17.7,16.179c-2.6,2.815-3.756,4.528-4.629,7.313a15.847,15.847,0,0,1,3.292-3.59,42.491,42.491,0,0,1,8.331-4.607c4.154-1.879,8.974-2.343,13.385-2.589C239.343,274.019,236.119,271.875,236.367,268.976Z" transform="translate(-216.154 -257.423)" fill="#d8d8d8"/><g transform="translate(0 6.388)"><path d="M244.6,267.189a6.144,6.144,0,0,1-3.282,3.3,10.306,10.306,0,0,1-5.281.641,5.008,5.008,0,0,1-2.54-1.1,16.574,16.574,0,0,1-1.841-1.915,11.339,11.339,0,0,0-1.721-1.669,10.3,10.3,0,0,0-1.817-1.129,9.852,9.852,0,0,0-1.721-.6,6.45,6.45,0,0,0-1.391-.2,5.537,5.537,0,0,0-1.206.169l-.016,0c-.008.005-.019,0-.025-.011l.011-.03a5.214,5.214,0,0,1,1.236-.314,5.605,5.605,0,0,1,1.446.109,9.828,9.828,0,0,1,1.819.513,9.6,9.6,0,0,1,3.754,2.839,15.978,15.978,0,0,0,1.738,1.912,4.666,4.666,0,0,0,2.31,1.159,8.045,8.045,0,0,0,5.145-.6,6,6,0,0,0,1.866-1.468,7.992,7.992,0,0,0,1.167-1.781,14.394,14.394,0,0,0,.985-3.085c.169-.78.262-1.222.262-1.222a.023.023,0,0,1,.027-.019.027.027,0,0,1,.022.027l-.117,1.244A11.127,11.127,0,0,1,244.6,267.189Z" transform="translate(-204.188 -262.701)" fill="#800606" opacity="0.3" style="mix-blend-mode:multiply;isolation:isolate"/><path d="M216.706,281.941c.022-.074.038-.145.055-.216,1.691,2.37,5.535,2.57,8.369,3.085a14.959,14.959,0,0,0,5.229.158,20.289,20.289,0,0,0,5.742-1.907,21.994,21.994,0,0,0,4.111-2.613,3.007,3.007,0,0,1-1.206-.273,18.022,18.022,0,0,0-1.852-.723,5.64,5.64,0,0,0-1.091-.292,6.485,6.485,0,0,0-1.143-.194c-1.588-.038-3.175-.071-4.367-.1a4.487,4.487,0,0,1-1.44-.3c-.349-.106-.546-.185-.546-.185s.2-.074.556-.169a4.549,4.549,0,0,1,1.465-.267c1.195.005,2.829.06,4.455.106a6.4,6.4,0,0,1,1.211.207,6,6,0,0,1,1.143.3,18.445,18.445,0,0,1,1.975.769,4.511,4.511,0,0,1,1.192.816,19.292,19.292,0,0,0,2.087-2.027,1.287,1.287,0,0,1-.685-.093c-.843-.289-1.953-.7-3.08-1.064-1.187-.235-2.37-.469-3.257-.641-.458-.022-.766-.4-1.017-.494-.237-.15-.371-.254-.371-.254s.161-.044.442-.1c.267.011.7-.218,1.129-.065.889.177,2.073.409,3.26.641,1.165.382,2.324.8,3.2,1.1a1.672,1.672,0,0,1,.777.494,15.263,15.263,0,0,0,1.241-1.721c-.014-.014-.038-.014-.052-.027a4.642,4.642,0,0,0-1.71-.914,14.226,14.226,0,0,0-2.035-.423c-.292.025-.5-.314-.657-.379a2.29,2.29,0,0,1-.243-.213s.106-.06.289-.139c.177-.016.458-.3.745-.183a15.989,15.989,0,0,1,2.177.453,5.834,5.834,0,0,1,1.92,1.017c.112-.213.237-.423.336-.641.979-2.207,1.792-2.608,4.075-3.175a26.7,26.7,0,0,0,5.243-1.882c1.77-.914,2.43-2.237,3.642-3.584.117-.136.417-.406.532-.507a17.719,17.719,0,0,1-.786,5.551c-1.227,3.32-2.8,3.492-7.73,5.529s-4.2-.357-8.312,4.2-7.711,8.331-14.122,7.07S215.707,286.063,216.706,281.941Z" transform="translate(-216.588 -258.16)" fill="#800606" opacity="0.3" style="mix-blend-mode:multiply;isolation:isolate"/></g></g><g transform="translate(83.116 180.456)"><g transform="translate(3.868 23.149)"><path d="M252.822,274.6c-.352.379,1.438,2.946,1.975,3.377,1.271-.908,1.462-2.821,1.645-4.2a26.571,26.571,0,0,1-3.05-.327Z" transform="translate(-241.045 -273.456)" fill="#383838"/><path d="M248.52,274.6c-.346.376,1.438,2.946,1.975,3.377,1.271-.908,1.462-2.821,1.642-4.2a25.889,25.889,0,0,1-3.044-.325Z" transform="translate(-248.476 -273.456)" fill="#383838"/></g><path d="M250.01,271.886c1.26-3.121.426-5.076,3.29-6.479,3.121-1.522,7.687,1.457,10.355.919,3.044-.608,4.184,2.139,4.692,5.559.436,2.927,1.544,5.919,1.544,8.9,0,2.212.276,5.087-.469,7.07-.821,2.174-2.512,2.49-4.422,2.529h.434c-3.478,0-6.68.305-10.112,0-2.6-.232-5.693.1-7.24-2.406C245.523,283.847,248.368,275.937,250.01,271.886Z" transform="translate(-247.058 -264.97)" fill="#0f47e6"/><g transform="translate(3.869 1.575)"><path d="M248.476,271.213c4.782.074,12.253,2.821,14.681-2.733a8.161,8.161,0,0,0,.169-2.932c1.506.761,2.2,2.872,2.57,5.341.436,2.927,1.544,5.919,1.544,8.9,0,2.212.276,5.087-.469,7.07-.783,2.068-2.351,2.458-4.152,2.521l-.177-.336C262.936,285.2,256.739,275.015,248.476,271.213Z" transform="translate(-248.476 -265.547)" fill="#d8d8d8"/><path d="M253.9,274.288h0Z" transform="translate(-239.389 -250.444)" fill="#ffd249"/></g><g transform="translate(18.449 2.331)"><path d="M254.981,265.824a6.955,6.955,0,0,1,1.315,2.867c-.049.158-.093.322-.136.483a12.166,12.166,0,0,1-.4,1.167,17.168,17.168,0,0,0-.742,2.7c-.1.494-.18,1.02-.289,1.484-.134.535-.259,1.089-.382,1.634-.15.655-.336,1.271-.518,1.871a8.5,8.5,0,0,1,.183-1.129c.1-.532.221-1.061.292-1.642.172-1.509.488-2.8.616-4.348.082-.958.2-1.852.191-2.851-.008-.747-.071-1.484-.134-2.207Z" transform="translate(-253.8 -265.824)" fill="#d8d8d8" style="mix-blend-mode:multiply;isolation:isolate"/><g transform="translate(0.619 3.194)"><path d="M254.865,267.4c0,.224-.033.409-.071.409s-.076-.185-.076-.409.035-.406.076-.406S254.865,267.178,254.865,267.4Z" transform="translate(-252.89 -266.995)" fill="#634e42"/><path d="M254.811,267.908c0,.226-.033.409-.071.409s-.076-.183-.076-.409.033-.406.076-.406S254.811,267.687,254.811,267.908Z" transform="translate(-252.984 -266.119)" fill="#634e42"/><path d="M254.664,268.41c0,.229-.035.409-.076.409s-.071-.18-.071-.409.027-.406.071-.406S254.664,268.189,254.664,268.41Z" transform="translate(-253.238 -265.252)" fill="#634e42"/><path d="M254.519,269.017c0,.229-.035.409-.074.409s-.076-.18-.076-.409.035-.407.076-.407S254.519,268.793,254.519,269.017Z" transform="translate(-253.493 -264.205)" fill="#634e42"/><path d="M254.425,269.509c0,.224-.033.406-.076.406s-.071-.183-.071-.406.033-.406.071-.406S254.425,269.286,254.425,269.509Z" transform="translate(-253.651 -263.353)" fill="#634e42"/><path d="M254.312,269.993c0,.224-.03.4-.071.4s-.076-.18-.076-.4.033-.406.076-.406S254.312,269.767,254.312,269.993Z" transform="translate(-253.846 -262.516)" fill="#634e42"/><path d="M254.2,270.3c0,.224-.035.4-.074.4s-.076-.18-.076-.4.035-.412.076-.412S254.2,270.067,254.2,270.3Z" transform="translate(-254.048 -262.003)" fill="#634e42"/></g><g transform="translate(0 1.702)"><path d="M254.347,266.857c0,.224-.035.406-.076.406s-.074-.183-.074-.406.035-.409.074-.409S254.347,266.631,254.347,266.857Z" transform="translate(-253.171 -266.448)" fill="#634e42"/><path d="M254.256,267.426c0,.226-.038.409-.076.409s-.076-.183-.076-.409.033-.407.076-.407S254.256,267.2,254.256,267.426Z" transform="translate(-253.334 -265.46)" fill="#634e42"/><path d="M254.2,268.2c0,.224-.035.4-.074.4s-.076-.18-.076-.4.035-.412.076-.412S254.2,267.973,254.2,268.2Z" transform="translate(-253.429 -264.129)" fill="#634e42"/><path d="M254.107,268.878c0,.224-.027.406-.071.406s-.076-.183-.076-.406.035-.407.076-.407S254.107,268.655,254.107,268.878Z" transform="translate(-253.581 -262.951)" fill="#634e42"/><path d="M254.05,269.424c0,.227-.033.409-.076.409s-.071-.183-.071-.409.033-.406.071-.406S254.05,269.2,254.05,269.424Z" transform="translate(-253.679 -262.007)" fill="#634e42"/><path d="M253.994,269.929c0,.224-.033.406-.071.406s-.076-.183-.076-.406.033-.406.076-.406S253.994,269.706,253.994,269.929Z" transform="translate(-253.776 -261.135)" fill="#634e42"/><path d="M253.968,270.439c0,.226-.036.406-.076.406s-.071-.18-.071-.406.033-.4.071-.4S253.968,270.215,253.968,270.439Z" transform="translate(-253.821 -260.25)" fill="#634e42"/></g><path d="M253.847,270.509a.442.442,0,0,0,.54-.033.716.716,0,0,0,.123-.5c.005,0-.055.055-.1.12a.685.685,0,0,1-.194.248C254.15,270.476,253.834,270.476,253.847,270.509Z" transform="translate(-253.776 -258.659)" fill="#3c3c3b"/><path d="M253.847,269.818a1.738,1.738,0,0,0,.51.191.448.448,0,0,0,.4-.128.871.871,0,0,0,.038-.185c-.033,0-.156.229-.406.093A1.577,1.577,0,0,0,253.847,269.818Z" transform="translate(-253.776 -259.136)" fill="#3c3c3b"/><path d="M253.929,269.084a2.416,2.416,0,0,0,.5.385,1.628,1.628,0,0,0,.415.128c.156-.027.158-.158.166-.136,0-.008-.085.055-.161.016a1.93,1.93,0,0,1-.338-.215A1.965,1.965,0,0,0,253.929,269.084Z" transform="translate(-253.634 -260.194)" fill="#3c3c3b"/><path d="M253.988,268.753a.793.793,0,0,1,.2-.041c.068.016.286-.011.385.065.125-.016.232.136.341.2.076.076.207.085.188.046-.025.024-.033-.008-.115-.139-.087-.074-.147-.262-.363-.319a.969.969,0,0,0-.491.044C254.023,268.669,254,268.761,253.988,268.753Z" transform="translate(-253.532 -261.124)" fill="#3c3c3b"/><path d="M254.066,268.036l.065-.005a.28.28,0,0,1,.156.005l.115.019c.049,0,.025.027.09.049a.482.482,0,0,1,.2.158c.142.074.245.259.417.336.093.033.142-.016.188-.014l.068-.016a2.03,2.03,0,0,1-.213-.079c-.09-.065-.15-.246-.33-.4a.607.607,0,0,0-.264-.134.466.466,0,0,0-.15-.038l-.117,0c-.074-.016-.145.055-.172.082Z" transform="translate(-253.398 -262.215)" fill="#3c3c3b"/><path d="M254.131,267.354c-.008.022.128-.134.295-.112s.371.226.524.456c.186.207.338.453.469.622a.755.755,0,0,0,.259.246c-.033.019-.224-.524-.554-1.007-.194-.207-.428-.445-.7-.436a.294.294,0,0,0-.235.153Z" transform="translate(-253.286 -263.582)" fill="#3c3c3b"/><path d="M254.208,266.67l.06-.085c.057-.024.117,0,.188.074l.275.273a2.781,2.781,0,0,1,.232.368,6.019,6.019,0,0,1,.477.682.631.631,0,0,0,.289.262.773.773,0,0,1-.185-.322,6.257,6.257,0,0,0-.4-.747,2.96,2.96,0,0,0-.292-.36c-.112-.09-.218-.169-.311-.24a.211.211,0,0,0-.306-.005Z" transform="translate(-253.152 -264.643)" fill="#3c3c3b"/></g><g transform="translate(0.003 2.658)" opacity="0.3" style="mix-blend-mode:multiply;isolation:isolate"><path d="M247.119,271.332c1.228,1.323,2.39,3.312,3.737,3.988,2.234,1.116,5.554,1.238,8.063,1.639,3.451.54,7.845.846,10.731-.884a6.518,6.518,0,0,1-.232.791c-.821,2.174-2.512,2.491-4.422,2.529h.434c-3.478,0-6.68.306-10.112,0-2.6-.232-5.693.1-7.24-2.406A9.281,9.281,0,0,1,247.119,271.332Z" transform="translate(-247.059 -256.635)" fill="#800606"/><path d="M263.313,267.444a3.39,3.39,0,0,1-.777.78c-1.337.955-3.527,1.285-5.638,1.277a21.225,21.225,0,0,1-5.734-.952,10.55,10.55,0,0,1-1.768-.736l-.627-.363a11.812,11.812,0,0,0,2.452.922,21.153,21.153,0,0,0,5.682.786,9.95,9.95,0,0,0,5.527-1.086,4.3,4.3,0,0,0,.78-.693,4.439,4.439,0,0,0,.368-.723c.082-.453.128-.712.128-.712l-.071.72A4.163,4.163,0,0,1,263.313,267.444Z" transform="translate(-244.106 -265.944)" fill="#800606"/><path d="M249.1,270.962c-.431.224-.878.406-1.23.576-.357.147-.611.221-.611.221a4.75,4.75,0,0,1,1.6-1.307,3.553,3.553,0,0,1,1.41-.308,4.574,4.574,0,0,1,.649.071s-.251.117-.6.24A12.584,12.584,0,0,0,249.1,270.962Z" transform="translate(-246.713 -258.709)" fill="#800606"/><path d="M248.505,270.292a2.117,2.117,0,0,1-.75.535,2.572,2.572,0,0,1-.412.1,3.073,3.073,0,0,1,.232-.363c.175-.194.327-.447.524-.663.275-.207.5-.467.81-.486a1.8,1.8,0,0,1,.434-.03s-.128.153-.284.311C248.89,269.814,248.718,270.1,248.505,270.292Z" transform="translate(-246.568 -259.997)" fill="#800606"/></g><path d="M250.072,270.239a7.168,7.168,0,0,1,1.257-.39c2.387-.5,4.705.245,7.084.308a12.165,12.165,0,0,1,5.284.938,3.509,3.509,0,0,1,1.5,1.814c.666,2.076-3.061,2.922-4.4,2.927-1.746.006-3.475-.259-5.218-.259-2.06,0-4.716.663-6.558-.567a2.749,2.749,0,0,1-1.154-1.953C247.729,271.651,248.867,270.743,250.072,270.239Z" transform="translate(-245.677 -256.835)" fill="#f4f4f4" opacity="0.2" style="mix-blend-mode:screen;isolation:isolate"/></g></g><path d="M266.35,159.5c-1.206,4.828-6.547,8.148-18.162,8.148s-21.031-4.037-21.031-9.015,8.931-3.849,20.549-3.849S267.337,155.552,266.35,159.5Z" transform="translate(-174.602 -38.499)" fill="#540404"/><g transform="translate(115.746 132.012)"><path d="M252.695,160.479c13.216.887,16.839,23.2,18.094,37.417.974,11.018,4.269,24.318,5.434,30.363,4.228,21.945.379,43.972.827,48.571.371,3.833,1.648,11.792.906,13.893-1.064,3.025-3.344,9.307-5.153,10.589s-7.043,3.175-3.953-1.3c1.83-2.651,2.31-7.739,1.956-9.684-.477-2.613-1.517-4.029-2.043-2.692-1.375,3.494-1.776,7.594-3.246,6.394-1.538-1.258-.867-2.362-1.127-5.707s-.254-7.542,2-9.659c2.278-2.119,2.267-1.7,2.73-5.472s-11.075-40.494-10.857-43.844-4.335-27.305-7.035-35.451S252.695,160.479,252.695,160.479Z" transform="translate(-250.322 -160.479)" fill="#875e44"/><g transform="translate(0.376 21.675)" opacity="0.3" style="mix-blend-mode:multiply;isolation:isolate"><path d="M258.035,215.21a30.783,30.783,0,0,0-.824-7.54,174.965,174.965,0,0,0-6.217-27.5,19.78,19.78,0,0,1,.837-11.74c3.7,6.514,13.023,44.13,12.251,46.026-.81,2.013,10.148,41.43,5.368,49.171-1.309,2.12-3.508,3.412-5.139,5.158.014-.082.033-.166.052-.245.046-.243.1-.475.169-.7.049-.18.112-.349.172-.521.066-.188.131-.379.207-.556.1-.213.21-.409.322-.606a4.082,4.082,0,0,1,.213-.371,5.024,5.024,0,0,1,.709-.846c2.278-2.12,2.267-1.7,2.731-5.472s-11.075-40.494-10.857-43.844C258.038,215.51,258.038,215.373,258.035,215.21Z" transform="translate(-250.46 -168.425)" fill="#e5a475"/></g></g><path d="M251.637,191.641c4.954-2.553,22.924-11.32,24.777-17.128l.128,5.033c.251,1.508.325,7.144.325,7.144s-18.077,10.742-22.843,12.605C254.024,199.3,249.6,192.688,251.637,191.641Z" transform="translate(-133.23 -4.219)" fill="#0f47e6"/><path d="M228.429,168.591c-6.74,2.275-10.813,11.293-12.092,12.286-.832.652,6.678,7.049,9.032,11.37,2.37,4.354-.044,16.923.813,20.971,7.635,36.182,2.668,66.526,2.668,66.526,3.009,3.723,34.809.818,50.841-.254,19.927-1.331,29.354-4.315,29.354-4.315-7.491-16.776,4.411-64.286,3.83-72.906-.57-8.486,4.545-28.467,4.029-30.063s-5.51-8.775-11.113-10.4C301.433,160.541,235.142,166.324,228.429,168.591Z" transform="translate(-193.408 -26.486)" fill="#d8d8d8"/><g transform="translate(32.629 146.345)" opacity="0.3" style="mix-blend-mode:multiply;isolation:isolate"><path d="M278.362,167.549a5.644,5.644,0,0,0-1-1.615c-3.219-3.205-7.8,32.851-9.015,40.65-1.236,7.911-4.509,23.309-6.85,29.564-2.365,6.326-23.034,8.41-23.034,8.41l26.192,2.6s.769,13.254,3.126,21.558c1.871-.385,2.916-.636,2.916-.636-7.491-16.776,4.411-64.286,3.83-72.906C274.06,188.2,277.437,173.43,278.362,167.549Z" transform="translate(-187.692 -165.733)" fill="#d8d8d8"/><path d="M222.664,247.827c.567.7,2.275,1.249,4.787,1.675,2.008-4.364.8-10.794,3.137-13.522,4.367-5.117,29.782-11.271,29.782-11.271a115.334,115.334,0,0,1-21.582-2.905c-10.63-2.616-4.5-7.553-1.4-11.691,3.072-4.105,23.2-4.307,23.2-4.307s-31.247-5.357-34.842-18.039c-.791-2.785-3.039-5.166-5.895-7.668a9.1,9.1,0,0,0,.145,1.2C227.632,217.483,222.664,247.827,222.664,247.827Z" transform="translate(-219.852 -140.914)" fill="#d8d8d8"/></g><path d="M242.15,172.248c.259-.507.161-5.791.584-6.176,2.8-2.54,5.592-4.247,13.879-7.8,18.4-7.9,32.324.608,35.691,6.683a51.56,51.56,0,0,1,6.167,20.993c.4,5.153,1.238,12.038-.535,17.016-1.6,4.482-6.672,8.3-10.191,11.225-1.358,1.127-20.587,14.978-20.849,14.283C262.333,216.322,240.019,176.447,242.15,172.248Z" transform="translate(-148.945 -37.8)" fill="#d8d8d8"/><path d="M290.524,191.839c-1.359,1.127-20.587,14.978-20.852,14.283-3.445-9.182-20.467-32.071-27.657-44.521-.366,6.5,20.48,43.9,24.875,55.6.262.7,19.49-13.156,20.849-14.283,3.519-2.922,8.6-6.743,10.191-11.225A23.942,23.942,0,0,0,299,183.756C296.74,186.9,293.189,189.626,290.524,191.839Z" transform="translate(-148.938 -26.528)" fill="#d8d8d8" opacity="0.3" style="mix-blend-mode:multiply;isolation:isolate"/><path d="M238.662,170.439c17.78,11.882,34.815,47.407,34.815,47.407s-16.781-67.3-25.06-55.153C245.007,167.695,236.073,168.709,238.662,170.439Z" transform="translate(-155.525 -27.177)" fill="#0f47e6"/><path d="M239.734,201.977c-.207.712-16.214-8.633-17.99-9.7-4.836-2.894-10.513-6.315-13.677-11.244a30.471,30.471,0,0,0,1.315,7.433c2.72,6.14,9.34,10.131,14.858,13.437,1.776,1.064,17.783,10.407,17.99,9.7,2.471-8.429,12.1-30.115,17.313-44.507C251.906,179.484,241.843,194.771,239.734,201.977Z" transform="translate(-207.586 -17.032)" fill="#d8d8d8" opacity="0.3" style="mix-blend-mode:multiply;isolation:isolate"/><g transform="translate(18.67)"><path d="M320.006,168.648c0,16.247-6.566,29.384-9.116,49.281-1.6,12.439-30.808,2.133-45.664,1.768-13.628-.33-38.885,10.27-41.067-1.1-2.616-13.62-9.425-33.35-9.425-49.949,0-31.242,23.566-56.564,52.633-56.564S320.006,137.406,320.006,168.648Z" transform="translate(-214.735 -112.084)" fill="#001a64"/><path d="M267,122.484c-26.967,0-49.182,12.873-52.259,29.458a94.442,94.442,0,0,0,1.506,14.2c2.212,6.934,5.8,13.887,7.537,19.239,2.185,6.71,27.45.456,41.073.652,14.861.213,44.07,6.3,45.666-1.045,2.545-11.749,9.114-19.5,9.114-29.1C319.64,137.438,296.074,122.484,267,122.484Z" transform="translate(-214.718 -94.115)" fill="#001a64" opacity="0.8" style="mix-blend-mode:multiply;isolation:isolate"/></g><path d="M268.092,177.822s-10.06-3.508-11.012-5.546c-2.267-4.842-.123-19.793,0-22.174l-21.738-1.225c.044,2.259,1.312,19.853.9,23.4s-9.157,6.656-9.157,6.656,8.1,13.7,18.846,13.7C263.916,192.636,268.092,177.822,268.092,177.822Z" transform="translate(-174.731 -48.513)" fill="#e5a475"/><path d="M250.825,170.006c.256-8.293.559-17.709.655-19.534l-21.37-2.441c.038,1.907,1.042,26.11,1.056,26.121a12.713,12.713,0,0,0,7.488,2.883h1.792c3.614.005,6.727-3.077,7.731-3.849A18.217,18.217,0,0,0,250.825,170.006Z" transform="translate(-169.5 -49.975)" fill="#e5a475" opacity="0.25" style="mix-blend-mode:multiply;isolation:isolate"/><g transform="translate(25.487 11.557)"><path d="M293.846,130.238c-7.237-5.426-16.929-8.584-26.964-9.435,1.4-1.451,3.726-3,5.611-2.823a12.344,12.344,0,0,0-14.817,2.422,4.531,4.531,0,0,1-.886-3.688,6.371,6.371,0,0,0-2.106,3.388,6.859,6.859,0,0,0-12.054-.379,5.672,5.672,0,0,1,4.564-1.618c2.215.016,3.478.726,4.307,2.264a.735.735,0,0,1-.224,1.015,49.1,49.1,0,0,0-20.265,7.662c-14.8,10.292-15.248,33.6-11.02,47.917,0,0,13.481,39.062,42.284,39.611s41.034-38.667,41.034-38.667C309.539,162.817,308.311,141.087,293.846,130.238Z" transform="translate(-216.466 -116.321)" fill="#202020"/><path d="M222.579,182.953c-4.225-14.318-3.781-37.625,11.023-47.917,5.668-3.942,14.94-6.667,20.265-7.66a72.313,72.313,0,0,1,15.606-.581c7.1.756,19.727,4.01,26.962,9.435a30.141,30.141,0,0,1,8.344,9.714,31.559,31.559,0,0,0-10.933-15.707c-7.237-5.426-21.6-8.451-31.632-9.3,2.092-4.182,8.393-3.134,10.278-2.957a12.344,12.344,0,0,0-14.817,2.422,4.531,4.531,0,0,1-.886-3.688,6.371,6.371,0,0,0-2.106,3.388,6.859,6.859,0,0,0-12.054-.379,7.7,7.7,0,0,1,5.09-2.512,8.076,8.076,0,0,1,5.938,3.344c.235.431-2.065.573-2.381.829a49.063,49.063,0,0,0-20.265,7.662c-14.8,10.292-15.248,33.6-11.02,47.917a73.851,73.851,0,0,0,2.894,6.82C222.685,183.259,222.579,182.953,222.579,182.953Z" transform="translate(-216.466 -116.321)" fill="#2e2e2e" opacity="0.3" style="mix-blend-mode:screen;isolation:isolate"/><path d="M258.243,147.89c-1.582,6.852-3.816,11.487-7.114,11.5s-4.809-5.117-4.825-11.451,3.991-11.487,7.286-11.5S259.667,141.731,258.243,147.89Z" transform="translate(-167.009 -81.561)" fill="#714b33"/><path d="M217.632,148.046c1.615,6.839,3.871,11.457,7.169,11.443s4.785-5.153,4.768-11.487-4.043-11.457-7.34-11.443S216.178,141.895,217.632,148.046Z" transform="translate(-217.234 -81.353)" fill="#714b33"/><path d="M296.416,162.194c.06-7.883-.546-15.251-1.648-19.327-1.2-4.416-6.667-19.834-33.6-19.834-.483,0-.957-.03-1.44-.033s-.957.033-1.438.033l-.076,0-.074,0c-.48,0-.955-.03-1.438-.033s-.957.033-1.44.033c-26.937,0-32.406,15.418-33.6,19.834-1.1,4.075-1.708,11.44-1.648,19.324a93.131,93.131,0,0,0,.535,11.018c.57,6.2,1.6,11.918,3.205,15.723,5.835,13.841,22.864,24.76,31.812,24.758h5.3c8.95,0,25.98-10.917,31.812-24.758,1.607-3.805,2.638-9.528,3.208-15.729A92.989,92.989,0,0,0,296.416,162.194Z" transform="translate(-212.451 -104.779)" fill="#875e44"/><path d="M224.011,136.594c2.139-1.989,8.1-2.84,12.125-2.079a3.188,3.188,0,0,1,1.451.895c.816,1.067.376,2.583-.06,2.611-2.335.139-9.82.436-12.024,1.192C223.438,139.922,222.525,137.977,224.011,136.594Z" transform="translate(-206.791 -85.36)" fill="#6f4429"/><path d="M254.353,136.544c-2.149-1.975-8.115-2.788-12.139-2a3.208,3.208,0,0,0-1.446.9c-.807,1.072-.36,2.586.079,2.611,2.332.125,9.82.374,12.03,1.118C254.945,139.866,255.85,137.919,254.353,136.544Z" transform="translate(-177.344 -85.351)" fill="#6f4429"/><g transform="translate(32.825 84.849)"><path d="M257.812,147.428c-8.841,3.388-20.868,3-28.519.237-.409-.147,4.114,10.906,14.245,10.952C253.328,158.664,258.314,147.238,257.812,147.428Z" transform="translate(-229.268 -147.426)" fill="#b33f44"/><path d="M253.911,147.681a61.949,61.949,0,0,1-23.656.295,23.486,23.486,0,0,0,3.74,3.4c1.729.908,4.891,1.364,8.08,1.364a19.93,19.93,0,0,0,7.856-1.495C251.548,150.477,253.911,147.681,253.911,147.681Z" transform="translate(-227.562 -146.986)" fill="#efefef"/></g><path d="M293.837,139.193c-3.241-6.17-9.365-10.666-16.1-13.093s-14.065-2.949-21.241-2.646q-3.134.131-6.258.466a40.754,40.754,0,0,0-9.937,2.09c-6.967,2.594-12.321,8.006-17.242,13.4-2.1,2.3-3.852,16.841-2.946,19.79l.079,3.227s9.782-12.482,16.192-14.108a8.2,8.2,0,0,1-2.553,3.262,25.659,25.659,0,0,0,10.292-4.719,6.321,6.321,0,0,0,.488,4.274,8.392,8.392,0,0,1,2.251-3.917c1.238,3.781,6.517,5.033,8.273,8.623a14.755,14.755,0,0,0-.237-7.692,20.65,20.65,0,0,0,16.8,5.4,13.387,13.387,0,0,0-4.034-4.956,38.262,38.262,0,0,1,19.5,9.2,39.792,39.792,0,0,0-3.388-6c11.031,2.141,11.991,11.053,11.991,11.053C297.615,159.894,295.458,142.281,293.837,139.193Z" transform="translate(-212.683 -104.132)" fill="#e5a475" opacity="0.3" style="mix-blend-mode:multiply;isolation:isolate"/><path d="M294.811,138.235c-3.3-6.173-9.52-10.666-16.367-13.1s-14.294-2.954-21.591-2.654q-3.183.131-6.359.464a42.131,42.131,0,0,0-10.1,2.087c-7.081,2.594-12.521,8-17.523,13.4-2.136,2.305-3.909,16.842-2.987,19.79l.707,5.878s1.418.057,1.528-.431c2-9.065,7.785-14.7,14.3-16.326a8.193,8.193,0,0,1-2.591,3.265,26.275,26.275,0,0,0,10.458-4.716,6.2,6.2,0,0,0,.5,4.272,8.349,8.349,0,0,1,2.286-3.914c1.26,3.781,6.626,5.036,8.413,8.625a14.558,14.558,0,0,0-.243-7.692,21.214,21.214,0,0,0,17.076,5.4,13.439,13.439,0,0,0-4.1-4.959,39.2,39.2,0,0,1,19.82,9.212,39.934,39.934,0,0,0-3.448-6c11.214,2.144,10.355,13.844,10.355,13.844l2.463-.136C299.285,161.587,296.461,141.323,294.811,138.235Z" transform="translate(-213.083 -105.803)" fill="#202020"/><g transform="translate(56.236 59.138)"><path d="M237.85,144.963s2.7-6.416,9.689-6.923a12.983,12.983,0,0,1,8.857,2.466,3.4,3.4,0,0,1,.979,4.337c-.908,1.658-3,3.587-7.744,4.4-9.075,1.533-11.781-4.277-11.781-4.277" transform="translate(-237.85 -138)" fill="#eaeae9"/><path d="M245.337,138.04a10.811,10.811,0,0,0-4.932,1.582,6.533,6.533,0,0,0-1.263,4.354,6.6,6.6,0,0,0,3.606,5.4,15.677,15.677,0,0,0,4.681-.136,18.329,18.329,0,0,0,2.512-.614,6.581,6.581,0,0,0,.123-10.134A13.717,13.717,0,0,0,245.337,138.04Z" transform="translate(-235.648 -138)" fill="#1d71b8"/><path d="M240.173,142.693a3.8,3.8,0,1,1,4.062,3.513,3.784,3.784,0,0,1-4.062-3.513" transform="translate(-233.853 -136.923)" fill="#191615"/><path d="M242.082,140.743a1.972,1.972,0,1,1,2.109,1.828,1.966,1.966,0,0,1-2.109-1.828" transform="translate(-230.547 -136.914)" fill="#eaeae9"/></g><g transform="translate(15.464 59.138)"><path d="M242.835,144.963s-2.7-6.416-9.689-6.923a12.983,12.983,0,0,0-8.857,2.466,3.4,3.4,0,0,0-.979,4.337c.908,1.658,3,3.587,7.744,4.4,9.075,1.533,11.781-4.277,11.781-4.277" transform="translate(-222.903 -138)" fill="#eaeae9"/><path d="M231.122,138.04a10.833,10.833,0,0,1,4.935,1.582,6.56,6.56,0,0,1-2.346,9.755,15.68,15.68,0,0,1-4.681-.136,18.329,18.329,0,0,1-2.512-.614,6.581,6.581,0,0,1-.123-10.134A13.717,13.717,0,0,1,231.122,138.04Z" transform="translate(-220.879 -138)" fill="#1d71b8"/><path d="M232.7,142.693a3.8,3.8,0,1,0-4.059,3.513,3.784,3.784,0,0,0,4.059-3.513" transform="translate(-219.085 -136.923)" fill="#191615"/><path d="M228.476,140.743a1.972,1.972,0,1,0-2.109,1.828,1.966,1.966,0,0,0,2.109-1.828" transform="translate(-220.08 -136.914)" fill="#eaeae9"/></g><path d="M240.725,146.932l2.736,1.323c.532.374,2.5-.644,1.863-1.091l-4.6-3.222a3.633,3.633,0,0,0-4,0l-4.6,3.222c-.636.447,1.331,1.465,1.863,1.091l2.736-1.323A3.633,3.633,0,0,1,240.725,146.932Z" transform="translate(-191.728 -69.636)" fill="#e5a475" opacity="0.4" style="mix-blend-mode:multiply;isolation:isolate"/></g><g transform="translate(13.089)"><path d="M320.067,169.864c0-31.913-23.574-57.78-52.641-57.78s-52.63,25.868-52.63,57.78c0,1.577.068,3.194.185,4.823-.085-1.187-.131-2.365-.164-3.533,3.08-16.942,25.3-23.6,52.262-23.6,29.07,0,52.641,8.786,52.641,27.633Z" transform="translate(-209.048 -112.084)" fill="#0f47e6"/><path d="M215.122,151.163a50.745,50.745,0,0,0,4.662-5.117c2.226-2.831,13.544-14.367,13.544-14.367-2.081-5.99-1.522-10.737.51-14.9A58.972,58.972,0,0,0,215.122,151.163Z" transform="translate(-208.485 -103.972)" fill="#ebebeb" opacity="0.7" style="mix-blend-mode:screen;isolation:isolate"/><g transform="translate(0 28.822)"><g transform="translate(3.864 10.075)"><path d="M224.68,199.074a1.827,1.827,0,0,1-1.869-1.508l-8.694-69.333a1.751,1.751,0,0,1,1.653-1.882,1.843,1.843,0,0,1,2.089,1.5l8.691,69.333a1.745,1.745,0,0,1-1.653,1.877A1.514,1.514,0,0,1,224.68,199.074Z" transform="translate(-214.105 -126.343)" fill="#c5c4c4"/></g><g transform="translate(5.116 10.023)"><path d="M223.887,196.785a.617.617,0,0,1-.627-.5l-8.691-69.33a.583.583,0,0,1,.551-.627.6.6,0,0,1,.693.5l8.7,69.33a.584.584,0,0,1-.556.627Z" transform="translate(-214.564 -126.324)" fill="#ebebeb"/></g><g transform="translate(0 11.557)"><path d="M218.475,171.867l-1.129-.415c-2.583-1.11-4.354-11.547-4.539-13.7-.5-5.821.548-26.672,4.236-30.317a2.045,2.045,0,0,1,2.662-.109,1.589,1.589,0,0,1,.115,2.4c-2.095,2.068-3.928,19.97-3.262,27.761.025.256.055.518.085.786.423-2.3,1.29-3.764,2.608-4.479a3.89,3.89,0,0,1,3.734.033,1.611,1.611,0,0,1,.573,2.349,2.022,2.022,0,0,1-2.583.524c.055.131-1.462,1.549-.666,10.109.24,2.556.161,3.813-.936,4.5Z" transform="translate(-212.689 -126.887)" fill="#c5c4c4"/></g><g transform="translate(1.242 11.503)"><path d="M217.574,169.413l-.483-.136c-1.429-.614-3.456-8.522-3.819-12.761-.573-6.612.794-26.386,3.912-29.463a.673.673,0,0,1,.884-.038.534.534,0,0,1,.046.8c-2.512,2.477-4.247,20.974-3.59,28.612a42.013,42.013,0,0,0,2.583,10.824c-.008-.355-.03-.81-.085-1.4-.657-7.013.046-11.129,2.081-12.24a2.539,2.539,0,0,1,2.411.014.533.533,0,0,1,.2.78.662.662,0,0,1-.867.172,1.2,1.2,0,0,0-1.1.014c-.717.4-2.3,2.294-1.478,11.165.265,2.812-.022,3.235-.4,3.467Z" transform="translate(-213.144 -126.867)" fill="#ebebeb"/></g><g transform="translate(0.056 21.322)"><path d="M253.931,174.32a1.843,1.843,0,0,1-1.855-1.427l-6.754-37.385c-17.935,1.819-28.058,8.4-29.343,9.665a2.034,2.034,0,0,1-2.66.1,1.588,1.588,0,0,1-.117-2.4c1.74-1.708,12.63-8.767,31.512-10.726l-.011-.068,2.043-.12c19.8-1.618,25.592-1.5,25.841-1.489l.065,3.4-23.563,1.364,6.7,37.112a1.722,1.722,0,0,1-1.555,1.95A1.959,1.959,0,0,1,253.931,174.32Z" transform="translate(-212.709 -130.467)" fill="#c5c4c4"/></g><g transform="translate(1.311 21.557)"><path d="M253.144,171.852a.6.6,0,0,1-.619-.477l-6.953-38.438c-18.972,1.669-29.668,8.514-31.307,10.137a.68.68,0,0,1-.889.035.523.523,0,0,1-.038-.8c1.7-1.686,12.714-8.775,32.035-10.494l-.011-.027.7-.033c19.755-1.612,25.508-1.146,25.74-1.127l-.03,1.127-24.935,1.1,6.931,38.339a.578.578,0,0,1-.518.649A.716.716,0,0,1,253.144,171.852Z" transform="translate(-213.169 -130.553)" fill="#ebebeb"/></g><g transform="translate(56.498 19.553)"><path d="M235.281,202.552h-.038a1.786,1.786,0,0,1-1.841-1.735l1.5-69.333a1.957,1.957,0,0,1,1.92-1.667,1.8,1.8,0,0,1,1.844,1.732l-1.5,69.333A1.809,1.809,0,0,1,235.281,202.552Z" transform="translate(-233.401 -129.818)" fill="#c5c4c4"/></g><g transform="translate(57.75 19.501)"><path d="M234.487,200.264h-.011a.6.6,0,0,1-.616-.576l1.5-69.333A.633.633,0,0,1,236,129.8a.6.6,0,0,1,.611.576l-1.5,69.333A.6.6,0,0,1,234.487,200.264Z" transform="translate(-233.86 -129.799)" fill="#ebebeb"/></g><g transform="translate(9.257 59.798)"><path d="M217.972,154.838a1.9,1.9,0,0,1-1.765-1.094,1.652,1.652,0,0,1,1.091-2.193c22.892-7.886,47.7-6.972,48.74-6.923a1.779,1.779,0,0,1,1.795,1.776,1.822,1.822,0,0,1-1.964,1.62c-.243-.014-25.085-.925-47.232,6.7A2.005,2.005,0,0,1,217.972,154.838Z" transform="translate(-216.082 -144.571)" fill="#c5c4c4"/></g><g transform="translate(10.517 60.946)"><path d="M217.173,152.978a.621.621,0,0,1-.586-.366.548.548,0,0,1,.363-.731c22.644-7.8,47.971-6.86,48.236-6.847a.59.59,0,0,1,.6.589.637.637,0,0,1-.657.54c-.248-.011-25.33-.941-47.728,6.776A.768.768,0,0,1,217.173,152.978Z" transform="translate(-216.544 -144.992)" fill="#f4f4f4"/></g><g transform="translate(8.205 30.453)"><path d="M217.585,144.079a1.9,1.9,0,0,1-1.765-1.094,1.658,1.658,0,0,1,1.091-2.2c22.894-7.886,47.712-6.967,48.749-6.92a1.775,1.775,0,0,1,1.795,1.773,1.839,1.839,0,0,1-1.964,1.62c-.256,0-25.1-.919-47.24,6.7A2.078,2.078,0,0,1,217.585,144.079Z" transform="translate(-215.697 -133.814)" fill="#c5c4c4"/></g><g transform="translate(9.463 30.412)"><path d="M216.788,141.783a.632.632,0,0,1-.589-.363.552.552,0,0,1,.366-.731c22.652-7.81,48-6.855,48.244-6.852a.59.59,0,0,1,.6.592.647.647,0,0,1-.66.537c-.237-.008-25.328-.944-47.734,6.779A.664.664,0,0,1,216.788,141.783Z" transform="translate(-216.158 -133.799)" fill="#ebebeb"/></g><g transform="translate(99.783 10.074)"><path d="M251.16,199.074a1.35,1.35,0,0,1-.213-.014,1.75,1.75,0,0,1-1.667-1.877l8.7-69.333a1.872,1.872,0,0,1,2.078-1.5,1.754,1.754,0,0,1,1.664,1.882l-8.7,69.333A1.815,1.815,0,0,1,251.16,199.074Z" transform="translate(-249.269 -126.343)" fill="#c5c4c4"/></g><g transform="translate(101.042 10.021)"><path d="M250.356,196.787l-.068,0a.585.585,0,0,1-.554-.627l8.7-69.33a.621.621,0,0,1,.7-.5.577.577,0,0,1,.546.627l-8.688,69.33A.62.62,0,0,1,250.356,196.787Z" transform="translate(-249.731 -126.323)" fill="#ebebeb"/></g><g transform="translate(104.864 11.553)"><path d="M256.744,171.877l-1.045-.567c-1.1-.682-1.176-1.939-.944-4.493.835-8.955-.857-10.1-.876-10.106a1.849,1.849,0,0,1-2.48-.521,1.647,1.647,0,0,1,.687-2.357,3.9,3.9,0,0,1,3.737-.033c1.312.715,2.174,2.177,2.608,4.476.03-.265.052-.527.076-.783.671-7.791-1.162-25.69-3.265-27.761a1.588,1.588,0,0,1,.115-2.4,2.024,2.024,0,0,1,2.66.106c3.707,3.647,4.752,24.5,4.239,30.32-.183,2.15-1.953,12.586-4.534,13.7Z" transform="translate(-251.132 -126.885)" fill="#c5c4c4"/></g><g transform="translate(106.209 11.504)"><path d="M256.006,169.418l-.447-.194c-.371-.229-.666-.652-.4-3.467.829-8.9-.761-10.78-1.487-11.176a1.159,1.159,0,0,0-1.08,0,.665.665,0,0,1-.87-.172.535.535,0,0,1,.2-.78,2.543,2.543,0,0,1,2.406-.014c2.032,1.108,2.736,5.226,2.09,12.24-.057.589-.087,1.047-.1,1.4a42.3,42.3,0,0,0,2.589-10.824c.66-7.635-1.072-26.135-3.59-28.612a.53.53,0,0,1,.041-.8.677.677,0,0,1,.889.035c3.126,3.077,4.49,22.854,3.917,29.463-.371,4.239-2.4,12.147-3.833,12.761Z" transform="translate(-251.625 -126.867)" fill="#ebebeb"/></g><g transform="translate(60.034 21.324)"><path d="M249.49,174.319a2.035,2.035,0,0,1-.308-.025,1.735,1.735,0,0,1-1.558-1.95l6.727-37.136-19.635-1.345-.019-3.388c.933-.065,7.177.278,22,1.489l2.032.139-.011.046c18.9,1.959,29.779,9.018,31.5,10.726a1.587,1.587,0,0,1-.115,2.4,2.038,2.038,0,0,1-2.662-.109c-1.285-1.263-11.391-7.84-29.332-9.662l-6.762,37.385A1.842,1.842,0,0,1,249.49,174.319Z" transform="translate(-234.697 -130.467)" fill="#c5c4c4"/></g><g transform="translate(59.829 21.28)"><path d="M249.619,172.028a.617.617,0,0,1-.616-.657l6.931-38.353-21.312-1.435v-1.129c.09,0,2.338-.134,22.1,1.479l.679.049v.011c19.335,1.719,30.333,8.811,32.035,10.494a.525.525,0,0,1-.049.8.669.669,0,0,1-.881-.035c-1.361-1.348-12.218-8.453-31.307-10.137l-6.961,38.438A.607.607,0,0,1,249.619,172.028Z" transform="translate(-234.622 -130.451)" fill="#ebebeb"/></g><g transform="translate(55.095 59.8)"><path d="M282.763,154.836a2.065,2.065,0,0,1-.674-.112c-22.142-7.627-46.981-6.716-47.226-6.7a1.873,1.873,0,0,1-1.975-1.62,1.786,1.786,0,0,1,1.8-1.776c1.037-.044,25.843-.963,48.743,6.923a1.656,1.656,0,0,1,1.091,2.193A1.9,1.9,0,0,1,282.763,154.836Z" transform="translate(-232.886 -144.572)" fill="#c5c4c4"/></g><g transform="translate(56.359 60.947)"><path d="M281.963,152.977a.744.744,0,0,1-.226-.038c-22.4-7.717-47.5-6.787-47.74-6.776a.617.617,0,0,1-.646-.54.589.589,0,0,1,.595-.589c.254-.011,25.587-.955,48.241,6.847a.554.554,0,0,1,.363.731A.623.623,0,0,1,281.963,152.977Z" transform="translate(-233.35 -144.993)" fill="#f4f4f4"/></g><g transform="translate(56.147 30.455)"><path d="M283.15,144.078a2.157,2.157,0,0,1-.677-.112c-22.142-7.63-46.981-6.71-47.235-6.7a1.834,1.834,0,0,1-1.964-1.62,1.778,1.778,0,0,1,1.795-1.773c1.045-.041,25.849-.966,48.751,6.92a1.657,1.657,0,0,1,1.083,2.2A1.892,1.892,0,0,1,283.15,144.078Z" transform="translate(-233.272 -133.815)" fill="#c5c4c4"/></g><g transform="translate(57.403 30.41)"><path d="M282.354,141.785a.6.6,0,0,1-.226-.038c-22.4-7.72-47.486-6.779-47.739-6.779-.363-.038-.641-.226-.655-.537a.592.592,0,0,1,.595-.592c.265-.008,25.595-.957,48.249,6.852a.551.551,0,0,1,.363.731A.648.648,0,0,1,282.354,141.785Z" transform="translate(-233.733 -133.798)" fill="#ebebeb"/></g><g transform="translate(3.861 0.052)"><path d="M321.262,142.309a1.991,1.991,0,0,1-1.41-.565c-.155-.158-16.009-15.679-50.017-15.679-.155,0-.3,0-.453,0-36.315.155-49.649,12.556-51.954,15.041a2.033,2.033,0,0,1-2.651.213,1.591,1.591,0,0,1-.235-2.4c2.491-2.69,16.844-16.1,54.821-16.258h.486c35.8,0,52.131,16.121,52.813,16.811a1.582,1.582,0,0,1-.147,2.4A1.985,1.985,0,0,1,321.262,142.309Z" transform="translate(-214.104 -122.669)" fill="#c5c4c4"/></g><g transform="translate(5.117)"><path d="M320.467,140.026a.655.655,0,0,1-.472-.188c-.156-.161-16.31-16.053-50.947-16.053h-.472c-36.861.153-50.535,12.894-52.9,15.445a.674.674,0,0,1-.878.071.529.529,0,0,1-.087-.8c2.436-2.621,16.449-15.7,53.869-15.854h.472c35.249,0,51.716,16.269,51.883,16.435a.528.528,0,0,1-.046.8A.675.675,0,0,1,320.467,140.026Z" transform="translate(-214.565 -122.65)" fill="#ebebeb"/></g><g transform="translate(12.308 77.583)"><path d="M264.632,165.223c-.551,0-1.077,0-1.585-.008-15.027-.145-38.68-5.966-45.2-11.119a1.6,1.6,0,0,1-.177-2.419,2.06,2.06,0,0,1,2.684-.161c5.39,4.266,27.5,10.123,42.728,10.273,9.8.076,33.56-.7,42.379-10.09a2.041,2.041,0,0,1,2.676-.2,1.6,1.6,0,0,1,.224,2.417C299.24,163.635,277.7,165.223,264.632,165.223Z" transform="translate(-217.201 -151.092)" fill="#c5c4c4"/></g><g transform="translate(13.583 78.733)"><path d="M263.83,163.346c-.54,0-1.064,0-1.577-.005-14.8-.145-38.028-5.816-44.371-10.838a.532.532,0,0,1-.063-.8.69.69,0,0,1,.889-.052c6.058,4.793,29.258,10.415,43.56,10.554,9.967.136,34.2-.726,43.359-10.494a.672.672,0,0,1,.881-.065.531.531,0,0,1,.082.8C297.786,161.816,276.678,163.346,263.83,163.346Z" transform="translate(-217.668 -151.513)" fill="#f4f4f4"/></g></g><g transform="translate(29.482 1.504)"><path d="M223.5,123.439c13.156-4.236,34.842,5.041,38.555,2.059,4.441-3.563-5.677-11.266-8.909-12.163C238.95,109.386,223.5,123.439,223.5,123.439Z" transform="translate(-223.497 -112.635)" fill="#f0f0f0"/></g></g><path d="M251.792,170.4c-14.136,6.042-31.2,49.859-31.2,49.859s11.74-68.362,20.9-56.861C245.261,168.129,254.659,169.171,251.792,170.4Z" transform="translate(-185.947 -25.683)" fill="#0f47e6"/><g transform="translate(50.827 118.537)"><path d="M228.263,157.017c-.753,3.333.311,8.2-.742,10.423s-2.06,3.68,1.38,6.74,8.584,8,14.883,9.288,17.158-1.609,19.869-4.9,8.658-7.346,8.164-9.43-3.093-3.093-3.44-5.854-.366-7.054-1.776-7.7-8.647,4.618-15.8,4.886S228.263,157.017,228.263,157.017Z" transform="translate(-226.523 -155.539)" fill="#0f47e6"/><g transform="translate(0.015 12.048)" opacity="0.3" style="mix-blend-mode:multiply;isolation:isolate"><path d="M249.814,161.748A97.992,97.992,0,0,1,242,171.612a11.419,11.419,0,0,1-4.155,2.8c2.832-.941,5.183-2.177,6.255-3.475,2.711-3.29,8.658-7.346,8.164-9.43a4.076,4.076,0,0,0-.821-1.555A9.565,9.565,0,0,0,249.814,161.748Z" transform="translate(-206.982 -159.956)" fill="#0f47e6"/><path d="M248.625,174.227c-5.6-.458-10.308-3.71-14.708-6.9a32.622,32.622,0,0,1-7.234-6.7c-.4,1.348-.139,2.69,2.21,4.779,3.44,3.061,8.584,8,14.883,9.288a27.354,27.354,0,0,0,11.315-.742A22.686,22.686,0,0,1,248.625,174.227Z" transform="translate(-226.529 -158.807)" fill="#0f47e6"/></g><path d="M227.095,165.212c-.109.235-.218.456-.325.676,4.16,4.146,8.852,4.842,14.91,4.61,6.4-.245,12.823-.728,18.743-2.834,3.792-1.35,6.836-2.42,8.287-4.6a4.663,4.663,0,0,1-.758-2c-.158-1.258-.251-2.826-.436-4.231-1.2.51-2.1,1.68-3.358,2.392-1.879,1.058-4.086,1.372-6.187,2.092a34.436,34.436,0,0,1-14.356,2.109A39.286,39.286,0,0,1,231.3,159.7a16.566,16.566,0,0,1-3.732-2.455C227.463,160.2,227.908,163.49,227.095,165.212Z" transform="translate(-226.097 -153.311)" fill="#0f47e6" opacity="0.3" style="mix-blend-mode:multiply;isolation:isolate"/></g><g transform="translate(36.19 168.971)"><path d="M292.159,256.44c-5.481,4.533-35.95-.184-54.093-22.1s-17.286-52.57-11.616-57.265c4.132-3.421,34.912,1.287,53.056,23.2S297.25,252.225,292.159,256.44Z" transform="translate(-222.737 -175.615)" fill="#a14122"/><path d="M292.159,255.756c-5.481,4.533-35.95-.184-54.093-22.1s-17.286-52.57-11.616-57.265a95.589,95.589,0,0,0,20.449,47.2C265.048,245.5,292.159,255.756,292.159,255.756Z" transform="translate(-222.737 -174.931)" fill="#82371e" opacity="0.2" style="mix-blend-mode:multiply;isolation:isolate"/><g transform="translate(2.05 0.996)" opacity="0.6" style="mix-blend-mode:multiply;isolation:isolate"><path d="M290.678,256.268l-.592.28a4.994,4.994,0,0,1-1.863.305,26.074,26.074,0,0,1-7-1.427,64.527,64.527,0,0,1-10.189-4.434,89.2,89.2,0,0,1-12.17-7.733,86.529,86.529,0,0,1-12.631-11.485,91,91,0,0,1-11.214-15.389,94.193,94.193,0,0,1-8.341-18.539,67.364,67.364,0,0,1-2.63-10.133,36.075,36.075,0,0,1-.57-5.256,10.042,10.042,0,0,1,.9-5.278c.492-1.047,1.751-.947,2.571-.925a17.78,17.78,0,0,1,2.648.427,40.212,40.212,0,0,1,5.06,1.58,78.3,78.3,0,0,1,9.522,4.424,98.177,98.177,0,0,1,16.7,11.678,92.3,92.3,0,0,1,22.153,28.344A85.372,85.372,0,0,1,291.3,246.8a25.411,25.411,0,0,1,.327,7.138A3.614,3.614,0,0,1,290.678,256.268Zm-.056-.081a3.443,3.443,0,0,0,.866-2.271,25.034,25.034,0,0,0-.452-7.076,82.8,82.8,0,0,0-8.693-23.77,98.921,98.921,0,0,0-22.082-28,100.011,100.011,0,0,0-16.511-11.625,77.889,77.889,0,0,0-9.35-4.521,39.674,39.674,0,0,0-4.951-1.633,17.543,17.543,0,0,0-2.542-.452c-.795-.044-1.807-.1-2.088.661a9.689,9.689,0,0,0-.851,4.945,35.494,35.494,0,0,0,.508,5.2,66.5,66.5,0,0,0,2.5,10.1,94.319,94.319,0,0,0,19.851,33.479A112.255,112.255,0,0,0,259.3,242.693a87.792,87.792,0,0,0,11.949,7.9,64.03,64.03,0,0,0,10.061,4.577,25.649,25.649,0,0,0,6.917,1.539,4.8,4.8,0,0,0,1.816-.265C290.426,256.271,290.622,256.187,290.622,256.187Z" transform="translate(-223.471 -176.242)" fill="#82371e"/></g><image width="72.536" height="83.005" opacity="0.3" xlink:href="Group%20394-image.png" style="mix-blend-mode:screen;isolation:isolate"/></g><g transform="translate(10.471 186.476)"><path d="M212.5,182.526c-1.618,14.61-.5,25.033,1.732,27.458s32.4,7.769,32.4,7.769l5.453-10.445s-4.836-2.193-11.386-6.083c-3.314-1.969-7.99-4.381-11.031-4.55l3.928-13.41S213.057,177.447,212.5,182.526Z" transform="translate(-211.729 -180.445)" fill="#875e44"/><path d="M250.315,212.9c1.241-1.555-1.691-3.287-5.314-5.93-1.847-1.35-2.147-1.814-2.076-2.1.123-.475,2.422.66,4.834,1.967,4.261,2.3,6.675,2.932,6.364.319-.194-1.618-9.752-6.148-9.629-6.926.131-.851,8.587,2.807,9.921.889,1.047-1.506-.106-2.542-5.5-4.149-2.534-.753-6.454-1.929-6.855-2.1-2.182-.947.666-1.271,1.1-1.358,7.2-1.427,7.259-5.75,4.517-4.588-3.358,1.427-7.335-.3-11.181.191-2.548.327-4.858,2.976-6.514,3.89a44.577,44.577,0,0,1-5.008-.818l-.445,11.263s8.238,4.474,10.947,6.293c2.3,1.549,6.544,6.214,8.162,6.143,2.046-.093,1.418-.908-.747-3.532-1.427-1.729-2.223-2.965-2.139-3.473C240.806,208.542,248.8,214.8,250.315,212.9Z" transform="translate(-189.622 -166.139)" fill="#875e44"/><g transform="translate(1.998 22.602)" opacity="0.3" style="mix-blend-mode:multiply;isolation:isolate"><path d="M232.929,193.5c-.368.074-2.458.325-1.738.979-1.282-.5-.636-1.3-.128-1.413a21.138,21.138,0,0,0,7.338-4.334C240.032,188.889,239.143,192.269,232.929,193.5Z" transform="translate(-181.395 -188.731)" fill="#e5a475"/><path d="M240.222,200.169a1.48,1.48,0,0,1-.109.232c-1.517,1.9-9.509-4.356-9.569-4.021a2.24,2.24,0,0,0,.469,1.214c-.69-1.118-.8-1.868-.161-1.568,1.244.587,6.746,3.366,8.039,3.961A3.2,3.2,0,0,0,240.222,200.169Z" transform="translate(-181.418 -176.243)" fill="#e5a475"/><path d="M221.952,191.77c5.578,2.864,25.325,5.423,26.733,7.531s13.282,11.31,15.456,12.938a5.48,5.48,0,0,0,1.386.756,2.181,2.181,0,0,1-1.053.221c-1.618.074-5.857-4.591-8.162-6.14-2.709-1.819-10.947-6.293-10.947-6.293s-30.175-5.336-32.4-7.769S216.374,188.909,221.952,191.77Z" transform="translate(-212.462 -186.077)" fill="#e5a475"/><path d="M242.383,194.31c-1.3,1.877-9.392-1.568-9.88-.927-.477-.289-.824-.5-.949-.584-.906-.625,7.837,1.173,10.911.81.087-.011.145-.027.224-.041A1.774,1.774,0,0,1,242.383,194.31Z" transform="translate(-179.588 -181.932)" fill="#e5a475"/><path d="M241.7,198.875a2.357,2.357,0,0,0,.737.139c-.731.848-2.892.068-6.11-1.672a27.553,27.553,0,0,0-4.214-2c-.693-.608-1.067-1.031-.938-1.113C231.589,193.971,239.693,198.174,241.7,198.875Z" transform="translate(-180.183 -179.246)" fill="#e5a475"/><path d="M230.814,196.811l.068.1C230.855,196.874,230.839,196.844,230.814,196.811Z" transform="translate(-180.753 -174.77)" fill="#e5a475"/></g></g><path d="M236.343,190.223c-5.131-2.179-23.579-7.834-25.857-13.492l.123,3.276c-.142,1.522,1.746,7.856,1.746,7.856s17.283,8.666,22.174,10.169C234.529,198.032,238.449,191.117,236.343,190.223Z" transform="translate(-203.406 -0.386)" fill="#0f47e6"/><path d="M263.04,172.305c-.295-.488-.586-5.764-1.039-6.116-2.984-2.327-6.58-4.88-15.109-7.815-18.931-6.511-31.5,4.064-34.409,10.374-2.324,5.041-3.162,10.232-4.285,15.5-.758,3.579-.055,19.34,1.489,22.826,2.72,6.14,9.34,10.131,14.858,13.437,1.776,1.064,17.783,10.407,17.99,9.7C246.182,217.753,265.476,176.332,263.04,172.305Z" transform="translate(-207.891 -35.634)" fill="#d8d8d8"/></g><g transform="matrix(0.999, -0.035, 0.035, 0.999, 1047.449, 184.387)"><path d="M30.768.326C26.985-2.2,7.153,10.188,7.371,28.445,7.594,47.359,8.9,53.311,10.583,57.934s1.683,9.253-1.26,21.025-2.1,18.925-1.68,34.9-3.788,35.321-6.305,40.788-1.685,7.99,4.2,16.4,13.035-13.035,12.193-15.558,1.683-7.571,4.624-16.4,5.892-20.606,10.934-35.322,3.365-30.278,2.946-40.788.84-9.672,2.1-18.925S42.082,27.6,42.5,14.172C42.5,14.172,34.552,2.849,30.768.326Z" transform="translate(78.315 301.423)" fill="#e5a475"/><path d="M33.62,3.147c-2.978,1.582-5.927,1.432-9.159.956C20.984,3.592,15.979.836,11.694,0c.026,3.416-.669,7.8-2.371,14.617-2.944,11.774-2.1,18.925-1.68,34.9S3.855,84.841,1.338,90.308s-1.685,7.99,4.2,16.4S18.574,93.675,17.732,91.151s1.683-7.571,4.624-16.4S28.247,54.144,33.29,39.428C38.056,25.528,36.833,10.938,36.326.5A7.032,7.032,0,0,1,33.62,3.147Z" transform="translate(78.315 365.766)" fill="#0f47e6"/><path d="M11.292,5.762c-4.625,14.716-4.451,32-4.451,42.514S7.26,65.515,5.579,68.463,3.474,75.61,1.38,83.6,2.636,108.832,3.9,117.66s2.224,18.981,4.748,35.383S6.42,170.222,1.38,174.43s4.607,14.557,14.7,3.626,8.5-4.468,8.916-10.354-.84-22.71,0-31.541,4.186-21.8,5.244-31.052a120.985,120.985,0,0,0-.271-26.556c-.842-5.89.842-7.149,5.886-21.025s6.307-23.55,7.99-38.268c0,0-20.183-10.093-21.867-10.093S15.917-8.956,11.292,5.762Z" transform="translate(22.347 297.205)" fill="#e5a475"/><path d="M32.325,0c-2.6.956-5.114,2-7.241,2.564C17.89,4.471,12.4,4.3,5.988.487c-.71,2.643-1.371,6.038-2.673,11C1.22,19.477,4.572,36.72,5.831,45.548s2.189,18.2,3.607,34.732c.883,10.286-2.9,13.869-7.943,18.077s3.213,16.249,16.52,9.6c8.3-4.15,8.5-6.48,8.916-12.366s-.84-22.71,0-31.541S31.117,42.251,32.174,33A120.992,120.992,0,0,0,31.9,6.442,13.705,13.705,0,0,1,32.325,0Z" transform="translate(20.411 369.317)" fill="#0f47e6"/><path d="M7.366,6.138C7.59,25.051,8.9,31,10.579,35.627s1.683,9.253-1.261,21.025-2.1,18.925-1.68,34.9-3.788,35.321-6.305,40.788c-2.292,4.982-1.792,7.538,2.771,14.316a14.107,14.107,0,0,0,2.416-.385c3.81-.934,4.631-1.911,4.391-5.841-.182-2.967-.892-38.31-.6-44.521C10.8,85.577,8.74,71.254,13.354,62.063,16.176,56.436,19,51.81,17.324,45.49c-.644-2.429-2.3-4.907,1.358-5.4,2.095-.28,4.858,1.078,7.382.964-.092-1.993-2.6-2.512-4.068-3.575-1.854-1.34-6.66-4.982-6.825-18.158-.062-5.1,21.668-.814,24.918-7.524C35.018,1.595,7.224-5.775,7.366,6.138Z" transform="translate(78.319 323.731)" fill="#e5a475" opacity="0.3" style="mix-blend-mode:multiply;isolation:isolate"/><g transform="translate(27.858 315.088)"><path d="M10.762,163.7a14.367,14.367,0,0,1-3.369,2.745c1.507-2.039,2.9-4.167,4.233-6.194,2.97-4.53,2.144-12.052,1.623-17.251-.53-5.307,5.822-76.787,1.755-80.165-2.7-2.241-5.92-1.96-7.878-5.321,3.239-3.218,15.979-2.784,14.857-10.752-2.044-.423-10.468,5.83-9.352.007,4.657-1.89,9.873-1.46,11.447-7.81,1.294-5.223,1.477-10.491,2.333-12.939C27.274,23.552-.829,18.7.019,16.11.543,14.515,32.482,2.786,34.056,0c1.683.83,2.775,1.377,2.775,1.377-1.683,14.718-2.944,24.392-7.99,38.268s-6.728,15.135-5.886,21.025a121,121,0,0,1,.271,26.556c-1.058,9.253-4.4,22.22-5.244,31.052s.421,25.651,0,31.541S20.852,152.758,10.762,163.7Z" transform="translate(1.503)" fill="#e5a475" opacity="0.3" style="mix-blend-mode:multiply;isolation:isolate"/><path d="M9.311,16.368c-3.017.2-4.65.133-6.976-1.708C1.627,14.1.849,13.123,0,12.323c.022-.043.043-.085.068-.126C1.274,10.08,1.4,6.008,1.371,0c.419,2.322.526,4.868.954,6.9C3.329,11.671,5.743,13.732,9.311,16.368Z" transform="translate(0 38.383)" fill="#e5a475" opacity="0.3" style="mix-blend-mode:multiply;isolation:isolate"/></g><g transform="translate(23.056 373.792)"><path d="M4.254,3.686c3.8,2.322,8.471,2.625,13.9.9a27.944,27.944,0,0,0,6.474-2.749A26.245,26.245,0,0,1,29.906.023c.049,1.315.156,2.692.177,4.167a22.332,22.332,0,0,0-3.339,1.1,32.007,32.007,0,0,1-7.367,3.16,25.527,25.527,0,0,1-7.716,1.274A17.982,17.982,0,0,1,2.138,7.145,15.4,15.4,0,0,1,0,5.555,35.408,35.408,0,0,1,.316,0,15.99,15.99,0,0,0,4.254,3.686Z" transform="translate(0 8.798)" fill="#d8d8d8"/><path d="M28.025,1.967c.1.72.192,1.619.271,2.657C23.263,6.356,18.062,8.035,12.507,8.4c-1.473.1-6.576.248-10.222-1.856A12.09,12.09,0,0,1,0,4.793C.455,2.982.821,1.4,1.144,0c.165.225.323.43.455.582A11.406,11.406,0,0,0,4.312,3.03c2.112,1.219,5.482,1.482,7.93,1.323C17.593,4,22.594,2.307,27.869.485,27.9.952,27.948,1.437,28.025,1.967Z" transform="translate(1.234)" fill="#d8d8d8"/></g><g transform="translate(87.54 367.09)"><path d="M25.48,4.642c.064,1.323.12,2.692.163,4.094A52.066,52.066,0,0,1,12.864,9.91C11.387,9.832,6.3,9.369,2.936,6.846c-.319-.237-.793-.541-1.321-.885C1.026,5.58.492,5.227,0,4.887A41.649,41.649,0,0,0,.547,0C.641.116.736.235.8.331A18.111,18.111,0,0,0,3.821,2.557c.618.4,1.174.767,1.548,1.045,1.948,1.464,5.262,2.127,7.716,2.26A49.19,49.19,0,0,0,25.48,4.642Z" transform="translate(1.899)" fill="#d8d8d8"/><path d="M21.1,11.675c-.434.075-.857.152-1.259.227a22.293,22.293,0,0,1-17.5-4.331A15.913,15.913,0,0,1,0,5.266c.034-.143.062-.276.1-.417C.539,3.077.913,1.471,1.223,0A16.576,16.576,0,0,0,4.855,4.389a18.106,18.106,0,0,0,14.233,3.53c.415-.077.849-.156,1.294-.237a28.8,28.8,0,0,0,6.4-1.64c.222-.1.515-.227.84-.364Q27.6,7.856,27.5,10.1A37.855,37.855,0,0,1,21.1,11.675Z" transform="translate(0 8.443)" fill="#d8d8d8"/></g><g transform="translate(61.153 74.202)"><path d="M.406,24.514c2.435-1.039,8.772-2.63,9.794-4.361,2.431-4.12,1.167-16.422,1.033-18.447L37.493,0c-.047,1.924-.445,18.652,0,21.668s12.689,5.144,11.351,8.885-18.981,7.534-30.5,7.639S-2.031,25.553.406,24.514Z" fill="#e5a475"/><path d="M26.971,0,.712,1.706C.84,3.632,1.982,14.846,0,19.481A17.509,17.509,0,0,0,7.71,21.3c5.982-.054,13.247-2.651,19.054-5.655C26.742,9.6,26.939,1.319,26.971,0Z" transform="translate(10.521)" fill="#e5a475" opacity="0.3" style="mix-blend-mode:multiply;isolation:isolate"/></g><g transform="translate(126.432 136.492)"><path d="M14.283,0c5.6,8.941,10.149,38.977,9.612,48.051s-1.09,18.156,2.39,22.962,1.075,48.575,1.606,54.454c.445,4.9,2.41,17.591.81,20.011s-1.355,7.889-4.813,8.956a43.081,43.081,0,0,1-4.943,4.808c-2.132,1.6-8.928,3.605-4.661-1.734s9.467-11.212,8.2-14.419-1.8-10.142-3.934-4.8S15.434,153.77,12.986,151.1s.31-6.938,0-11.207-.312-9.634,2.36-12.3,2.666-2.123,3.205-6.927S5.749,76.886,6.011,72.614,3.6,39.275.4,28.831,14.283,0,14.283,0Z" fill="#e5a475"/><g transform="translate(0.029 18.878)" opacity="0.3" style="mix-blend-mode:multiply;isolation:isolate"><path d="M0,7.9C3.853,6.172,8.361,4.964,7.707,0l2.7,2.7c1.659,2.876,3.6,47.26,2.7,49.665-.96,2.553-2.209,4.015-1.708,7.1C12.233,64.533,14.679,70.051,16.49,75c3.483,9.5,8.329,22.32,2.7,32.112-1.541,2.685-4.141,4.289-6.068,6.5a8.906,8.906,0,0,1,2.193-4.9c2.672-2.657,2.666-2.123,3.205-6.927S5.721,58.008,5.982,53.736,3.568,20.4.37,9.954A9.117,9.117,0,0,1,0,7.9Z" fill="#e5a475"/><path d="M9.582,7.278C8.782,5.245,8.271,1.715,7.461.767A4.978,4.978,0,0,1,7.664,0c3.119,1.819,3.541,6.416,3.724,9.764.239,4.408-3.987,6.493-3.329,10.752a3.1,3.1,0,0,1,.9.271,28.8,28.8,0,0,1-2.921,2.645c-2.132,1.6-8.928,3.605-4.661-1.734S10.847,10.485,9.582,7.278Z" transform="translate(12.874 116.932)" fill="#e5a475"/></g></g><g transform="translate(8.734 136.492)"><path d="M15.033,0c-5.6,8.941-10.147,38.977-9.61,48.051s1.09,18.156-2.392,22.962-1.075,48.575-1.606,54.454c-.443,4.9-2.409,17.591-.808,20.011s1.353,7.889,4.813,8.956a42.911,42.911,0,0,0,4.943,4.808c2.132,1.6,8.928,3.605,4.659-1.734s-9.465-11.212-8.2-14.419,1.8-10.142,3.936-4.8S13.882,153.77,16.33,151.1s-.308-6.938,0-11.207.314-9.634-2.36-12.3-2.664-2.123-3.2-6.927,12.8-43.781,12.541-48.053,2.412-33.339,5.612-43.783S15.033,0,15.033,0Z" fill="#e5a475"/><g transform="translate(5.017 18.878)" opacity="0.3" style="mix-blend-mode:multiply;isolation:isolate"><path d="M21.768,7.9C17.915,6.172,13.406,4.964,14.06,0l-2.7,2.7C9.7,5.578,7.753,49.962,8.654,52.367c.958,2.553,2.209,4.015,1.706,7.1C9.536,64.533,7.089,70.051,5.276,75c-3.481,9.5-8.329,22.32-2.7,32.112,1.54,2.685,4.141,4.289,6.07,6.5a8.921,8.921,0,0,0-2.194-4.9c-2.67-2.657-2.664-2.123-3.2-6.927s12.8-43.781,12.541-48.053S18.2,20.4,21.4,9.954A9.337,9.337,0,0,0,21.768,7.9Z" transform="translate(2.504)" fill="#e5a475"/><path d="M1.813,7.278c.8-2.033,1.313-5.563,2.123-6.512A4.926,4.926,0,0,0,3.732,0C.613,1.819.19,6.416.01,9.764c-.239,4.408,3.985,6.493,3.327,10.752a3.117,3.117,0,0,0-.9.271,28.634,28.634,0,0,0,2.923,2.645c2.132,1.6,8.928,3.605,4.659-1.734S.551,10.485,1.813,7.278Z" transform="translate(0 116.932)" fill="#e5a475"/></g></g><g transform="translate(25.941 226.745)"><path d="M93.25,11.311a120.128,120.128,0,0,0,3.385,11.815c1.353,3.9,1.721,8.169,2.254,12.244,1.614,12.379,4.8,73.538,4.8,73.538s-12.244-.374-15.616.1c-7.5,1.052-30.936-.586-30.936-.586-.969-6.809-.643-19.041-1.413-28.219-.329-3.9-1.283-12.315-1.283-12.315s-9.181,34.723-10.878,41.023c-10.337.451-36.134-4.5-43.523-4.723C-.627,90.5,6.642,45.557,10.9,26.715c1.509-6.664,4.738-10.587,6.709-17.4C19.47,2.894,27.129,1.862,33.3.9,45.6-1.016,59.771.048,71.169,4.829,79.928,8.5,81.906,8.54,90.849,10.1c.562.1,1.037.293,1.6.411Z" fill="#0f47e6"/><path d="M38.978,37.817l.366-36.354L38.251,0l-2.2,25.54-6.506,1.221C27.556,45.487,12.035,78.357,0,91.924c7.243.958,14.258,1.713,18.573,1.526,1.7-6.3,10.878-41.023,10.878-41.023s.954,8.411,1.283,12.315c.77,9.178.443,21.41,1.413,28.219,0,0,7.6.532,15.534.795C45.727,84.568,40.158,57.176,38.978,37.817Z" transform="translate(24.993 15.459)" fill="#800606" opacity="0.2" style="mix-blend-mode:multiply;isolation:isolate"/></g><path d="M14.765,0S2.652,14.412,1.055,18.818s-1.206,15.214,0,22.126-.006,11.509.526,13.884,3.786,2.781,12.281,2.829a25.266,25.266,0,0,0,13.861-3.6C27.967,54.056,33.171,2.375,14.765,0Z" transform="translate(122.577 113.938)" fill="#d8d8d8"/><path d="M4.266,35.217c-.532-2.373.682-6.972-.526-13.882C2.6,14.8,2.192,4.8,3.5,0a23.309,23.309,0,0,0-2.44,4.24c-1.6,4.4-1.206,15.214,0,22.126S1.05,37.876,1.581,40.25s3.786,2.781,12.281,2.829a26.954,26.954,0,0,0,10.515-1.922c-2.115-.141-4.453-.244-6.9-.259C8.98,40.85,4.8,37.592,4.266,35.217Z" transform="translate(122.577 128.515)" fill="#d8d8d8" opacity="0.3" style="mix-blend-mode:multiply;isolation:isolate"/><path d="M94.924,8.733C88.117,5.928,73.532-.591,73.555.641c.051,2.946-3.85,6.735-7.455,9.138s-16.122,4.349-24.493-.4C32.232,4.057,32.365-.375,31.163.025S15.009,4.816,10.619,7.11C4.99,10.054.409,11.735.009,14.136S12.343,44.073,12.343,56.087s.934,78.491-1.869,84.5c0,0,14.237,11.041,32.452,8.3,22.228-3.35,44.694-2.514,47.5-7.32s4.011-100.292,6.412-106.7,10.936-18.744,10.112-19.618C105.689,13.9,101.732,11.536,94.924,8.733Z" transform="translate(30.396 98.691)" fill="#d8d8d8"/><path d="M21.119,0C5.7,2.035,0,55.807,0,55.807c.244.043,2.743,3.194,11.4,4.7a46.166,46.166,0,0,0,16.127,0s4.725-32.754,3.866-37.38S21.119,0,21.119,0Z" transform="translate(13.752 108.904)" fill="#d8d8d8"/><path d="M28.392,0c-1.672,10.438-8.727,35.088-8.727,35.088S8.971,38.935,0,37.372a26.118,26.118,0,0,0,9.433,3.246,46.167,46.167,0,0,0,16.127,0s4.725-32.754,3.866-37.38A21.314,21.314,0,0,0,28.392,0Z" transform="translate(15.715 128.795)" fill="#d8d8d8" opacity="0.3" style="mix-blend-mode:multiply;isolation:isolate"/><path d="M49.419,13.572c-5.384,4.222-19.037,5.013-26.752,2.854C14.29,14.079,7.141,7.16,5.2,3.066,4.847,2.313,4.278,1.03,3.8,0,2.6.466,1.289.682,0,1.208.421,2.1,1.018,3.7,1.539,4.8,4.2,10.423,12.424,17.767,21.576,20.33a42.928,42.928,0,0,0,11.051,1.3c7.113,0,14.865-1.394,19.293-4.868,4.118-3.226,8.223-9.313,10.733-14.151-1.251-.637-2.681-1-3.829-1.571C56.665,5.193,53.146,10.653,49.419,13.572Z" transform="translate(52.246 100.418)" fill="#0f47e6"/><g transform="translate(61.051 98.206)"><path d="M24.877,71.207l-.06,0C21.186,70.91,4.921,17.129.021.654A.507.507,0,0,1,.363.023.5.5,0,0,1,.995.365C8.681,26.222,21.755,67.389,24.78,70.091c2.6-6.05,17.476-68.447,17.626-69.084a.507.507,0,1,1,.986.235c-.626,2.632-15.38,64.513-17.769,69.446A.813.813,0,0,1,24.877,71.207Z" fill="#3c3c3b"/></g><g transform="translate(83.991 167.939)"><path d="M1.792,4.131A1.943,1.943,0,0,0,3.585,2.067,1.949,1.949,0,0,0,1.612,0l.18.342a1.607,1.607,0,0,1,1.45,1.721,1.606,1.606,0,0,1-1.45,1.721A1.6,1.6,0,0,1,.342,2.067,1.626,1.626,0,0,1,.851.755L.658.473A1.964,1.964,0,0,0,0,2.067,1.944,1.944,0,0,0,1.792,4.131Z" fill="#b2b2b2"/></g><g transform="translate(83.064 170.683)"><path d="M0,1.381a.547.547,0,0,0,.547.547h0A.549.549,0,0,0,1.1,1.381V.547A.549.549,0,0,0,.547,0h0A.547.547,0,0,0,0,.547Z" transform="translate(2.173)" fill="#0f47e6"/><path d="M0,.69C0,.844.244.966.547.966h0C.849.966,1.1.844,1.1.69V.274C1.1.124.849,0,.547,0h0C.244,0,0,.124,0,.274Z" transform="translate(2.173 0.25)" fill="#0f47e6" opacity="0.5" style="mix-blend-mode:screen;isolation:isolate"/><path d="M.635,0H4.8A.636.636,0,0,1,5.44.636V10.989a.635.635,0,0,1-.635.635H.635A.635.635,0,0,1,0,10.989V.635A.635.635,0,0,1,.635,0Z" transform="translate(0 1.539)" fill="#0f47e6"/><g transform="translate(0.191 2.647)" opacity="0.5" style="mix-blend-mode:multiply;isolation:isolate"><path d="M.058,0S.076,1.494.107,3.739V7.571c.053.671-.169,1.507.31,2.048.539.5,1.39.254,2.112.316.716-.062,1.58.182,2.112-.316.481-.552.256-1.37.31-2.048V3.739C4.98,1.494,5,0,5,0s.021,1.494.051,3.739V7.571c-.062.671.19,1.49-.34,2.117-.627.552-1.462.274-2.181.344H1.409A1.408,1.408,0,0,1,.347,9.689C-.185,9.05.071,8.248.007,7.571V3.739C.037,1.494.058,0,.058,0Z" fill="#0f47e6"/></g><path d="M0,.913A1.192,1.192,0,0,0,1.193,2.106H4.244A1.194,1.194,0,0,0,5.439.913v.28A1.194,1.194,0,0,0,4.244,0H1.193A1.192,1.192,0,0,0,0,1.193Z" transform="translate(0.001 1.539)" fill="#0f47e6" opacity="0.5" style="mix-blend-mode:screen;isolation:isolate"/><rect width="4.114" height="2.135" transform="translate(0.664 4.271)" fill="#0f47e6"/><g transform="translate(0.664 5.338)" opacity="0.5" style="mix-blend-mode:multiply;isolation:isolate"><rect width="4.114" height="1.068" fill="#0f47e6"/></g></g><g transform="translate(40.87 152.103)" opacity="0.3" style="mix-blend-mode:multiply;isolation:isolate"><path d="M28.292,73.859A137.9,137.9,0,0,1,6.75,63.887c-5.856-3.254.977-25.376,1.3-31.556s19.977-4.952,19.977-4.952-14.771-4.808-19-8.043C7.395,18.087,4.742,9.929,1.98,0,2.1,24.123,2.048,60.8,0,65.187,0,65.187,12.122,74.555,28.292,73.859Z" transform="translate(0 21.985)" fill="#d8d8d8"/><path d="M16.84,88.149c2.106-3.611,3.31-58.4,4.8-88.149C18.435,9.982,6.854,45.141,1.592,48.652c-6.14,4.1,7.44,5.664,7.767,16.225.269,8.734.951,18.679-.406,26.442C13.118,90.616,15.957,89.663,16.84,88.149Z" transform="translate(63.109)" fill="#d8d8d8"/></g><g transform="translate(46.268 0)"><g transform="translate(1.034 15.421)"><path d="M0,4.582.669,19.27s4.412-2.009,5.61-5.491S9.27,3.19,7.336.6,0,4.582,0,4.582Z" transform="translate(65.564 27.042)" fill="#e5a475"/><path d="M8.244,4.014l.667,14.693s-4.575-1.6-6.087-4.964S-1.117,3.468.579.717s7.665,3.3,7.665,3.3Z" transform="translate(0 29.038)" fill="#e5a475"/><path d="M66.592,23.217c.312,5.387-2.661,30.269-2.978,32.395C63.251,58.1,51.345,69.489,47.991,71.4c-2.861,1.63-8.715,1.974-11.035,2.053-2.159.073-7.9.258-11.018-.961C22.32,71.077,8.428,60.129,7.132,57.637,5.85,55.172.95,29.89.307,25.57-1.759,11.715,6.54,1.37,27.026.632,31.2.48,39.268.511,42.507.163,57.677-1.475,65.792,9.45,66.592,23.217Z" transform="translate(3.551)" fill="#e5a475"/><path d="M0,3.532C-.043,2.556,2.112,1.114,2.893.781A81.326,81.326,0,0,1,15.01.012c.842.021,2.33.236,2.891.994.977,1.323,1.173,2.157-.861,2.363C14.208,3.659,0,3.532,0,3.532Z" transform="translate(6.329 22.036)" fill="#704830"/><path d="M18.635,2.581C18.589,1.606,16.315.368,15.5.105A81.443,81.443,0,0,0,3.369.439c-.836.1-2.3.446-2.788,1.25C-.272,3.1-.392,3.944,1.652,3.965,4.5,4,18.635,2.581,18.635,2.581Z" transform="translate(48.893 20.865)" fill="#704830"/><path d="M13.44,2.6a14.184,14.184,0,0,1-6.659,2.18A25.827,25.827,0,0,1,0,4.166S2.18.494,5.881.1C12.6-.6,13.44,2.6,13.44,2.6Z" transform="translate(47.847 28.567)" fill="#eae9e7"/><path d="M6.151,2.736A2.984,2.984,0,0,1,3.206,5.747,2.976,2.976,0,0,1,0,3.015,2.978,2.978,0,0,1,2.946,0,2.983,2.983,0,0,1,6.151,2.736Z" transform="translate(50.818 27.596)" fill="#3783b7"/><path d="M4.214,1.872A2.043,2.043,0,0,1,2.2,3.937,2.04,2.04,0,0,1,0,2.064,2.041,2.041,0,0,1,2.019,0,2.041,2.041,0,0,1,4.214,1.872Z" transform="translate(51.657 28.504)" fill="#130f0f"/><path d="M1.2.82c.023.471-.229.863-.559.877S.024,1.345,0,.874.235.015.568,0,1.183.349,1.2.82Z" transform="translate(54.971 28.966)" fill="#eae9e7"/><path d="M5.937,2.813C12.665,2.1,13.44,4.7,13.44,4.7a7.059,7.059,0,0,0-1.884-3.453C9.755-.154,5.31-.5,3.166.863.719,2.417,0,6.267,0,6.267A9.211,9.211,0,0,1,5.937,2.813Z" transform="translate(47.847 26.466)" fill="#c4875a"/><path d="M0,3.814A6.034,6.034,0,0,1,1.573,1.989C2.667.967,4.624.455,6.5.184a9.381,9.381,0,0,1,5.256.4,3.7,3.7,0,0,1,1.434,1.057,1.721,1.721,0,0,1,.3.609.026.026,0,0,1-.05.017,1.617,1.617,0,0,0-.409-.479,3.72,3.72,0,0,0-1.442-.779A17.476,17.476,0,0,0,6.525.48a5.26,5.26,0,0,0-2.665.592A20.753,20.753,0,0,0,1.846,2.341a18.271,18.271,0,0,0-1.8,1.5.029.029,0,0,1-.04,0A.026.026,0,0,1,0,3.814Z" transform="translate(47.828 28.904)" fill="#241616"/><path d="M0,3.17A14.2,14.2,0,0,0,6.834,4.737a25.846,25.846,0,0,0,6.7-1.221S11.029.054,7.3,0C.538-.092,0,3.17,0,3.17Z" transform="translate(14.056 29.769)" fill="#eae9e7"/><path d="M0,3.015A2.987,2.987,0,0,0,3.21,5.747,2.977,2.977,0,0,0,6.146,2.736,2.98,2.98,0,0,0,2.95,0,2.988,2.988,0,0,0,0,3.015Z" transform="translate(18.2 28.759)" fill="#3783b7"/><path d="M0,2.063a2.049,2.049,0,0,0,2.2,1.876A2.047,2.047,0,0,0,4.222,1.872,2.041,2.041,0,0,0,2.028,0,2.044,2.044,0,0,0,0,2.063Z" transform="translate(19.281 29.667)" fill="#130f0f"/><path d="M0,.876c.021.471.306.838.642.823S1.22,1.293,1.2.822.889-.014.566,0-.02.4,0,.876Z" transform="translate(18.9 30.275)" fill="#eae9e7"/><path d="M7.313,2.824C.548,2.722,0,5.379,0,5.379S.358,2.413,1.776,1.421A8.23,8.23,0,0,1,9.962.8a6.7,6.7,0,0,1,3.572,4.927A9.2,9.2,0,0,0,7.313,2.824Z" transform="translate(14.056 27.56)" fill="#c4875a"/><path d="M13.54,3.1a18.5,18.5,0,0,0-1.93-1.336A20.493,20.493,0,0,0,9.491.683,5.242,5.242,0,0,0,6.784.337a17.476,17.476,0,0,0-5,.988,3.764,3.764,0,0,0-1.365.9,1.6,1.6,0,0,0-.365.515.026.026,0,0,1-.035.017A.028.028,0,0,1,0,2.734,1.749,1.749,0,0,1,.246,2.1,3.76,3.76,0,0,1,1.58.916a9.415,9.415,0,0,1,5.2-.877c1.892.1,3.889.431,5.073,1.35A6.041,6.041,0,0,1,13.58,3.065a.027.027,0,0,1-.006.038A.032.032,0,0,1,13.54,3.1Z" transform="translate(14.024 30.201)" fill="#241616"/><g transform="translate(30.5 46.61)" opacity="0.7" style="mix-blend-mode:multiply;isolation:isolate"><path d="M5.724.7A2.8,2.8,0,0,0,4.715.121a2.159,2.159,0,0,0-1-.1,7.844,7.844,0,0,0-1.071.45,7.828,7.828,0,0,0-1.9,1.08,5.2,5.2,0,0,0-.717.677l-.008.01a.1.1,0,0,0-.015.1.1.1,0,0,0,.129.06,4.916,4.916,0,0,1,.9-.206A15.654,15.654,0,0,1,3,2.038c.356,0,.727.073,1.057.048a2.284,2.284,0,0,0,.873-.373A3.075,3.075,0,0,0,5.747.9.158.158,0,0,0,5.724.7Z" transform="translate(9.941)" fill="#b0725f"/><path d="M5.071,1.258a7.772,7.772,0,0,0-1.988-.9A7.785,7.785,0,0,0,1.975,0a2.152,2.152,0,0,0-.984.19A2.794,2.794,0,0,0,.038.864a.16.16,0,0,0-.006.2A3.074,3.074,0,0,0,.924,1.8a2.268,2.268,0,0,0,.9.292c.331,0,.692-.115,1.048-.142A16.214,16.214,0,0,1,4.84,1.92a4.889,4.889,0,0,1,.917.125.093.093,0,0,0,.1-.025.1.1,0,0,0,0-.144l-.008-.01A5.15,5.15,0,0,0,5.071,1.258Z" transform="translate(0 0.549)" fill="#b0725f"/></g></g><g transform="translate(29.236 69.918)"><path d="M0,.9C2.009,3.7,4.606,6.845,7.234,7.66c2.928.913,5.858,1.53,9.691-.523,2.34-1.257,3.814-5.3,5.762-7.069.21-.194-1.542.085-1.83.121C16.318.762,0,.9,0,.9Z" fill="#cc736a"/><path d="M16.447.882s-5.229,1.186-6.271,1.175a23.658,23.658,0,0,1-4.318-.119C4.6,1.655,1.807,1.275,1.807,1.275L0,.6a18.348,18.348,0,0,0,4,2.77,11.16,11.16,0,0,0,3.7.913,35.286,35.286,0,0,0,4.67-.206,16.58,16.58,0,0,0,3.8-1.121C17.591,2.484,19.457,0,19.457,0A11.424,11.424,0,0,1,16.447.882Z" transform="translate(1.469 0.849)" fill="#703c30"/><path d="M15.436,0A67.676,67.676,0,0,1,0,.463S2.428,2.6,3.326,2.8c2.509.548,7.046.133,9.564-.3C14.524,2.214,15.7-.033,15.436,0Z" transform="translate(3.276 1.662)" fill="#eeefef"/></g><g transform="translate(59.973 9.005)"><path d="M2.641,0c-.406-.09,1.388,4.053,1.288,4.456-.256.977-1.594,1.432-2.636,2.072-.675.283-1.313.786-.921.769A1.645,1.645,0,0,0,.006,8.49c.515,6.2,7.294,4.837,9.555,17.827.446,2.559,1.073,12.2,1.071,14.553.431-8.972,2.309-6.975,2.705-11.808.256-2.984.3-6.492.621-9.908C14.538,12.841,12.846,2.313,2.641,0Z" fill="#704830"/></g><path d="M65,8.4C62.865,4.822,57.856,3.232,52.99,2.012,28.373-4.173,8.957,4.836,1.874,16.319-.417,20.037-.087,30.566.21,32.3A54.227,54.227,0,0,0,4.432,45.39c1.488,3.445,4.449,7.594,5.062,9.751-.118-2.324-.653-8.943-.7-11.273-.269-13.746,6.634-21.71,9.878-20.707,2.9.9,10.273,1.871,15.537,2.061,8.331.3,20.022-3.08,27.463-5.792.557-.208.812-2.245,1.894-2.432C69.154,16.034,66.812,11.405,65,8.4Z" fill="#805237"/><path d="M64.3,2.832C64.137,1.117,64.013,0,64.013,0a93.831,93.831,0,0,1-3.458,15.118,13.039,13.039,0,0,1-6.706,7.853c-3,1.807-8.249-1.9-10.664-2.1-2.639-.227-18.606.154-20.82.431s-7.457,4.037-10.4,3.247c-1.419-.375-3.089-1.048-6.092-5.7C2.739,13.965.4,7.217.331,4.777c0,0-.148,1.3-.331,3.207,1.71,8.6,2.566,19.7,4.9,23.819,3.081,5.444,15.312,12.909,18.967,14.324,3.154,1.219,8.949,1.034,11.128.961,2.346-.079,8.257-.421,11.146-2.051,3.388-1.913,13.92-10.2,15.813-15.259C63.259,26.29,63.509,12.129,64.3,2.832ZM44.631,31.969c-4.67,2.618-13.169,3.643-20.252.892-2.311-.9-8.658-6.054-7.691-6.761s5.257-.625,8.669-1.023c3.153-.367,12.027-.423,15.444-.315s8.09-.1,9.178.273C50.9,25.346,46.217,31.082,44.631,31.969Z" transform="translate(6.529 44.781)" fill="#e5a475"/></g><g transform="translate(0 459.038)"><g transform="translate(1.181 26.437)"><path d="M4.6.872A6.778,6.778,0,0,0,2.089,0L0,.887C.877,2.264,1.184,4.019,2.127,5.23A7.375,7.375,0,0,0,4.492,2.288C4.8,1.5,5.23,1.65,4.6.872Z" fill="#383838"/><path d="M4.6.872A6.73,6.73,0,0,0,2.093,0L0,.881C.877,2.258,1.182,4.013,2.127,5.234A7.409,7.409,0,0,0,4.492,2.292C4.8,1.5,5.24,1.653,4.6.872Z" transform="translate(9.736 0.778)" fill="#383838"/></g><g transform="translate(13.233 23.438)"><path d="M4.6.862A6.616,6.616,0,0,0,2.089,0L0,.881C.877,2.254,1.184,4.013,2.123,5.219a7.317,7.317,0,0,0,2.369-2.94C4.8,1.492,5.227,1.65,4.6.862Z" fill="#383838"/><path d="M4.607.862A6.858,6.858,0,0,0,2.093,0L0,.887C.887,2.255,1.187,4.009,2.132,5.23a7.5,7.5,0,0,0,2.36-2.948C4.8,1.492,5.236,1.65,4.607.862Z" transform="translate(9.497 1.926)" fill="#383838"/></g><path d="M32.472.22C39.9,1.9,40.134,9.949,44.342,7.191c3.211-2.1,3.1-6.763,3.1-6.763,6.363,3.823,4.428,13.409,2.807,16.745s-3.538,3.367-9.578,4.988-4.642-1.383-9.807,2.961S21,32.467,13.311,30.5-1.207,28.749.18,24.543c1.4-4.2,2.709-5.969,6.7-9.238S28.962.22,28.962.22A6.558,6.558,0,0,1,32.472.22Z" fill="#282828"/><path d="M23.717,4.477C24.728,2,28,0,28,0S9.91,11.817,5.916,15.085C2.655,17.758,1.176,19.432,0,22.25a16.653,16.653,0,0,1,4.133-3.414A51.972,51.972,0,0,1,14.4,14.874C19.5,13.339,31.2,16.208,37.462,5.907,31.465,8.3,22.579,7.284,23.717,4.477Z" transform="translate(0.963 0.22)" fill="#d8d8d8"/><g transform="translate(14.898 18.235)" opacity="0.5" style="mix-blend-mode:multiply;isolation:isolate"><path d="M.686.194A6.014,6.014,0,0,1,2.476.04C3.936.194,5.878.4,7.823.6A9.07,9.07,0,0,1,9.266.936a8.824,8.824,0,0,1,1.358.43,24.326,24.326,0,0,1,2.347,1A6.39,6.39,0,0,1,14.427,3.4l.524.458-.684-.105a6.233,6.233,0,0,1-1.736-.443,23.9,23.9,0,0,0-2.224-.953A7.744,7.744,0,0,0,9,1.937a9.572,9.572,0,0,0-1.373-.319c-1.916-.2-3.834-.395-5.268-.543A5.824,5.824,0,0,1,.641.589C.231.436,0,.327,0,.327S.25.265.686.194Z" transform="translate(0 2.321)" fill="#3e3e3e" opacity="0.3" style="mix-blend-mode:multiply;isolation:isolate"/><path d="M5.672,1.668c-1.445-.2-2.891-.395-3.964-.59C1.157,1.063.765.648.46.548.165.381,0,.266,0,.266S.194.214.528.152c.321.006.829-.261,1.357-.1C2.959.247,4.4.439,5.834.644l2.131.419A9.272,9.272,0,0,1,9.8,1.587c.554.13.877.6,1.157.753.259.21.395.344.395.344l-.545.013c-.323-.056-.859.111-1.334-.124a8.8,8.8,0,0,0-1.742-.5Z" transform="translate(6.741 1.179)" fill="#3e3e3e" opacity="0.3" style="mix-blend-mode:multiply;isolation:isolate"/><path d="M1.039,1.064C.686,1.064.464.67.276.578A3.557,3.557,0,0,1,0,.32,3,3,0,0,1,.355.187c.212,0,.564-.295.9-.143A21.694,21.694,0,0,1,3.8.72a7.383,7.383,0,0,1,2.409,1.33.559.559,0,0,1,.289.458c.041.167.073.31.1.428a2.559,2.559,0,0,1,.049.368s-.131-.049-.357-.13c-.186-.118-.549-.124-.768-.342A6.346,6.346,0,0,0,3.459,1.7,20,20,0,0,0,1.039,1.064Z" transform="translate(13.273)" fill="#3e3e3e" opacity="0.3" style="mix-blend-mode:multiply;isolation:isolate"/></g><path d="M.019.21a7.528,7.528,0,0,1,1.452-.2,7.91,7.91,0,0,1,1.655.21A17.481,17.481,0,0,1,5.214.8a12.311,12.311,0,0,1,2.33,1.1A11.332,11.332,0,0,1,9.777,3.738c1.358,1.445,2.4,3.38,4.394,4.043A10.443,10.443,0,0,0,17.2,8.33a9.158,9.158,0,0,0,2.978-.282,7.083,7.083,0,0,0,2.5-1.157,7.169,7.169,0,0,0,1.715-1.732,11.927,11.927,0,0,0,1.54-3.374l.229.056a9.987,9.987,0,0,1-1.4,3.572,6.168,6.168,0,0,1-1.854,1.826,7.518,7.518,0,0,1-2.679,1.03,13.47,13.47,0,0,1-3.032.252,11.3,11.3,0,0,1-3.121-.432,6.141,6.141,0,0,1-2.685-1.712c-.727-.759-1.334-1.59-2.01-2.26A10.967,10.967,0,0,0,7.263,2.352,16.757,16.757,0,0,0,5.059,1.2,13.584,13.584,0,0,0,1.454.206,7.732,7.732,0,0,0,.041.259l-.013,0A.029.029,0,0,1,0,.244.026.026,0,0,1,.019.21Z" transform="translate(24.651 3.527)" fill="#3e3e3e" opacity="0.3" style="mix-blend-mode:multiply;isolation:isolate"/><path d="M.18,13.747c.03-.075.053-.147.083-.224,1.935,2.657,6.8,2.1,10.2,2.927a20.881,20.881,0,0,0,6.307.7,26.362,26.362,0,0,0,7.017-1.407c4.424-1.454,8.8-3.184,10.961-6.9,1.287-2.208,2.285-2.54,5.067-2.9a35.161,35.161,0,0,0,6.414-1.432c2.177-.776,3.036-2.087,4.552-3.374C50.931,1.009,51.71.1,51.849,0a24.722,24.722,0,0,1-1.6,6.376c-1.629,3.342-3.538,3.367-9.578,4.988s-4.642-1.383-9.807,2.961S21,21.671,13.311,19.7-1.207,17.953.18,13.747Z" transform="translate(0 10.796)" fill="#3e3e3e" opacity="0.3" style="mix-blend-mode:multiply;isolation:isolate"/></g><g transform="translate(73.202 455.126)"><g transform="translate(4.682 28.033)"><path d="M.055,1.388c-.426.46,1.74,3.568,2.39,4.09C3.987,4.377,4.217,2.063,4.438.4A32.729,32.729,0,0,1,.747,0Z" transform="translate(14.209)" fill="#383838"/><path d="M.053,1.388c-.419.455,1.742,3.568,2.392,4.09C3.986,4.377,4.217,2.063,4.437.395A31.321,31.321,0,0,1,.75,0Z" fill="#383838"/></g><path d="M25.782,8.376c-.614-4.143-2-7.472-5.683-6.735C16.867,2.293,11.336-1.313,7.558.53,4.092,2.225,5.1,4.6,3.573,8.376,1.587,13.281-1.858,22.861,1.24,27.87c1.873,3.036,5.621,2.632,8.766,2.914,4.158.368,8.034,0,12.248,0h-.526c2.315-.047,4.362-.43,5.354-3.062.9-2.4.569-5.884.569-8.561C27.651,15.543,26.31,11.919,25.782,8.376Z" fill="#282828"/><g transform="translate(4.685 1.907)"><path d="M21.1,6.469C20.651,3.478,19.806.922,17.983,0a9.807,9.807,0,0,1-.2,3.549C14.84,10.277,5.792,6.949,0,6.861c10.006,4.6,17.512,16.941,17.153,21.6l.216.4c2.181-.077,4.081-.547,5.028-3.051.9-2.4.569-5.884.569-8.561C22.966,13.636,21.624,10.012,21.1,6.469Z" fill="#d8d8d8"/><path d="M.194,0h0Z" transform="translate(17.375 28.876)" fill="#ffd249"/></g><g transform="translate(22.342 3.123)"><path d="M1.229.569c.068.774.133,1.561.143,2.36.006,1.071-.117,2.029-.2,3.053C1.03,7.641.691,9.018.507,10.632c-.077.624-.2,1.187-.312,1.757A9.127,9.127,0,0,0,0,13.6c.2-.641.395-1.3.552-2,.133-.584.267-1.172.41-1.745.118-.5.2-1.06.308-1.588a18.859,18.859,0,0,1,.793-2.884,12.9,12.9,0,0,0,.427-1.249c.047-.182.1-.366.152-.543A9.873,9.873,0,0,0,1.214,0C1.214.184,1.212.37,1.229.569Z" transform="translate(0.489)" fill="#d8d8d8" style="mix-blend-mode:multiply;isolation:isolate"/><g transform="translate(0.751 3.568)"><path d="M0,.492c0,.271.041.5.092.5S.179.763.179.492.137,0,.092,0,0,.22,0,.492Z" transform="translate(2.213)" fill="#634e42"/><path d="M0,.492c0,.276.041.5.092.5S.18.768.18.492.139,0,.092,0,0,.225,0,.492Z" transform="translate(2.033 1.674)" fill="#634e42"/><path d="M0,.492c0,.276.038.5.088.5S.18.768.18.492.139,0,.088,0,0,.225,0,.492Z" transform="translate(1.546 3.333)" fill="#634e42"/><path d="M0,.49c0,.278.04.5.092.5S.178.768.178.49.137,0,.092,0,0,.22,0,.49Z" transform="translate(1.062 5.336)" fill="#634e42"/><path d="M0,.49C0,.763.039.983.086.983S.178.763.178.49.137,0,.086,0,0,.22,0,.49Z" transform="translate(0.759 6.965)" fill="#634e42"/><path d="M0,.492c0,.271.041.49.092.49S.178.763.178.492.143,0,.092,0,0,.22,0,.492Z" transform="translate(0.385 8.561)" fill="#634e42"/><path d="M0,.5c0,.271.041.49.092.49S.18.768.18.5.139,0,.092,0,0,.222,0,.5Z" transform="translate(0 9.544)" fill="#634e42"/></g><g transform="translate(0 1.76)"><path d="M0,.5C0,.766.041.988.086.988S.178.766.178.5.139,0,.086,0,0,.22,0,.5Z" transform="translate(1.244)" fill="#634e42"/><path d="M0,.492c0,.276.04.5.092.5s.092-.22.092-.5S.137,0,.092,0,0,.222,0,.492Z" transform="translate(0.932 1.888)" fill="#634e42"/><path d="M0,.5C0,.768.041.988.092.988S.18.768.18.5.139,0,.092,0,0,.22,0,.5Z" transform="translate(0.751 4.434)" fill="#634e42"/><path d="M0,.492C0,.763.041.984.092.984S.178.763.178.492.143,0,.092,0,0,.22,0,.492Z" transform="translate(0.46 6.686)" fill="#634e42"/><path d="M0,.49c0,.278.041.5.086.5S.179.768.179.49.139,0,.086,0,0,.22,0,.49Z" transform="translate(0.271 8.49)" fill="#634e42"/><path d="M0,.492c0,.271.041.49.092.49S.178.763.178.492.139,0,.092,0,0,.22,0,.492Z" transform="translate(0.086 10.158)" fill="#634e42"/><path d="M0,.49C0,.763.039.983.086.983S.178.763.178.49.137,0,.086,0,0,.22,0,.49Z" transform="translate(0 11.849)" fill="#634e42"/></g><path d="M.679.144a.827.827,0,0,1-.235.3C.367.61-.018.61,0,.651A.534.534,0,0,0,.656.61.87.87,0,0,0,.8,0C.81,0,.737.067.679.144Z" transform="translate(0.086 13.398)" fill="#3c3c3b"/><path d="M.65.113A1.747,1.747,0,0,0,0,.149,2.1,2.1,0,0,0,.616.378.552.552,0,0,0,1.1.226.926.926,0,0,0,1.142,0C1.1,0,.954.276.65.113Z" transform="translate(0.086 12.488)" fill="#3c3c3b"/><path d="M1.111.48A2.665,2.665,0,0,1,.7.219,2.384,2.384,0,0,0,0,0,2.8,2.8,0,0,0,.6.469a1.838,1.838,0,0,0,.5.154c.186-.03.19-.19.2-.164C1.306.448,1.2.525,1.111.48Z" transform="translate(0.357 10.462)" fill="#3c3c3b"/><path d="M1.214.407C1.107.318,1.035.089.774.022a1.188,1.188,0,0,0-.6.053A.6.6,0,0,0,0,.253.913.913,0,0,1,.244.2C.327.223.592.191.712.283c.15-.021.278.163.41.237.094.092.254.1.231.056C1.321.606,1.311.565,1.214.407Z" transform="translate(0.552 8.687)" fill="#3c3c3b"/><path d="M.923.212A.743.743,0,0,0,.6.048.585.585,0,0,0,.417,0L.276.007C.188-.014.1.074.07.1S0,.15,0,.15s.028,0,.081,0a.338.338,0,0,1,.188,0L.408.176c.058,0,.03.03.111.056A.583.583,0,0,1,.763.426c.169.088.3.314.505.406.109.041.171-.021.227-.015C1.546.805,1.578.8,1.578.8A1.988,1.988,0,0,1,1.321.7C1.212.621,1.137.4.923.212Z" transform="translate(0.808 6.597)" fill="#3c3c3b"/><path d="M.353,0A.358.358,0,0,0,.07.184L0,.282C-.007.308.156.119.359.145S.806.421.99.7c.225.252.413.549.569.753a.948.948,0,0,0,.314.3C1.834,1.772,1.6,1.112,1.2.528.97.276.684-.009.353,0Z" transform="translate(1.024 3.987)" fill="#3c3c3b"/><path d="M1.131.807A3.552,3.552,0,0,0,.782.371L.4.08A.257.257,0,0,0,.034.074L0,.2.071.1C.141.065.216.1.3.181s.212.21.334.333a3.624,3.624,0,0,1,.28.447,8.011,8.011,0,0,1,.579.823.77.77,0,0,0,.349.319.918.918,0,0,1-.225-.391A7.117,7.117,0,0,0,1.131.807Z" transform="translate(1.279 1.956)" fill="#3c3c3b"/></g><g transform="translate(0.004 3.219)"><path d="M14.364,6.816C11.322,6.33,7.3,6.181,4.6,4.828,2.966,4.009,1.557,1.6.073,0A11.253,11.253,0,0,0,1.235,6.852C3.109,9.888,6.857,9.484,10,9.766c4.158.368,8.034,0,12.248,0h-.526c2.315-.047,4.362-.43,5.355-3.062a8.009,8.009,0,0,0,.284-.958C23.863,7.84,18.543,7.47,14.364,6.816Z" transform="translate(0 17.799)" fill="#3e3e3e" opacity="0.3" style="mix-blend-mode:multiply;isolation:isolate"/><path d="M17.493,1.736a5.323,5.323,0,0,1-.945.84c-1.573,1.065-4.184,1.4-6.7,1.315A25.5,25.5,0,0,1,2.97,2.938,14.223,14.223,0,0,1,0,1.822l.763.442A12.725,12.725,0,0,0,2.9,3.154,25.7,25.7,0,0,0,9.848,4.306c2.555.011,5.206-.389,6.827-1.546a4.091,4.091,0,0,0,.939-.943A5.061,5.061,0,0,0,18.008.87c.053-.552.085-.87.085-.87s-.056.312-.154.861A5.433,5.433,0,0,1,17.493,1.736Z" transform="translate(5.643)" fill="#3e3e3e" opacity="0.3" style="mix-blend-mode:multiply;isolation:isolate"/><path d="M1.933.389a6.768,6.768,0,0,0-1.405,1A6.673,6.673,0,0,0,0,1.971,7.03,7.03,0,0,0,.738,1.7c.426-.2.969-.425,1.49-.7A14.622,14.622,0,0,1,3.7.395C4.126.246,4.43.1,4.43.1A5.659,5.659,0,0,0,3.645.015,4.327,4.327,0,0,0,1.933.389Z" transform="translate(0.661 13.831)" fill="#3e3e3e" opacity="0.3" style="mix-blend-mode:multiply;isolation:isolate"/><path d="M1.9.039c-.374.026-.65.338-.983.59C.676.89.492,1.2.282,1.433A3.867,3.867,0,0,0,0,1.873a3,3,0,0,0,.5-.128A2.607,2.607,0,0,0,1.409,1.1c.256-.242.466-.579.669-.718.19-.2.346-.38.346-.38A2.131,2.131,0,0,0,1.9.039Z" transform="translate(0.937 11.368)" fill="#3e3e3e" opacity="0.3" style="mix-blend-mode:multiply;isolation:isolate"/></g><path d="M19.19,1.663A14.253,14.253,0,0,0,13.042.532C9.668.438,5.954-.614,2.66.528A3.591,3.591,0,0,0,.12,3c-.25,1-.169,2.628.81,3.26a6.262,6.262,0,0,0,2.61.729A35.05,35.05,0,0,0,7.489,7c1.539,0,3.083,0,4.616.122a17.72,17.72,0,0,0,4.858.182c1.328-.267,4.6-1.5,4.079-3.354A4.174,4.174,0,0,0,19.19,1.663Z" transform="translate(2.634 15.607)" fill="#f4f4f4" opacity="0.2" style="mix-blend-mode:screen;isolation:isolate"/></g></g></g></svg>