<svg xmlns="http://www.w3.org/2000/svg" width="247" height="248" viewBox="0 0 247 248"><g transform="translate(-700 -182)"><path d="M0,0H3A103,103,0,0,1,106,103v19a0,0,0,0,1,0,0H0a0,0,0,0,1,0,0V0A0,0,0,0,1,0,0Z" transform="translate(841 182)" fill="#ffad33"/><path d="M0,0H106a0,0,0,0,1,0,0V122a0,0,0,0,1,0,0h-3A103,103,0,0,1,0,19V0A0,0,0,0,1,0,0Z" transform="translate(702 308)" fill="#1ed555"/><path d="M0,0H3A103,103,0,0,1,106,103v19a0,0,0,0,1,0,0H0a0,0,0,0,1,0,0V0A0,0,0,0,1,0,0Z" transform="translate(822 182) rotate(90)" fill="#0f47e6"/><path d="M0,0H3A103,103,0,0,1,106,103v19a0,0,0,0,1,0,0H0a0,0,0,0,1,0,0V0A0,0,0,0,1,0,0Z" transform="translate(825 430) rotate(-90)" fill="#0f47e6"/></g></svg>