<svg xmlns="http://www.w3.org/2000/svg" width="34.904" height="34.317" viewBox="0 0 34.904 34.317"><g transform="translate(0 -4.035)"><g transform="translate(0 4.035)"><g transform="translate(0 0)"><path d="M34.881,23.358a.572.572,0,0,0-.016-.305A11.057,11.057,0,0,0,23.92,12.76,12.213,12.213,0,1,0,7.214,27.393a15.557,15.557,0,0,0-3.169,2.245l-1.66,1.521a1.745,1.745,0,0,0,.131,2.682l1.871,1.4a15.633,15.633,0,0,0,9.323,3.108h1.665A15.633,15.633,0,0,0,24.7,35.244l.659-.494A11.027,11.027,0,0,0,34.9,23.809C34.9,23.656,34.887,23.509,34.881,23.358Zm-3.051-5.366a9.818,9.818,0,0,1,1.862,4.9l-.493.247-2.856-1.9.928-3.242Zm-3.936-3.2a9.922,9.922,0,0,1,2.954,2.033h-.017a.582.582,0,0,0-.559.422l-1.09,3.815-1.869.862-2.881-1.92V17.713l3.243-2.269A.582.582,0,0,0,27.895,14.8Zm-13.14,2.75a.581.581,0,0,0-.15.186.594.594,0,0,0-.017.063l-1.549-1.549L14.888,14.4a12.268,12.268,0,0,0,1.576,1.215h0A11.113,11.113,0,0,0,14.755,17.545Zm-.766,1.3a10.962,10.962,0,0,0-1.152,4.188,12.113,12.113,0,0,0-2.463-4.118l1.842-1.844Zm1.373-.08.465.233.939,2.347-2.34,2.343-.449-.225A9.813,9.813,0,0,1,15.363,18.761Zm-1.08,6.148a.582.582,0,0,0,.671-.109l2.638-2.637,2.288.915,1.085,3.8a.515.515,0,0,0,.04.085,15.512,15.512,0,0,0-6.461-1.4c-.137,0-.274.006-.411.009v0c-.047-.261-.091-.524-.116-.786Zm6.01-2.917L17.9,21.034l-1.07-2.676a.582.582,0,0,0-.28-.3l-.524-.263a9.934,9.934,0,0,1,3.782-3,.582.582,0,0,0,.219.649l3.242,2.272v2.294Zm3.558-.975,2.754,1.84c0,.012,0,.025.009.037a.51.51,0,0,0,.036.058l-.911,3.184H21.963l-.926-3.242ZM26.5,14.291v0l.151.449-2.8,1.957-2.8-1.96.151-.449A9.637,9.637,0,0,1,26.5,14.291Zm-3.776-1.476a10.976,10.976,0,0,0-5.3,2.023,11.078,11.078,0,0,1-1.711-1.262L20.43,8.859A11.039,11.039,0,0,1,22.724,12.814ZM19.6,8.04l-4.712,4.712a11.019,11.019,0,0,1-2.809-6.6l-.067-.939A11.01,11.01,0,0,1,19.6,8.04ZM10.852,5.294l.067.937a12.176,12.176,0,0,0,3.145,7.347l-1.847,1.847L4.834,8.04A10.983,10.983,0,0,1,10.852,5.294ZM4.011,8.863l7.383,7.384L9.552,18.089A12.178,12.178,0,0,0,2.2,14.947l-.937-.067A10.983,10.983,0,0,1,4.011,8.863ZM1.179,16.041l.939.067a11.026,11.026,0,0,1,6.608,2.8L4.009,23.63A11.013,11.013,0,0,1,1.179,16.041Zm3.646,8.42,4.726-4.724a11,11,0,0,1,2.729,5.986,15.473,15.473,0,0,0-3.617.989A11.082,11.082,0,0,1,4.826,24.461Zm21.127,8.377a.586.586,0,0,1-.08.072L24,34.314a14.463,14.463,0,0,1-8.623,2.874H13.711a14.463,14.463,0,0,1-8.623-2.874l-1.871-1.4a.582.582,0,0,1-.044-.894L4.829,30.5a14.352,14.352,0,0,1,4.014-2.584.577.577,0,0,0,.243-.108A14.339,14.339,0,0,1,24.258,30.5l1.659,1.521A.582.582,0,0,1,25.953,32.838Zm-.911-3.2A15.556,15.556,0,0,0,21.695,27.3h4.242l1.28,1.28-1.048,2.094Zm2.071,3.5h0a1.659,1.659,0,0,0-.092-1.571l1.262-2.525h3.353l.259.518A9.849,9.849,0,0,1,27.113,33.14Zm5.5-4.746-.091-.192A.582.582,0,0,0,32,27.881H28.164l-1.333-1.333,1.026-3.59,1.76-.811,3.219,2.146a.582.582,0,0,0,.582.037l.3-.152A9.857,9.857,0,0,1,32.61,28.394Z" transform="translate(0 -4.035)" fill="#fff"/></g></g><g transform="translate(7.563 30.208)"><path d="M116.227,365.139h-.582v-.582a.582.582,0,1,0-1.163,0v.582h-1.163v-.582a.582.582,0,1,0-1.163,0v.582h-1.163v-.582a.582.582,0,1,0-1.163,0v.582h-1.163v-.582a.582.582,0,1,0-1.163,0v.582h-1.163v-.582a.582.582,0,1,0-1.163,0v.582h-.582a.582.582,0,1,0,0,1.163h.582v.582a.582.582,0,1,0,1.163,0V366.3H107.5v.582a.582.582,0,1,0,1.163,0V366.3h1.163v.582a.582.582,0,1,0,1.163,0V366.3h1.163v.582a.582.582,0,1,0,1.163,0V366.3h1.163v.582a.582.582,0,1,0,1.163,0V366.3h.582a.582.582,0,1,0,0-1.163Z" transform="translate(-104.011 -363.976)" fill="#fff"/></g></g></svg>