<svg xmlns="http://www.w3.org/2000/svg" width="22.074" height="16.845" viewBox="0 0 22.074 16.845"><defs><style>.a{fill:#fff;}</style></defs><g transform="translate(0.001 0.001)"><path class="a" d="M291.826,89.343a.431.431,0,0,0-.588-.158l-.464.268-.749-1.3.464-.268a.431.431,0,0,0-.431-.746l-.464.268-.749-1.3.464-.268a.431.431,0,1,0-.431-.746l-.464.268-.749-1.3.464-.268a.431.431,0,1,0-.431-.746l-.465.268-.586-1.014a.431.431,0,1,0-.746.431l.585,1.014-.465.268a.431.431,0,1,0,.431.746l.465-.268.749,1.3-.464.268a.431.431,0,1,0,.431.746l.465-.268.749,1.3-.464.268a.431.431,0,1,0,.431.746l.465-.268.749,1.3-.464.268a.431.431,0,1,0,.431.746l.465-.268.585,1.014a.431.431,0,0,0,.746-.431L291.2,90.2l.464-.268a.431.431,0,0,0,.158-.588Zm0,0" transform="translate(-273.486 -78.556)"/><path class="a" d="M21.434,7.232a.431.431,0,1,0-.811.29,9.56,9.56,0,0,1-.608,7.957.994.994,0,0,1-.863.5h-.007a9.743,9.743,0,0,1-8.266-4.974,9.892,9.892,0,0,1-.852-8.15l0-.011v0A8.986,8.986,0,0,1,10.7,1.362a.994.994,0,0,1,.863-.5h.006a9.559,9.559,0,0,1,7.2,3.453.431.431,0,1,0,.657-.557A10.42,10.42,0,0,0,11.58,0,1.855,1.855,0,0,0,9.956.936a9.786,9.786,0,0,0-.6,1.25,7.478,7.478,0,0,0-4.071.075.41.41,0,0,0-.065.02A7.482,7.482,0,0,0,1.4,5.053a.437.437,0,0,0-.073.1A7.408,7.408,0,0,0,0,9.236a.433.433,0,0,0,0,.087c0,.023,0,.045,0,.068a7.412,7.412,0,0,0,1.453,4.416.434.434,0,0,0,.079.1A7.484,7.484,0,0,0,5.01,16.432a.431.431,0,0,0,.066.023,7.459,7.459,0,0,0,4.753,0,.443.443,0,0,0,.066-.023,7.451,7.451,0,0,0,2.922-1.869,10.281,10.281,0,0,0,6.322,2.282h.012a1.857,1.857,0,0,0,1.612-.938,10.42,10.42,0,0,0,.67-8.673ZM7.452,11.58,5.377,10.072l.793-2.439H8.783a11.01,11.01,0,0,0,.7,2.474ZM4.528,9.9l-1.742.57L.87,9.074A6.549,6.549,0,0,1,1.942,5.78H4.287l1.091,1.5Zm-3.621.27,1.286.934L1.7,12.61a6.539,6.539,0,0,1-.8-2.444ZM9.076,3a10.431,10.431,0,0,0-.394,3.768H6.075L4.99,5.282l.731-2.249A6.614,6.614,0,0,1,9.076,3Zm-4.383.4L4.2,4.919H2.617A6.62,6.62,0,0,1,4.693,3.408ZM2.315,13.515l.723-2.225L4.8,10.715l2.226,1.617v1.837L5.115,15.554a6.62,6.62,0,0,1-2.8-2.039Zm3.85,2.34,1.287-.935,1.286.934a6.6,6.6,0,0,1-2.573,0Zm3.623-.3L7.882,14.169V12.332l1.963-1.426q.136.269.288.532A11.1,11.1,0,0,0,12.164,14a6.592,6.592,0,0,1-2.376,1.556Zm0,0"/><path class="a" d="M459.286,121.225a.431.431,0,1,0-.3-.127A.434.434,0,0,0,459.286,121.225Zm0,0" transform="translate(-439.073 -115.175)"/></g></svg>