<svg xmlns="http://www.w3.org/2000/svg" width="14.41" height="13.741" viewBox="0 0 14.41 13.741"><g transform="translate(0 -11.877)"><path d="M14.07,16.841,9.4,16.408,7.548,12.1a.374.374,0,0,0-.687,0L5.007,16.408.34,16.841a.374.374,0,0,0-.212.653l3.522,3.094L2.618,25.161a.374.374,0,0,0,.556.4L7.2,23.171l4.03,2.393a.374.374,0,0,0,.556-.4L10.76,20.588l3.522-3.094A.374.374,0,0,0,14.07,16.841Z" transform="translate(0 0)" fill="#0f47e6"/><path d="M7.548,12.1a.374.374,0,0,0-.687,0L5.007,16.408.34,16.841a.374.374,0,0,0-.212.653l3.522,3.094L2.618,25.161a.374.374,0,0,0,.556.4l.9-.534a16.5,16.5,0,0,1,4.391-10.8Z" transform="translate(0 0)" fill="#0f47e6"/></g></svg>