<svg xmlns="http://www.w3.org/2000/svg" width="22.586" height="21.538" viewBox="0 0 22.586 21.538"><path d="M22.052,19.657l-7.316-.678-2.906-6.748a.586.586,0,0,0-1.077,0L7.848,18.979l-7.316.678A.586.586,0,0,0,.2,20.682l5.52,4.849L4.1,32.7a.586.586,0,0,0,.871.633l6.317-3.751,6.317,3.751a.586.586,0,0,0,.871-.633L16.866,25.53l5.52-4.849A.586.586,0,0,0,22.052,19.657Z" transform="translate(0 -11.877)" fill="#d6d6d6"/><path d="M11.831,12.231a.586.586,0,0,0-1.077,0L7.848,18.979l-7.316.678A.586.586,0,0,0,.2,20.682l5.52,4.849L4.1,32.7a.586.586,0,0,0,.871.633l1.41-.837a25.855,25.855,0,0,1,6.882-16.926Z" transform="translate(0 -11.877)" fill="#d6d6d6"/></svg>