<svg xmlns="http://www.w3.org/2000/svg" width="34.713" height="34.7" viewBox="0 0 34.713 34.7"><g transform="translate(0 -0.096)"><path d="M31.43,34.8H32.3a2.412,2.412,0,0,0,2.41-2.41V18.112A2.412,2.412,0,0,0,32.3,15.7H28.9A14.332,14.332,0,0,0,24.706,4.325,15,15,0,0,0,14.5.1a15.035,15.035,0,0,0-8.8,2.975.508.508,0,0,0,.612.811,14.372,14.372,0,0,1,7.662-2.759V14.551a.511.511,0,0,0,.867.36l9.515-9.493A13.315,13.315,0,0,1,27.876,15.7h-4.13L20.8,12.755a.512.512,0,0,0-.868.359V15.7h-1.2a2.412,2.412,0,0,0-2.409,2.41v9.709A13.433,13.433,0,0,1,4.23,5.843a.508.508,0,0,0-.773-.66c-8.508,10.116-.2,25.259,12.868,23.664v3.539a2.412,2.412,0,0,0,2.409,2.41h9.992a.508.508,0,0,0,0-1.017H18.734a1.4,1.4,0,0,1-1.393-1.393V18.112a1.394,1.394,0,0,1,1.393-1.393h1.706a.508.508,0,0,0,.508-.508V14.342l2.228,2.228a.508.508,0,0,0,.359.149H32.3A1.4,1.4,0,0,1,33.7,18.112V32.386A1.4,1.4,0,0,1,32.3,33.779H31.43a.508.508,0,0,0,0,1.017ZM22.972,5.354H14.982V3.731H22.44a13.3,13.3,0,0,1,1.184.972Zm-2.646,2.64H14.982V6.371h6.972Zm-2.646,2.64h-2.7V9.011h4.326Zm-2.7-9.5a13.582,13.582,0,0,1,5.833,1.582H14.982Zm0,10.518h1.68l-1.68,1.676Z" fill="#fff"/><path d="M335.85,395.434a.508.508,0,0,0,.656-.294l.268-.7h1.834l.265.7a.509.509,0,0,0,.951-.359l-1.564-4.144a.606.606,0,0,0-1.127,0l-1.578,4.144A.508.508,0,0,0,335.85,395.434Zm1.846-3.418.529,1.4h-1.063Z" transform="translate(-312.784 -363.714)" fill="#fff"/><path d="M409.889,395.355a.51.51,0,0,0,.708-.123l1.17-1.661,1.168,1.66a.508.508,0,0,0,.831-.585l-1.377-1.958,1.169-1.66a.509.509,0,0,0-.831-.585l-.96,1.362-.958-1.362a.509.509,0,0,0-.831.585l1.167,1.66-1.38,1.958A.508.508,0,0,0,409.889,395.355Z" transform="translate(-381.909 -363.694)" fill="#fff"/><path d="M283.35,395.413a.508.508,0,0,0,.508-.508V391.21h.657a.508.508,0,0,0,0-1.017h-2.321a.508.508,0,0,0,0,1.017h.648V394.9A.508.508,0,0,0,283.35,395.413Z" transform="translate(-262.599 -363.659)" fill="#fff"/><path d="M341.215,283.558a.523.523,0,0,0,.706-.134l3.85-5.657a.508.508,0,1,0-.84-.572l-3.85,5.657A.508.508,0,0,0,341.215,283.558Z" transform="translate(-317.883 -258.112)" fill="#fff"/><path d="M389.945,327.8a1.554,1.554,0,0,0-1.4-1.671c-1.853.09-1.852,3.253,0,3.342A1.554,1.554,0,0,0,389.945,327.8Zm-1.778,0c0-.375.2-.655.381-.655s.381.28.381.655-.2.655-.381.655S388.167,328.17,388.167,327.8Z" transform="translate(-360.92 -303.932)" fill="#fff"/><path d="M326.191,280.428a1.554,1.554,0,0,0,1.4-1.671c-.059-2.225-2.726-2.21-2.794,0A1.555,1.555,0,0,0,326.191,280.428Zm0-2.326c.18,0,.38.28.38.655s-.2.655-.38.655-.381-.28-.381-.655S326.012,278.1,326.191,278.1Z" transform="translate(-302.782 -258.226)" fill="#fff"/></g></svg>