<svg xmlns="http://www.w3.org/2000/svg" width="21.277" height="19.289" viewBox="0 0 21.277 19.289"><defs><style>.a{fill:#fff;}</style></defs><g transform="translate(0 -21.68)"><g transform="translate(0 21.68)"><path class="a" d="M20.91,30.642H16.218v-.906a.367.367,0,0,0-.187-.319l-5.026-2.825V25.154H12V25.7a.367.367,0,0,0,.367.367h3a.367.367,0,0,0,.345-.492l-.3-.855.3-.836a.367.367,0,0,0-.345-.492H14v-.532a.367.367,0,0,0-.367-.367h-2.63v-.448a.367.367,0,0,0-.734,0v4.545L5.246,29.413a.367.367,0,0,0-.187.319v.906H.367A.367.367,0,0,0,0,31.005v9.6a.367.367,0,0,0,.367.367H20.91a.367.367,0,0,0,.367-.367V31.009A.367.367,0,0,0,20.91,30.642ZM14,24.787l-.015-.015v-.631h.836l-.15.47a.367.367,0,0,0,0,.253l.172.47H12.733v-.18h.9A.367.367,0,0,0,14,24.787Zm-3-1.559h2.263V24.42H11.005ZM5.059,40.235H.734V31.376H5.059Zm5.213,0H8.346V36.046h1.926Zm2.66,0H11.005V36.046h1.926Zm2.568,0H13.665V35.679a.367.367,0,0,0-.367-.367H7.979a.367.367,0,0,0-.367.367v4.556H5.778V29.963l4.861-2.737,4.846,2.722.015,1.057Zm5.044,0H16.218V31.376h4.325Z" transform="translate(0 -21.68)"/></g><g transform="translate(9.101 28.349)"><path class="a" d="M200.017,167.12a1.537,1.537,0,1,0,1.537,1.533A1.541,1.541,0,0,0,200.017,167.12Zm0,2.34a.8.8,0,1,1,.8-.8h0A.8.8,0,0,1,200.017,169.46Z" transform="translate(-198.48 -167.12)"/></g><g transform="translate(1.618 32.183)"><rect class="a" width="0.734" height="1.467"/></g><g transform="translate(3.426 32.183)"><rect class="a" width="0.734" height="1.467"/></g><g transform="translate(6.893 32.183)"><rect class="a" width="1.467" height="0.734"/></g><g transform="translate(9.905 32.183)"><rect class="a" width="1.467" height="0.734"/></g><g transform="translate(12.917 32.183)"><rect class="a" width="1.467" height="0.734"/></g><g transform="translate(6.893 33.892)"><rect class="a" width="1.467" height="0.734"/></g><g transform="translate(9.905 33.892)"><rect class="a" width="1.467" height="0.734"/></g><g transform="translate(12.917 33.892)"><rect class="a" width="1.467" height="0.734"/></g><g transform="translate(1.618 35.07)"><rect class="a" width="0.734" height="1.467"/></g><g transform="translate(3.426 35.07)"><rect class="a" width="0.734" height="1.467"/></g><g transform="translate(1.618 37.961)"><rect class="a" width="0.734" height="1.467"/></g><g transform="translate(3.426 37.961)"><rect class="a" width="0.734" height="1.467"/></g><g transform="translate(17.117 32.183)"><rect class="a" width="0.734" height="1.467"/></g><g transform="translate(18.925 32.183)"><rect class="a" width="0.734" height="1.467"/></g><g transform="translate(17.117 35.07)"><rect class="a" width="0.734" height="1.467"/></g><g transform="translate(18.925 35.07)"><rect class="a" width="0.734" height="1.467"/></g><g transform="translate(17.117 37.961)"><rect class="a" width="0.734" height="1.467"/></g><g transform="translate(18.925 37.961)"><rect class="a" width="0.734" height="1.467"/></g></g></svg>