<svg xmlns="http://www.w3.org/2000/svg" width="34.765" height="34.765" viewBox="0 0 34.765 34.765"><g transform="translate(-0.008 0)"><path d="M39.4,16.415l-4.261-1.9-1.9-4.263-4.638.484L24.833,8,21.058,10.74l-4.635-.484-1.9,4.261-4.263,1.9.485,4.638L8.012,24.825,10.748,28.6l-.485,4.635,4.261,1.9,1.9,4.263,4.638-.484,3.773,2.736,3.775-2.736,4.635.484,1.9-4.261,4.263-1.9L38.918,28.6l2.736-3.773L38.918,21.05Z" transform="translate(-7.443 -7.443)" fill="#0f47e6"/><g transform="translate(0.008 0)"><path d="M34.665,17.054l-2.611-3.6.463-4.423a.561.561,0,0,0-.33-.571L28.124,6.649,26.315,2.585a.564.564,0,0,0-.571-.33l-4.424.462L17.719.107a.561.561,0,0,0-.658,0l-3.6,2.611L9.035,2.255a.568.568,0,0,0-.571.33L6.656,6.649,2.592,8.458a.56.56,0,0,0-.33.57l.462,4.424-2.611,3.6a.561.561,0,0,0,0,.658l2.611,3.6-.462,4.424a.561.561,0,0,0,.33.571l4.064,1.808L8.464,32.18a.567.567,0,0,0,.571.33l4.424-.463,3.6,2.611a.561.561,0,0,0,.658,0l3.6-2.611,4.424.463a.564.564,0,0,0,.571-.33l1.808-4.064,4.064-1.809a.561.561,0,0,0,.33-.57l-.463-4.424,2.611-3.6a.56.56,0,0,0,0-.659Zm-3.645,3.775a.559.559,0,0,0-.1.387l.442,4.232L27.47,27.179a.556.556,0,0,0-.285.284l-1.73,3.889-4.233-.442a.559.559,0,0,0-.387.1l-3.446,2.5-3.446-2.5a.555.555,0,0,0-.329-.107.365.365,0,0,0-.056,0l-4.234.442L7.6,27.464a.56.56,0,0,0-.285-.285L3.42,25.448l.442-4.232a.562.562,0,0,0-.1-.387l-2.5-3.446,2.5-3.446a.562.562,0,0,0,.1-.387L3.42,9.317,7.309,7.586A.556.556,0,0,0,7.594,7.3l1.73-3.889,4.234.442a.566.566,0,0,0,.387-.1l3.446-2.5,3.446,2.5a.564.564,0,0,0,.387.1l4.233-.442L27.186,7.3a.56.56,0,0,0,.285.285l3.889,1.73-.442,4.232a.559.559,0,0,0,.1.387l2.5,3.446Zm0,0" transform="translate(-0.008 0)" fill="#fff"/><path d="M136.664,155.1a.464.464,0,0,0-.656,0l-7.545,7.545-2.3-2.294a.464.464,0,0,0-.655,0l-1.315,1.307a.464.464,0,0,0,0,.657l3.939,3.939a.464.464,0,0,0,.656,0l9.186-9.186a.464.464,0,0,0,0-.656Z" transform="translate(-112.836 -142.942)" fill="#fff"/></g></g></svg>