<svg xmlns="http://www.w3.org/2000/svg" width="34.031" height="34.031" viewBox="0 0 34.031 34.031"><g transform="translate(-0.003 0)"><g transform="translate(0.003 0)"><g transform="translate(0)"><path d="M32.487,17.158V12.375a3.087,3.087,0,0,0-2.847-3.069L25.2,1.548A3.061,3.061,0,0,0,21,.417L5.771,9.282H3.1A3.1,3.1,0,0,0,0,12.375V30.937A3.1,3.1,0,0,0,3.1,34.031h26.3a3.1,3.1,0,0,0,3.094-3.094V26.154a2.317,2.317,0,0,0,1.547-2.178V19.336A2.317,2.317,0,0,0,32.487,17.158ZM27.842,9.282H21.1l5.056-2.944ZM25.388,5,18.026,9.282H14.973l9.652-5.619ZM21.777,1.754A1.5,1.5,0,0,1,22.925,1.6a1.517,1.517,0,0,1,.929.718l0,0L11.9,9.282H8.845ZM30.94,30.937a1.549,1.549,0,0,1-1.547,1.547H3.1A1.549,1.549,0,0,1,1.55,30.937V12.375A1.549,1.549,0,0,1,3.1,10.829h26.3a1.549,1.549,0,0,1,1.547,1.547v4.641H26.3a4.641,4.641,0,1,0,0,9.281H30.94v4.641Zm1.547-6.961a.774.774,0,0,1-.773.773H26.3a3.094,3.094,0,1,1,0-6.187h5.414a.774.774,0,0,1,.773.773Z" transform="translate(-0.003 0)" fill="#fff"/><path d="M342.884,277.341a1.547,1.547,0,1,0,1.547,1.547A1.549,1.549,0,0,0,342.884,277.341Z" transform="translate(-316.587 -257.232)" fill="#fff"/></g></g></g></svg>